<svg width="2200" height="50" viewBox="0 0 2200 50" fill="none" xmlns="http://www.w3.org/2000/svg">
<path d="M2200 9.99979L2200 0L0 1.68479e-07L-4.37106e-07 9.99973L298 9.99973L318 29.9997L395.5 29.9997L415.5 9.99973L485.5 9.99974L505.5 29.9997L525.5 29.9997L545.5 29.9997L565.5 29.9997L585.5 29.9997L605.5 9.99974L625.5 9.99974L645.5 9.99974L665.5 29.9997L685.5 29.9997L705.5 29.9997L725.5 29.9997L745.5 49.9997L765.5 49.9997L785.5 29.9997L805.5 29.9997L825.5 29.9997L845.5 29.9998L865.5 29.9998L885.5 9.99975L905.5 9.99976L925.5 9.99976L945.5 9.99976L965.5 29.9998L985.5 29.9998L1005.5 29.9998L1025.5 29.9998L1045.5 29.9998L1065.5 9.99976L1085.5 9.99976L1105.5 9.99976L1125.5 9.99977L1145.5 9.99977L1165.5 9.99977L1185.5 9.99977L1205.5 29.9998L1285.5 29.9998L1305.5 9.99977L1325.5 9.99977L1345.5 9.99977L1365.5 29.9998L1385.5 29.9998L1405.5 29.9998L1425.5 29.9998L1445.5 29.9998L1465.5 29.9998L1485.5 49.9998L1505.5 49.9998L1525.5 29.9998L1645.5 29.9998L1665.5 9.99979L1685.5 9.99979L1705.5 29.9998L1785.5 29.9998L1805.5 9.99979L2200 9.99979Z" fill="#F9F8FC"/>
</svg>
