<svg width="2200" height="42" viewBox="0 0 2200 42" fill="none" xmlns="http://www.w3.org/2000/svg">
  <linearGradient id="gradient" x1="0" y1="0" x2="100%" y2="0">
    <stop offset="0%" stop-color="#ece8f1"></stop>
    <stop offset="12.5%" stop-color="#ece8f1"></stop>
    <stop offset="32.8125%" stop-color="#7d64ff"></stop>
    <stop offset="69.2708%" stop-color="#7d64ff"></stop>
    <stop offset="88.0208%" stop-color="#ece8f1"></stop>
    <stop offset="100%" stop-color="#ece8f1"></stop>
  </linearGradient>

  <path d="M2200 1L1805.5 1L1785.5 21L1705.5 21L1685.5 0.999995L1665.5 0.999994L1645.5 21L1525.5 21L1505.5 41L1485.5 41L1465.5 21L1445.5 21L1425.5 21L1405.5 21L1385.5 21L1365.5 21L1345.5 0.99998L1325.5 0.999979L1305.5 0.999978L1285.5 21L1205.5 21L1185.5 0.999973L1165.5 0.999972L1145.5 0.999971L1125.5 0.99997L1105.5 0.999969L1085.5 0.999968L1065.5 0.999968L1045.5 21L1025.5 21L1005.5 21L985.5 21L965.5 21L945.5 0.999962L925.5 0.999961L905.5 0.999961L885.5 0.99996L865.5 21L845.5 21L825.5 21L805.5 21L785.5 21L765.5 40.9999L745.5 40.9999L725.5 21L705.5 20.9999L685.5 20.9999L665.5 20.9999L645.5 0.999949L625.5 0.999948L605.5 0.999947L585.5 20.9999L565.5 20.9999L545.5 20.9999L525.5 20.9999L505.5 20.9999L485.5 0.999942L415.5 0.999939L395.5 20.9999L318 20.9999L298 0.999934L0 0.999934" stroke="#ece8f1"/>

  <mask id="mask">
    <path d="M2200 1L1805.5 1L1785.5 21L1705.5 21L1685.5 0.999995L1665.5 0.999994L1645.5 21L1525.5 21L1505.5 41L1485.5 41L1465.5 21L1445.5 21L1425.5 21L1405.5 21L1385.5 21L1365.5 21L1345.5 0.99998L1325.5 0.999979L1305.5 0.999978L1285.5 21L1205.5 21L1185.5 0.999973L1165.5 0.999972L1145.5 0.999971L1125.5 0.99997L1105.5 0.999969L1085.5 0.999968L1065.5 0.999968L1045.5 21L1025.5 21L1005.5 21L985.5 21L965.5 21L945.5 0.999962L925.5 0.999961L905.5 0.999961L885.5 0.99996L865.5 21L845.5 21L825.5 21L805.5 21L785.5 21L765.5 40.9999L745.5 40.9999L725.5 21L705.5 20.9999L685.5 20.9999L665.5 20.9999L645.5 0.999949L625.5 0.999948L605.5 0.999947L585.5 20.9999L565.5 20.9999L545.5 20.9999L525.5 20.9999L505.5 20.9999L485.5 0.999942L415.5 0.999939L395.5 20.9999L318 20.9999L298 0.999934L0 0.999934" stroke="#ffffff"/>
  </mask>

  <rect x="0" y="-8px" width="100%" height="58px" fill="url(#gradient)" mask="url(#mask)" style="animation: hero-frame-background-line-animation 9s linear infinite"></rect>
</svg>
