<svg width="102" height="482" viewBox="0 0 102 482" fill="none" xmlns="http://www.w3.org/2000/svg">
  <linearGradient id="gradient" x1="0" y1="0" x2="0" y2="100%">
    <stop offset="0%" stop-color="#ece8f1"></stop>
    <stop offset="12.5%" stop-color="#ece8f1"></stop>
    <stop offset="32.8125%" stop-color="#7d64ff"></stop>
    <stop offset="69.2708%" stop-color="#7d64ff"></stop>
    <stop offset="88.0208%" stop-color="#ece8f1"></stop>
    <stop offset="100%" stop-color="#ece8f1"></stop>
  </linearGradient>

  <path d="M1 1L41 41V81L81 121V161L101 181V261L81 281V331L61 351V381L41 401V441L1 481" stroke="#ece8f1"/>
  <path d="M1 61L21 81V101L41 121V161L61 181V201L81 221V251L51 281V331L21 361V401L1 421" stroke="#ece8f1"/>
  <path d="M1 121L21 141V181L41 201V251L21 271V321L1 341" stroke="#ece8f1"/>

  <mask id="mask1">
    <path d="M1 1L41 41V81L81 121V161L101 181V261L81 281V331L61 351V381L41 401V441L1 481" stroke="#ffffff"></path>
  </mask>
  <mask id="mask2">
    <path d="M1 61L21 81V101L41 121V161L61 181V201L81 221V251L51 281V331L21 361V401L1 421" stroke="#ffffff"></path>
  </mask>
  <mask id="mask3">
    <path d="M1 121L21 141V181L41 201V251L21 271V321L1 341" stroke="#ffffff"></path>
  </mask>

  <rect x="0px" y="-200px" width="100%" height="200px" fill="url(#gradient)" mask="url(#mask1)" style="animation: lines-animation 9s linear 0s infinite"></rect>
  <rect x="0px" y="-200px" width="100%" height="200px" fill="url(#gradient)" mask="url(#mask2)" style="animation: lines-animation 9s linear 3s infinite"></rect>
  <rect x="0px" y="-200px" width="100%" height="200px" fill="url(#gradient)" mask="url(#mask3)" style="animation: lines-animation 9s linear 6s infinite"></rect>
</svg>
