<svg width="102" height="582" viewBox="0 0 102 582" fill="none" xmlns="http://www.w3.org/2000/svg">
  <linearGradient id="gradient" x1="0" y1="0" x2="0" y2="100%">
    <stop offset="0%" stop-color="#ece8f1"></stop>
    <stop offset="12.5%" stop-color="#ece8f1"></stop>
    <stop offset="32.8125%" stop-color="#7d64ff"></stop>
    <stop offset="69.2708%" stop-color="#7d64ff"></stop>
    <stop offset="88.0208%" stop-color="#ece8f1"></stop>
    <stop offset="100%" stop-color="#ece8f1"></stop>
  </linearGradient>

  <path d="M101 1L61 41V101L21 141V181L1 201V361L21 381.25V461L61 501.5V541L101 581" stroke="#ece8f1"/>
  <path d="M101 61L81 81V121L61 141V181L21 221V321L41 341V421L61 441V461L101 501" stroke="#ece8f1"/>
  <path d="M101 161L81 181V221L61 241V381L81 401V421L101 441.5" stroke="#ece8f1"/>

  <mask id="mask1">
    <path d="M101 1L61 41V101L21 141V181L1 201V361L21 381.25V461L61 501.5V541L101 581" stroke="#ffffff"></path>
  </mask>
  <mask id="mask2">
    <path d="M101 61L81 81V121L61 141V181L21 221V321L41 341V421L61 441V461L101 501" stroke="#ffffff"></path>
  </mask>
  <mask id="mask3">
    <path d="M101 161L81 181V221L61 241V381L81 401V421L101 441.5" stroke="#ffffff"></path>
  </mask>

  <rect x="0px" y="-200px" width="100%" height="200px" fill="url(#gradient)" mask="url(#mask1)" style="animation: lines-animation 9s linear 0s infinite"></rect>
  <rect x="0px" y="-200px" width="100%" height="200px" fill="url(#gradient)" mask="url(#mask2)" style="animation: lines-animation 9s linear 3s infinite"></rect>
  <rect x="0px" y="-200px" width="100%" height="200px" fill="url(#gradient)" mask="url(#mask3)" style="animation: lines-animation 9s linear 6s infinite"></rect>
</svg>
