<svg width="102" height="662" viewBox="0 0 102 662" fill="none" xmlns="http://www.w3.org/2000/svg">
  <linearGradient id="gradient" x1="0" y1="0" x2="0" y2="100%">
    <stop offset="0%" stop-color="#ece8f1"></stop>
    <stop offset="12.5%" stop-color="#ece8f1"></stop>
    <stop offset="32.8125%" stop-color="#7d64ff"></stop>
    <stop offset="69.2708%" stop-color="#7d64ff"></stop>
    <stop offset="88.0208%" stop-color="#ece8f1"></stop>
    <stop offset="100%" stop-color="#ece8f1"></stop>
  </linearGradient>

  <path d="M101 1C99.4 2.6 73.8333 28.1667 61 41V81L21 121V141L1 161V441L21 461V501L41 521V561L81 601V641L101 661.5" stroke="#ece8f1"/>
  <path d="M101 41L81 61V121L41 161V201L21 221V401L41 421V441L61 461V501L101 541" stroke="#ece8f1"/>
  <path d="M101 161L81 181V221L41 261V321L61 341V381L81 401V441L101 461" stroke="#ece8f1"/>

  <mask id="mask1">
    <path d="M101 1C99.4 2.6 73.8333 28.1667 61 41V81L21 121V141L1 161V441L21 461V501L41 521V561L81 601V641L101 661.5" stroke="#ffffff"></path>
  </mask>
  <mask id="mask2">
    <path d="M101 41L81 61V121L41 161V201L21 221V401L41 421V441L61 461V501L101 541" stroke="#ffffff"></path>
  </mask>
  <mask id="mask3">
    <path d="M101 161L81 181V221L41 261V321L61 341V381L81 401V441L101 461" stroke="#ffffff"></path>
  </mask>

  <rect x="0px" y="-200px" width="100%" height="200px" fill="url(#gradient)" mask="url(#mask1)" style="animation: lines-animation 9s linear 0s infinite"></rect>
  <rect x="0px" y="-200px" width="100%" height="200px" fill="url(#gradient)" mask="url(#mask2)" style="animation: lines-animation 9s linear 3s infinite"></rect>
  <rect x="0px" y="-200px" width="100%" height="200px" fill="url(#gradient)" mask="url(#mask3)" style="animation: lines-animation 9s linear 6s infinite"></rect>
</svg>
