<svg width="102" height="662" viewBox="0 0 102 662" fill="none" xmlns="http://www.w3.org/2000/svg">
  <linearGradient id="gradient" x1="0" y1="0" x2="0" y2="100%">
    <stop offset="0%" stop-color="#ece8f1"></stop>
    <stop offset="12.5%" stop-color="#ece8f1"></stop>
    <stop offset="32.8125%" stop-color="#7d64ff"></stop>
    <stop offset="69.2708%" stop-color="#7d64ff"></stop>
    <stop offset="88.0208%" stop-color="#ece8f1"></stop>
    <stop offset="100%" stop-color="#ece8f1"></stop>
  </linearGradient>

  <path d="M1 1L41 41V61L61 81V121L101 161V401L81 421V481L41 521V581L21 601V641L1 661" stroke="#ece8f1"/>
  <path d="M1 81L21 101V141L61 181V241L81 261V341L61 361V401L41 421V481L21 501V541L1 561" stroke="#ece8f1"/>
  <path d="M1 181L21 201V241L61 281V321L41 341V361L21 381V421L1 441" stroke="#ece8f1"/>

  <mask id="mask1">
    <path d="M1 1L41 41V61L61 81V121L101 161V401L81 421V481L41 521V581L21 601V641L1 661" stroke="#ffffff"></path>
  </mask>
  <mask id="mask2">
    <path d="M1 81L21 101V141L61 181V241L81 261V341L61 361V401L41 421V481L21 501V541L1 561" stroke="#ffffff"></path>
  </mask>
  <mask id="mask3">
    <path d="M1 181L21 201V241L61 281V321L41 341V361L21 381V421L1 441" stroke="#ffffff"></path>
  </mask>

  <rect x="0px" y="-200px" width="100%" height="200px" fill="url(#gradient)" mask="url(#mask1)" style="animation: lines-animation 9s linear 0s infinite"></rect>
  <rect x="0px" y="-200px" width="100%" height="200px" fill="url(#gradient)" mask="url(#mask2)" style="animation: lines-animation 9s linear 3s infinite"></rect>
  <rect x="0px" y="-200px" width="100%" height="200px" fill="url(#gradient)" mask="url(#mask3)" style="animation: lines-animation 9s linear 6s infinite"></rect>
</svg>
