<svg width="102" height="562" viewBox="0 0 102 562" fill="none" xmlns="http://www.w3.org/2000/svg">
  <linearGradient id="gradient" x1="0" y1="0" x2="0" y2="100%">
    <stop offset="0%" stop-color="#ece8f1"></stop>
    <stop offset="12.5%" stop-color="#ece8f1"></stop>
    <stop offset="32.8125%" stop-color="#7d64ff"></stop>
    <stop offset="69.2708%" stop-color="#7d64ff"></stop>
    <stop offset="88.0208%" stop-color="#ece8f1"></stop>
    <stop offset="100%" stop-color="#ece8f1"></stop>
  </linearGradient>

  <path d="M1 1L21 21V41L61 81V121L101 161V341L81 361V441L61 461V501L1 561" stroke="#ece8f1"/>
  <path d="M1 81L21 101V141L61 181V201L81 221V321L61 341V381L41 401V441L21 461V501L1 521" stroke="#ece8f1"/>
  <path d="M1 181L41 221V241.5L61 261V301L41 321V361L1 401" stroke="#ece8f1"/>

  <mask id="mask1">
    <path d="M1 1L21 21V41L61 81V121L101 161V341L81 361V441L61 461V501L1 561" stroke="#ffffff"></path>
  </mask>
  <mask id="mask2">
    <path d="M1 81L21 101V141L61 181V201L81 221V321L61 341V381L41 401V441L21 461V501L1 521" stroke="#ffffff"></path>
  </mask>
  <mask id="mask3">
    <path d="M1 181L41 221V241.5L61 261V301L41 321V361L1 401" stroke="#ffffff"></path>
  </mask>

  <rect x="0px" y="-200px" width="100%" height="200px" fill="url(#gradient)" mask="url(#mask1)" style="animation: lines-animation 9s linear 0s infinite"></rect>
  <rect x="0px" y="-200px" width="100%" height="200px" fill="url(#gradient)" mask="url(#mask2)" style="animation: lines-animation 9s linear 3s infinite"></rect>
  <rect x="0px" y="-200px" width="100%" height="200px" fill="url(#gradient)" mask="url(#mask3)" style="animation: lines-animation 9s linear 6s infinite"></rect>
</svg>
