<svg width="102" height="662" viewBox="0 0 102 662" fill="none" xmlns="http://www.w3.org/2000/svg">
  <linearGradient id="gradient" x1="0" y1="0" x2="0" y2="100%">
    <stop offset="0%" stop-color="#ece8f1"></stop>
    <stop offset="12.5%" stop-color="#ece8f1"></stop>
    <stop offset="32.8125%" stop-color="#7d64ff"></stop>
    <stop offset="69.2708%" stop-color="#7d64ff"></stop>
    <stop offset="88.0208%" stop-color="#ece8f1"></stop>
    <stop offset="100%" stop-color="#ece8f1"></stop>
  </linearGradient>

  <path d="M1 1L41 41V101L61 121V161L81 181V221L101 241V421L81 441V501L61 521V581L41 601V621L1 661" stroke="#ece8f1"/>
  <path d="M1 61L21 81V181L41 201V221L61 241V281L81 301V381L61 401V441L41 461V501L21 521V581L1 601" stroke="#ece8f1"/>
  <path d="M1 241L21 261V281L61 321V361L41 381V421L21 441V481L1 501" stroke="#ece8f1"/>

  <mask id="mask1">
    <path d="M1 1L41 41V101L61 121V161L81 181V221L101 241V421L81 441V501L61 521V581L41 601V621L1 661" stroke="#ffffff"></path>
  </mask>
  <mask id="mask2">
    <path d="M1 61L21 81V181L41 201V221L61 241V281L81 301V381L61 401V441L41 461V501L21 521V581L1 601" stroke="#ffffff"></path>
  </mask>
  <mask id="mask3">
    <path d="M1 241L21 261V281L61 321V361L41 381V421L21 441V481L1 501" stroke="#ffffff"></path>
  </mask>

  <rect x="0px" y="-200px" width="100%" height="200px" fill="url(#gradient)" mask="url(#mask1)" style="animation: lines-animation 9s linear 0s infinite"></rect>
  <rect x="0px" y="-200px" width="100%" height="200px" fill="url(#gradient)" mask="url(#mask2)" style="animation: lines-animation 9s linear 3s infinite"></rect>
  <rect x="0px" y="-200px" width="100%" height="200px" fill="url(#gradient)" mask="url(#mask3)" style="animation: lines-animation 9s linear 6s infinite"></rect>
</svg>
