<svg width="102" height="582" viewBox="0 0 102 582" fill="none" xmlns="http://www.w3.org/2000/svg">
  <linearGradient id="gradient" x1="0" y1="0" x2="0" y2="100%">
    <stop offset="0%" stop-color="#ece8f1"></stop>
    <stop offset="12.5%" stop-color="#ece8f1"></stop>
    <stop offset="32.8125%" stop-color="#7d64ff"></stop>
    <stop offset="69.2708%" stop-color="#7d64ff"></stop>
    <stop offset="88.0208%" stop-color="#ece8f1"></stop>
    <stop offset="100%" stop-color="#ece8f1"></stop>
  </linearGradient>

  <path d="M101 1L61 41V81L21 121V181L1 201V461L41 501V521L101 581" stroke="#ece8f1"/>
  <path d="M101 81L61 121V181L41 201V241L21 261V381L41 401V461L81 501V521.5L101 541" stroke="#ece8f1"/>
  <path d="M101 141L81 161V241L61 261C61 261 61 288.833 61 301L41 321V361L61 381V421L101 461" stroke="#ece8f1"/>

  <mask id="mask1">
    <path d="M101 1L61 41V81L21 121V181L1 201V461L41 501V521L101 581" stroke="#ffffff"></path>
  </mask>
  <mask id="mask2">
    <path d="M101 81L61 121V181L41 201V241L21 261V381L41 401V461L81 501V521.5L101 541" stroke="#ffffff"></path>
  </mask>
  <mask id="mask3">
    <path d="M101 141L81 161V241L61 261C61 261 61 288.833 61 301L41 321V361L61 381V421L101 461" stroke="#ffffff"></path>
  </mask>

  <rect x="0px" y="-200px" width="100%" height="200px" fill="url(#gradient)" mask="url(#mask1)" style="animation: lines-animation 9s linear 0s infinite"></rect>
  <rect x="0px" y="-200px" width="100%" height="200px" fill="url(#gradient)" mask="url(#mask2)" style="animation: lines-animation 9s linear 3s infinite"></rect>
  <rect x="0px" y="-200px" width="100%" height="200px" fill="url(#gradient)" mask="url(#mask3)" style="animation: lines-animation 9s linear 6s infinite"></rect>
</svg>
