<svg width="534" height="60" viewBox="0 0 534 60" fill="none" xmlns="http://www.w3.org/2000/svg">
<path opacity="0.1" d="M203 24L210.5 11H225.5L233 24L225.5 37H210.5L203 24Z" fill="white"/>
<path opacity="0.5" d="M226.688 0L212.716 23.4997H0V24.4997H213.284L227.852 0H226.688Z" fill="url(#paint0_linear)"/>
<path opacity="0.1" d="M353 0L346 12L356.5 30H377.5L388 12L381 0H353Z" fill="white"/>
<g opacity="0.25">
<path d="M242.299 60L243.271 58.375L244.129 58.8883L243.464 60H242.299Z" fill="#ECE8F1"/>
<path d="M302.701 60L301.729 58.375L300.871 58.8883L301.536 60H302.701Z" fill="#ECE8F1"/>
<path d="M298.329 54.6383L299.187 54.125L296.646 49.875L295.787 50.3883L298.329 54.6383Z" fill="#ECE8F1"/>
<path d="M293.246 46.1383L294.104 45.625L291.562 41.375L290.704 41.8883L293.246 46.1383Z" fill="#ECE8F1"/>
<path d="M259.791 36V35L257.25 35L255.979 37.125L256.837 37.6383L257.817 36L259.791 36Z" fill="#ECE8F1"/>
<path d="M254.296 41.8883L253.437 41.375L250.896 45.625L251.754 46.1383L254.296 41.8883Z" fill="#ECE8F1"/>
<path d="M249.212 50.3883L248.354 49.875L245.812 54.125L246.671 54.6383L249.212 50.3883Z" fill="#ECE8F1"/>
<path d="M264.875 36V35L269.958 35V36L264.875 36Z" fill="#ECE8F1"/>
<path d="M275.041 36V35L280.125 35V36L275.041 36Z" fill="#ECE8F1"/>
<path d="M285.208 36V35L287.75 35L289.021 37.125L288.162 37.6383L287.183 36L285.208 36Z" fill="#ECE8F1"/>
</g>
<path opacity="0.05" d="M293 20L278 45.5L286.529 60H329.471L338 45.5L323 20H293Z" fill="white"/>
<path opacity="0.5" d="M293.066 0L320.715 46.4997H533.999V45.4997H321.284L294.23 0H293.066Z" fill="url(#paint1_linear)"/>
<defs>
<linearGradient id="paint0_linear" x1="-0.000111068" y1="-50.0003" x2="256.326" y2="-36.8599" gradientUnits="userSpaceOnUse">
<stop stop-color="white" stop-opacity="0"/>
<stop offset="0.585603" stop-color="white" stop-opacity="0.25"/>
<stop offset="0.821012" stop-color="white"/>
<stop offset="0.898833" stop-color="white" stop-opacity="0.25"/>
<stop offset="1" stop-color="white" stop-opacity="0"/>
</linearGradient>
<linearGradient id="paint1_linear" x1="534" y1="-28.0003" x2="277.674" y2="-14.8599" gradientUnits="userSpaceOnUse">
<stop stop-color="white" stop-opacity="0"/>
<stop offset="0.585603" stop-color="white" stop-opacity="0.25"/>
<stop offset="0.821012" stop-color="white"/>
<stop offset="0.898833" stop-color="white" stop-opacity="0.25"/>
<stop offset="1" stop-color="white" stop-opacity="0"/>
</linearGradient>
</defs>
</svg>
