<svg width="51" height="50" fill="none" xmlns="http://www.w3.org/2000/svg">
  <path fill="#F9F8FC" stroke="#BEB9D7" stroke-linecap="round" stroke-linejoin="round" d="M1 9h30v40H1z"/>
  <path d="M6 4h30v40H6V4z" fill="#fff"/>
  <path fill="#7D64FF" d="M10 8h18v5H10z"/>
  <path stroke="#7D64FF" stroke-linecap="round" stroke-linejoin="round"
        d="M10.5 17.5h20M10.5 22.5h17M10.5 27.5h13M10.5 32.5h13M10.5 37.5h16"/>
  <path d="M36 9V4H6v40h30V34" stroke="#3C3C64" stroke-linecap="round" stroke-linejoin="round"/>
  <path d="M45 1l4.33 2.5-15 25.98-6.165 5.679L30 26.981 45 1z" fill="#fff" stroke="#3C3C64" stroke-linejoin="round"/>
  <path stroke="#3C3C64" d="M42.25 5.763l4.33 2.5M41.25 7.495l4.33 2.5"/>
  <path stroke="#3C3C64" stroke-width="1.5" d="M30.375 26.331l4.33 2.5"/>
</svg>
