<svg width="60" height="60" viewBox="0 0 60 60" fill="none" xmlns="http://www.w3.org/2000/svg">
<rect width="60" height="60" rx="30" fill="#7D64FF"/>
<path fill-rule="evenodd" clip-rule="evenodd" d="M37.705 23.7071C38.0955 23.3166 38.0955 22.6834 37.705 22.2929C37.3145 21.9024 36.6813 21.9024 36.2908 22.2929L29.9989 28.5847L23.7071 22.2929C23.3166 21.9024 22.6834 21.9024 22.2929 22.2929C21.9024 22.6834 21.9024 23.3166 22.2929 23.7071L28.5847 29.9989L22.2929 36.2908C21.9024 36.6813 21.9024 37.3145 22.2929 37.705C22.6834 38.0955 23.3166 38.0955 23.7071 37.705L29.9989 31.4132L36.2908 37.705C36.6813 38.0955 37.3145 38.0955 37.705 37.705C38.0955 37.3145 38.0955 36.6813 37.705 36.2908L31.4132 29.9989L37.705 23.7071Z" fill="white"/>
</svg>
