<svg width="19" height="19" viewBox="0 0 19 19" fill="none" xmlns="http://www.w3.org/2000/svg">
<path fill-rule="evenodd" clip-rule="evenodd" d="M2.375 0.00195312H13.0625C14.3725 0.00195312 15.4375 1.06699 15.4375 2.37695V9.50195C15.4375 10.8119 14.3725 11.877 13.0625 11.877H7.34395L3.35469 15.2984C3.24707 15.3912 3.10605 15.4395 2.96875 15.4395C2.8834 15.4395 2.79805 15.4209 2.72012 15.3838C2.50859 15.2873 2.375 15.0758 2.375 14.8457V11.877C1.06504 11.877 0 10.8119 0 9.50195V2.37695C0 1.06699 1.06504 0.00195312 2.375 0.00195312ZM4.15625 3.56445H11.2812C11.6078 3.56445 11.875 3.83164 11.875 4.1582C11.875 4.48477 11.6078 4.75195 11.2812 4.75195H4.15625C3.82969 4.75195 3.5625 4.48477 3.5625 4.1582C3.5625 3.83164 3.82969 3.56445 4.15625 3.56445ZM8.90625 5.93945H4.15625C3.82969 5.93945 3.5625 6.20664 3.5625 6.5332C3.5625 6.85977 3.82969 7.12695 4.15625 7.12695H8.90625C9.23281 7.12695 9.5 6.85977 9.5 6.5332C9.5 6.20664 9.23281 5.93945 8.90625 5.93945Z" fill="#BEB9D7"/>
<path d="M16.6249 9.40918V3.56445C17.9349 3.56445 18.9999 4.62949 18.9999 5.93945V13.0607C18.9999 14.3707 17.9349 15.4357 16.6249 15.4357V18.4045C16.6249 18.6346 16.4913 18.8461 16.2798 18.9426C16.2019 18.9797 16.1165 18.9982 16.0312 18.9982C15.8938 18.9982 15.7565 18.95 15.6452 18.8572L11.656 15.4357H5.9374C5.63311 15.4357 5.33994 15.3764 5.07275 15.2725L7.68525 13.0273H13.0216C15.0069 13.0273 16.6249 11.4057 16.6249 9.40918Z" fill="#BEB9D7"/>
</svg>
