<svg width="60" height="60" viewBox="0 0 60 60" fill="none" xmlns="http://www.w3.org/2000/svg">
<rect width="60" height="60" rx="30" fill="#7D64FF"/>
<path fill-rule="evenodd" clip-rule="evenodd" d="M30 45C38.2843 45 45 38.2843 45 30C45 21.7157 38.2843 15 30 15C21.7157 15 15 21.7157 15 30C15 32.6021 15.6626 35.0493 16.8281 37.1824V43.1406H22.7607C24.9071 44.3256 27.3748 45 30 45Z" fill="white"/>
<path d="M31.1386 32.625C31.1386 30.2917 35 30.2917 35 26.9861C35 24.8472 33.1188 23 30.0495 23C26.0891 23 25 26.2083 25 26.2083L27.5743 27.375C27.5743 27.375 28.2673 25.8194 30.0495 25.8194C31.1386 25.8194 31.8317 26.5 31.8317 27.1806C31.8317 28.7361 28.3663 29.125 28.3663 31.75C28.3663 32.2361 28.5644 32.625 28.5644 32.625H31.1386ZM28.1683 35.4444C28.1683 36.3194 28.8614 37 29.7525 37C30.6436 37 31.3366 36.3194 31.3366 35.4444C31.3366 34.5694 30.6436 33.8889 29.7525 33.8889C28.8614 33.8889 28.1683 34.5694 28.1683 35.4444Z" fill="#7D64FF"/>
</svg>
