<svg width="20" height="19" viewBox="0 0 20 19" fill="none" xmlns="http://www.w3.org/2000/svg">
<path d="M7.00092 10.0162C5.89892 10.0162 5.00513 10.91 5.00513 12.012V17.0042C5.00513 18.1062 5.89892 19 7.00092 19C8.10291 19 8.99671 18.1062 8.99671 17.0042V12.012C8.99591 10.91 8.10212 10.0162 7.00092 10.0162Z" fill="#BEB9D7"/>
<path d="M0.0153809 12.012C0.0153809 13.1147 0.909964 14.0093 2.01276 14.0093C3.11555 14.0093 4.01013 13.1147 4.01013 12.012V10.0146H2.01434C2.01355 10.0146 2.01355 10.0146 2.01276 10.0146C0.909964 10.0146 0.0153809 10.9092 0.0153809 12.012Z" fill="#BEB9D7"/>
<path d="M7.00341 0C7.00262 0 7.00183 0 7.00103 0C5.89824 0 5.00366 0.894583 5.00366 1.99738C5.00366 3.10017 5.89824 3.99475 7.00103 3.99475H8.99682V1.99738C8.99682 1.99658 8.99682 1.995 8.99682 1.99342C8.99603 0.892208 8.10382 0 7.00341 0Z" fill="#BEB9D7"/>
<path d="M1.99933 9.00201H7.00108C8.10387 9.00201 8.99845 8.10743 8.99845 7.00464C8.99845 5.90184 8.10387 5.00726 7.00108 5.00726H1.99933C0.896536 5.00726 0.00195312 5.90184 0.00195312 7.00464C0.00195312 8.10743 0.896536 9.00201 1.99933 9.00201Z" fill="#BEB9D7"/>
<path d="M16.9871 5.00653C15.8859 5.00653 14.9937 5.89874 14.9937 6.99995V9.00128H16.9894C18.0922 9.00128 18.9868 8.1067 18.9868 7.00391C18.9868 5.90111 18.0922 5.00653 16.9894 5.00653C16.9887 5.00653 16.9879 5.00653 16.9871 5.00653Z" fill="#BEB9D7"/>
<path d="M10.0078 1.99744V7.00473C10.0078 8.10673 10.9016 9.00052 12.0036 9.00052C13.1056 9.00052 13.9994 8.10673 13.9994 7.00473V1.99744C13.9994 0.89544 13.1056 0.00164795 12.0036 0.00164795C10.9016 0.00164795 10.0078 0.89544 10.0078 1.99744Z" fill="#BEB9D7"/>
<path d="M13.9984 17.0026C13.9984 15.9006 13.1046 15.0068 12.0026 15.0068H10.0068V17.0042C10.0076 18.1054 10.9006 18.9984 12.0026 18.9984C13.1046 18.9984 13.9984 18.1046 13.9984 17.0026Z" fill="#BEB9D7"/>
<path d="M17.0045 10.0146H12.0028C10.9 10.0146 10.0054 10.9092 10.0054 12.012C10.0054 13.1147 10.9 14.0093 12.0028 14.0093H17.0045C18.1073 14.0093 19.0019 13.1147 19.0019 12.012C19.0019 10.9092 18.1073 10.0146 17.0045 10.0146Z" fill="#BEB9D7"/>
</svg>
