<?xml version="1.0" encoding="UTF-8"?>
<svg width="369px" height="194px" viewBox="0 0 369 194" version="1.1" xmlns="http://www.w3.org/2000/svg" xmlns:xlink="http://www.w3.org/1999/xlink">
    <!-- Generator: Sketch 52.6 (67491) - http://www.bohemiancoding.com/sketch -->
    <title>Group 363</title>
    <desc>Created with Sketch.</desc>
    <g id="Page-1" stroke="none" stroke-width="1" fill="none" fill-rule="evenodd">
        <g id="Group-363" transform="translate(0.000000, 1.000000)">
            <polygon id="Path" fill="#7D64FF" opacity="0.05" points="189 118 234 43 324 43 369 118 324 193 234 193"></polygon>
            <polygon id="Path" fill="#7D64FF" opacity="0.1" points="0 65 17.5 35 52.5 35 70 65 52.5 95 17.5 95"></polygon>
            <path d="M118.75,81.25 L116.25,77.083 L116.679,76.826 L115.583,75 L116.679,73.174 L116.25,72.917 L118.75,68.75 L119.179,69.007 L121.679,64.841 L121.25,64.583 L123.75,60.417 L124.179,60.674 L126.679,56.5073 L126.25,56.25 L128.75,52.0833 L129.179,52.3406 L131.679,48.1739 L131.25,47.9167 L133.75,43.75 L134.179,44.0072 L136.679,39.8406 L136.25,39.5833 L138.75,35.4167 L139.179,35.6739 L141.679,31.5072 L141.25,31.25 L143.75,27.0833 L144.179,27.3406 L146.679,23.1739 L146.25,22.9167 L148.75,18.75 L149.179,19.0072 L151.679,14.8406 L151.25,14.5833 L153.75,10.4167 L154.179,10.6739 L156.679,6.5072 L156.25,6.25 L158.75,2.0833 L159.179,2.3406 L160.283,0.5 L162.5,0.5 L162.5,0 L167.5,0 L167.5,0.5 L172.5,0.5 L172.5,0 L177.5,0 L177.5,0.5 L182.5,0.5 L182.5,0 L187.5,0 L187.5,0.5 L192.5,0.5 L192.5,0 L197.5,0 L197.5,0.5 L202.5,0.5 L202.5,0 L207.5,0 L207.5,0.5 L212.5,0.5 L212.5,0 L217.5,0 L217.5,0.5 L222.5,0.5 L222.5,0 L227.5,0 L227.5,0.5 L232.5,0.5 L232.5,0 L237.5,0 L237.5,0.5 L242.5,0.5 L242.5,0 L247.5,0 L247.5,0.5 L249.717,0.5 L250.821,2.3406 L251.25,2.0833 L253.75,6.25 L253.321,6.5072 L255.821,10.6739 L256.25,10.4167 L258.75,14.5833 L258.321,14.8406 L260.821,19.0072 L261.25,18.75 L263.75,22.9167 L263.321,23.1739 L265.821,27.3406 L266.25,27.0833 L268.75,31.25 L268.321,31.5072 L270.821,35.6739 L271.25,35.4167 L273.75,39.5833 L273.321,39.8406 L275.821,44.0072 L276.25,43.75 L278.75,47.9167 L278.321,48.1739 L280.821,52.3406 L281.25,52.0833 L283.75,56.25 L283.321,56.5072 L285.821,60.674 L286.25,60.417 L288.75,64.583 L288.321,64.841 L290.821,69.007 L291.25,68.75 L293.75,72.917 L293.321,73.174 L294.417,75 L293.321,76.826 L293.75,77.083 L291.25,81.25 L290.821,80.993 L288.321,85.159 L288.75,85.417 L286.25,89.583 L285.821,89.326 L283.321,93.493 L283.75,93.75 L281.25,97.917 L280.821,97.659 L278.321,101.826 L278.75,102.083 L276.25,106.25 L275.821,105.993 L273.321,110.159 L273.75,110.417 L271.25,114.583 L270.821,114.326 L268.321,118.493 L268.75,118.75 L266.25,122.917 L265.821,122.659 L263.321,126.826 L263.75,127.083 L261.25,131.25 L260.821,130.993 L258.321,135.159 L258.75,135.417 L256.25,139.583 L255.821,139.326 L253.321,143.493 L253.75,143.75 L251.25,147.917 L250.821,147.659 L249.717,149.5 L247.5,149.5 L247.5,150 L242.5,150 L242.5,149.5 L237.5,149.5 L237.5,150 L232.5,150 L232.5,149.5 L227.5,149.5 L227.5,150 L222.5,150 L222.5,149.5 L217.5,149.5 L217.5,150 L212.5,150 L212.5,149.5 L207.5,149.5 L207.5,150 L202.5,150 L202.5,149.5 L197.5,149.5 L197.5,150 L192.5,150 L192.5,149.5 L187.5,149.5 L187.5,150 L182.5,150 L182.5,149.5 L177.5,149.5 L177.5,150 L172.5,150 L172.5,149.5 L167.5,149.5 L167.5,150 L162.5,150 L162.5,149.5 L160.283,149.5 L159.179,147.659 L158.75,147.917 L156.25,143.75 L156.679,143.493 L154.179,139.326 L153.75,139.583 L151.25,135.417 L151.679,135.159 L149.179,130.993 L148.75,131.25 L146.25,127.083 L146.679,126.826 L144.179,122.659 L143.75,122.917 L141.25,118.75 L141.679,118.493 L139.179,114.326 L138.75,114.583 L136.25,110.417 L136.679,110.159 L134.179,105.993 L133.75,106.25 L131.25,102.083 L131.679,101.826 L129.179,97.659 L128.75,97.917 L126.25,93.75 L126.679,93.493 L124.179,89.326 L123.75,89.583 L121.25,85.417 L121.679,85.159 L119.179,80.993 L118.75,81.25 Z" id="Path" stroke="#ECE8F1" stroke-dasharray="5"></path>
        </g>
    </g>
</svg>