<svg xmlns="http://www.w3.org/2000/svg" viewBox="0 0 394.67 392.08"><defs><style>.cls-1{fill:#fff;}.cls-2{fill:#8764ff;}.cls-3,.cls-4,.cls-5,.cls-7,.cls-8,.cls-9{fill:none;}.cls-3,.cls-4,.cls-5{stroke:#8764ff;}.cls-3,.cls-5,.cls-7,.cls-8,.cls-9{stroke-linejoin:round;}.cls-3,.cls-5,.cls-7{stroke-width:2px;}.cls-4{stroke-miterlimit:10;}.cls-5,.cls-7,.cls-8,.cls-9{stroke-linecap:round;}.cls-6{fill:#3c3c64;}.cls-7,.cls-8,.cls-9{stroke:#3c3c64;}.cls-8{stroke-width:3px;}.cls-9{stroke-width:4.21px;}</style></defs><title>w1334кAsset 1</title><g id="Layer_2" data-name="Layer 2"><g id="line"><circle class="cls-1" cx="189.77" cy="213.82" r="176.15"/><path class="cls-1" d="M65.58,90.31s3.61-31.75,9.54-44.75,16.23-24.74,34.34-26.31,49.67,9.88,55.78,11.06,14.28,2.91,23.61.64,28.09-19.81,39.84-19.85,20.3,6.52,23.9,24.42v1.87l10.7,3.72s36-21.16,63.15-24.42l9.72-1.21S348,1.06,355,5.31c0,0-.25,7.85-7.82,15.17,0,0,14.69-2.84,15.37,5.37s-6.76,29.26-29.16,38L313.81,86.68s-39,55.38-60.92,73.63c0,0-21.1,16.41-33.53,18.95L227.31,199l25.46-6.1,1.49-2.4,19.71-2.6s2.29-5.39,3.56-7c0,0,.78-7.74,5.09-8.86l7.16.61s-.51-15.05-3.61-22.48l8.58,4.76,11.39-8.46L303.06,154l2.24,22.12s12.83,2.72,15.29,4.84,5.7,5.8,11,26.33,10.66,26.19,10.66,26.19l1.25-1.5s5.17,1.84,14.67,20c0,0,20.69,30,32.26,56.35,0,0,8.89,16-.14,37.44,0,0-7.79,16.84-22,17,0,0-16.12.92-26.85-11.85s-25.52-31.19-25.52-31.19l-1-1.67-.8,20.29s-14.79,15.88-22.77,19.51l3.44-15.13s5.51-26.83,4.71-46.83l-13.16-21.5s.85,70.73-4.51,89.74c0,0-79.62,56.19-179.25,2.85L96.22,328,78.57,351.74s-18.21,30.91-48.3,35.49S0,362.55.6,357.24c0,0,4.21-27.64,11.09-43.1,0,0,12.31-27.59,17.09-33.21s25.35-28.87,25.35-28.87,3.56-28,15.18-34.75,20.21-12.63,33.54-7.75v-1.71s23-4.67,23.34-4.67,3.95,7.11,3.95,7.11h10.23l9.32-18a271.84,271.84,0,0,1-39-4.42c-19.38-3.83-30-15-30-15s-25.69-5.69-31-17.4S40.19,128.36,54.75,116l10-6.21Z"/><path class="cls-2" d="M364.56,362.68s5.75-16.87,10.63-23.75c0,0,11.21.17,17.16,1.71a59.46,59.46,0,0,0,2-14.33s-23.5-.25-27.62,0c0,0-11.63,26.37-13.57,33.12C353.12,359.43,359.6,362.84,364.56,362.68Z"/><path class="cls-3" d="M349.2,357.23l14.36-34.17s17.44-1,30.47-.64"/><polygon class="cls-2" points="315.12 311.14 322.45 297.25 315.46 274.64 315.12 311.14"/><line class="cls-4" x1="315.1" y1="318.47" x2="323.55" y2="300.88"/><polygon class="cls-2" points="246.42 380 249.19 347.31 286.32 297.87 285.48 326.31 265.83 349.31 262.52 372.81 246.42 380"/><polyline class="cls-3" points="266.37 371.06 268.31 351.56 284.38 332.43"/><path class="cls-2" d="M267.42,220.43l10.55-3s4.2,11.33,11.27,16l-26.3,7.46-3.25,3.13Z"/><polyline class="cls-3" points="259.05 251.28 266.19 244.16 297.06 236.47"/><path class="cls-2" d="M175.44,259.32l54.41-8,16.57-17.14s-2.27,10.41.25,18.12a11.21,11.21,0,0,0-5.38,11.48l-6.85,6.32-67.71,9.37,8.71-10.14S177,265.66,175.44,259.32Z"/><polyline class="cls-3" points="163.03 284.2 237.06 274.31 243.32 267.97"/><path class="cls-2" d="M149.55,351.74l9.18,3.95,18.79,33.62-9.67-.67S152.41,370.85,149.55,351.74Z"/><polygon class="cls-2" points="97.81 338.65 131.4 357.82 126.44 336.79 101.69 321.72 95.78 328.48 97.81 338.65"/><line class="cls-3" x1="98.75" y1="344.3" x2="132.85" y2="362.67"/><path class="cls-2" d="M56.77,238.67S88,243.34,115,236.26l2.48,8.42-7.07,9.14s-42,8.36-56.24,1.42C54.13,255.24,53.85,243.86,56.77,238.67Z"/><path class="cls-3" d="M47.69,259.56s19.08,7.08,59.52-1.56"/><path class="cls-2" d="M27.06,315.36l-3.31-27.09s6.44-10.46,12.69-16.09l4.94,34.31Z"/><line class="cls-3" x1="23.75" y1="317.84" x2="21.06" y2="292.39"/><path class="cls-2" d="M.6,360.43,29,357.24l14.34,25.82L34,386.37,23.75,367.06l-22.19,3S.13,363.93.6,360.43Z"/><polyline class="cls-3" points="0.81 355.99 32.31 352.87 46.69 380.93"/><path class="cls-3" d="M121.6,287.64A33.66,33.66,0,0,0,132,285.18"/><path class="cls-3" d="M121.6,295.81s12.34.5,18.75-5.5"/><path class="cls-3" d="M122.19,307.81s12.08,2.08,19-4.67"/><path class="cls-3" d="M123.91,320.6a27.78,27.78,0,0,0,18.51-4.37"/><path class="cls-3" d="M125.44,331.1s11.34,2.12,18.42-4.79"/><path class="cls-3" d="M128,344.3s11.23,1.23,18.18-5.84"/><path class="cls-3" d="M130.85,356.22s10.25.85,18.29-5.87"/><path class="cls-3" d="M134.65,368.14s10.7-.67,17.37-8"/><path class="cls-3" d="M137.77,376.44s11.14,1.27,17.94-6.35"/><path class="cls-3" d="M141,383.6s14.31-.4,20-4.31"/><path class="cls-3" d="M303,224.36s4.54,4,9.36,5"/><path class="cls-3" d="M296.43,230.12s6.26,9.69,16.76,9"/><path class="cls-3" d="M297.66,243.14s4.51,7.86,16.73,7.51"/><path class="cls-3" d="M298.1,253.89s7.16,10.5,17,10.33"/><path class="cls-3" d="M299.17,267.05s3.8,9.26,15.95,8.59"/><path class="cls-3" d="M299.58,278.14s5.41,8.58,15.88,7.83"/><path class="cls-3" d="M299.58,288s6.24,9,15.68,8.67"/><path class="cls-3" d="M299.4,298.81s5.34,10.46,15.86,7.31"/><path class="cls-3" d="M298.86,310.56s4.06,10.5,16,8.92"/><path class="cls-3" d="M298,321.23s4.37,9.35,16.37,9.17"/><path class="cls-5" d="M296.82,331s5.45,7,12.45,8.37"/><line class="cls-5" x1="295.46" y1="342.06" x2="300.69" y2="345.72"/><path class="cls-5" d="M287,150.87s2.83,10.56,16.44,9.51"/><path class="cls-5" d="M288.91,164.28s4.81,6.49,15.46,6.12"/><path class="cls-5" d="M154.94,183.56s9.14,3.12,21.54.25"/><path class="cls-5" d="M151.12,190.49s6.82,4.88,18.94,2.82"/><path class="cls-5" d="M145.41,201.09s7.63,5.84,20.3,1"/><path class="cls-5" d="M140.37,213.24A22.47,22.47,0,0,0,161.24,212"/><path class="cls-5" d="M136.69,222.68s6.15,6.49,19.95,1.9"/><path class="cls-6" d="M86.18,105.93a68.2,68.2,0,0,0-16.28,3.58,45.44,45.44,0,0,0-7.42,3.41,32.61,32.61,0,0,0-6.42,4.74,26.21,26.21,0,0,0-4.8,6.13A27.61,27.61,0,0,0,48.48,131a35.44,35.44,0,0,0-.84,7.86,31.41,31.41,0,0,0,.85,7.8,26.44,26.44,0,0,0,7.89,13.15,32.42,32.42,0,0,0,6.46,4.62,41.81,41.81,0,0,0,7.39,3.27,54.8,54.8,0,0,0,7.94,2,56.27,56.27,0,0,0,8.21.71,42,42,0,0,0,16.27-2.85h0a.46.46,0,0,1,.6.25.46.46,0,0,1-.19.57,38.7,38.7,0,0,1-16.58,4.8,51,51,0,0,1-17.4-1.67,40.14,40.14,0,0,1-15.79-8.21,30.72,30.72,0,0,1-6-6.92,30.09,30.09,0,0,1-3.62-8.47,34.39,34.39,0,0,1-1.05-9,37.72,37.72,0,0,1,1.08-9,29.76,29.76,0,0,1,9.46-15.41,36,36,0,0,1,7.53-4.89,46.37,46.37,0,0,1,8.28-3A53.77,53.77,0,0,1,86.2,105a.45.45,0,0,1,.42.49.47.47,0,0,1-.41.42Z"/><path class="cls-6" d="M62.36,108.45a232.26,232.26,0,0,1,3-34.58,155.38,155.38,0,0,1,3.76-17c.79-2.8,1.69-5.58,2.73-8.32a73.87,73.87,0,0,1,3.53-8.07,42.63,42.63,0,0,1,11-14,39.63,39.63,0,0,1,16-7.76,57.88,57.88,0,0,1,17.58-1.24,84,84,0,0,1,8.68,1.07c1.44.26,2.85.53,4.3.85s2.84.71,4.23,1.11c11.1,3.2,21.78,7.35,32.91,9.33,5.52,1,11.2,1.4,16.54.25s10.22-4.09,14.92-7.25,9.33-6.66,14.55-9.38a34.87,34.87,0,0,1,8.32-3.13,23.86,23.86,0,0,1,9-.27,28.28,28.28,0,0,1,8.61,2.83,20.18,20.18,0,0,1,7,6,28.71,28.71,0,0,1,4.16,8.2,31.68,31.68,0,0,1,1.6,9.07,2.25,2.25,0,1,1-4.49.11v-.11a25.36,25.36,0,0,0-.36-3.89,32.76,32.76,0,0,0-.86-3.93,26.08,26.08,0,0,0-3.21-7.25,21.64,21.64,0,0,0-5.35-5.74,17.67,17.67,0,0,0-3.52-1.93,18.35,18.35,0,0,0-3.93-1,21.4,21.4,0,0,0-8.09.29,31.5,31.5,0,0,0-7.69,3c-4.94,2.6-9.47,6.09-14.25,9.32s-9.88,6.37-15.79,7.74-11.88.83-17.61-.13c-11.5-2-22.33-6.11-33.24-9.18a72.93,72.93,0,0,0-8.24-1.8c-2.78-.44-5.57-.79-8.37-.95A54.64,54.64,0,0,0,103.29,22a36.12,36.12,0,0,0-14.57,7.23,39,39,0,0,0-10,12.91,69.1,69.1,0,0,0-3.27,7.71c-1,2.63-1.78,5.32-2.5,8a149.89,149.89,0,0,0-3.38,16.61,227.66,227.66,0,0,0-2.43,33.87v.07a2.42,2.42,0,0,1-4.83,0Z"/><path class="cls-6" d="M198.07,36.07a124.19,124.19,0,0,1,16.23-2.55A138.83,138.83,0,0,1,230.75,33a110.77,110.77,0,0,1,16.43,1.67l4.08.8c1.35.31,2.68.69,4,1l2,.53,2,.66,4,1.33a1.79,1.79,0,0,1-1.15,3.39l-.05,0-.13,0-3.74-1.43-1.87-.71-1.92-.58c-1.28-.38-2.55-.79-3.84-1.15l-3.92-.92a106.8,106.8,0,0,0-16-2.26,132.83,132.83,0,0,0-16.21-.13A122.57,122.57,0,0,0,198.3,37h0a.5.5,0,0,1-.21-1Z"/><path class="cls-6" d="M253.27,46.9a137.51,137.51,0,0,1,18.8-12.67,172.61,172.61,0,0,1,20.43-9.92c3.5-1.45,7.07-2.75,10.67-3.95s7.27-2.25,11-3.17a115.31,115.31,0,0,1,22.56-3.36l-1.17.65h0c1.13-1.38,2.24-2.64,3.45-3.88a42.42,42.42,0,0,1,3.79-3.54,22.7,22.7,0,0,1,4.46-2.95,10.66,10.66,0,0,1,2.69-.91,6.84,6.84,0,0,1,3.08.07,5.64,5.64,0,0,1,1.55.65,4,4,0,0,1,1.33,1.4,5.29,5.29,0,0,1,.47,3.39,13.44,13.44,0,0,1-2.08,5.14,37.45,37.45,0,0,1-6.71,7.84A1.13,1.13,0,0,1,346,21.6a1.12,1.12,0,0,1-.07-1.4l0,0c1.91-2.65,3.88-5.32,5.48-8a21.78,21.78,0,0,0,1.93-4,2.49,2.49,0,0,0,.09-1.5c-.1-.31-.48-.59-1.09-.75a5.86,5.86,0,0,0-3.94.69,18.08,18.08,0,0,0-3.84,2.63,39.71,39.71,0,0,0-6.43,7.21h0a1.39,1.39,0,0,1-1,.63l-.17,0a150.71,150.71,0,0,0-21.77,4.19c-3.58.93-7.12,2-10.64,3.19s-7,2.45-10.46,3.8c-6.92,2.69-13.68,5.81-20.39,9.06S260.37,44,253.85,47.71h0a.5.5,0,0,1-.57-.82Z"/><path class="cls-6" d="M144.45,66.18a49.19,49.19,0,0,1,6.15-7.41,59.16,59.16,0,0,1,7.29-6.3c1.27-1,2.64-1.83,4-2.72s2.75-1.68,4.21-2.35c.73-.35,1.44-.73,2.17-1.06l2.22-.94c.74-.32,1.5-.57,2.26-.82s1.53-.51,2.29-.74a.5.5,0,0,1,.37.92l0,0c-1.41.71-2.89,1.24-4.26,2l-2.1,1c-.7.36-1.37.78-2.05,1.16a74.93,74.93,0,0,0-7.85,5.12,85.84,85.84,0,0,0-7.26,5.94,83.18,83.18,0,0,0-6.57,6.71l0,0a.5.5,0,0,1-.79-.61Z"/><path class="cls-1" d="M292.81,38.56s.75-16.13,9.5-26.25,15.63-13,18.63-8.88-4.5,21.63-7.13,24.75"/><path class="cls-6" d="M292.31,38.53a52.92,52.92,0,0,1,1.11-9.8,46.66,46.66,0,0,1,3-9.49,33.86,33.86,0,0,1,5.36-8.55,51.08,51.08,0,0,1,7.16-7A23,23,0,0,1,313.4.94a11.43,11.43,0,0,1,2.71-.83,6.44,6.44,0,0,1,1.54-.1,6.19,6.19,0,0,1,1.61.28A5.72,5.72,0,0,1,322,2.18l.26.31.25.41a4.61,4.61,0,0,1,.37.83,7,7,0,0,1,.31,1.54,17.15,17.15,0,0,1-.53,5.3,39.92,39.92,0,0,1-1.44,4.81q-.84,2.34-1.89,4.59t-2.25,4.4a22.9,22.9,0,0,1-2.85,4.13.5.5,0,0,1-.71,0,.5.5,0,0,1-.09-.63l0,0a29.47,29.47,0,0,0,2-4.27c.61-1.48,1.16-3,1.69-4.49A68.06,68.06,0,0,0,319.7,10,16.63,16.63,0,0,0,320,5.6a4.23,4.23,0,0,0-.18-.84,1.87,1.87,0,0,0-.13-.28l-.06-.11-.14-.15a2.55,2.55,0,0,0-1.22-.84,5.67,5.67,0,0,0-3.6.52,20.43,20.43,0,0,0-3.83,2.31A54,54,0,0,0,304,12.65a33,33,0,0,0-5.26,7.68,58.1,58.1,0,0,0-5.42,18.25v0a.5.5,0,0,1-1-.07Z"/><path class="cls-6" d="M303.27,33.7c1.94-3.63,4.11-7.09,5.77-10.74a38.59,38.59,0,0,0,3.31-11.48c.09-.68.07-.52,0-.67s-.33-.2-.7-.05a4.15,4.15,0,0,0-1.91,1.89,22.3,22.3,0,0,0-1.26,2.74c-.41,1-.86,1.89-1.29,2.81a23.44,23.44,0,0,0-2.12,5.54,3,3,0,0,0,.32,2.34,3.4,3.4,0,0,0,2.16,1h0a.84.84,0,0,1,.69,1,.85.85,0,0,1-1,.69h0A4.88,4.88,0,0,1,304.12,27a3.62,3.62,0,0,1-.65-1.82,5.92,5.92,0,0,1,.11-1.75A24.72,24.72,0,0,1,306,17.58l1.41-2.71c.46-.89.9-1.86,1.45-2.78a7.78,7.78,0,0,1,2.27-2.52,2.7,2.7,0,0,1,1-.34,1.88,1.88,0,0,1,1.23.3,1.78,1.78,0,0,1,.75,1.13c0,.11,0,.23,0,.34v.27l0,.39A36.65,36.65,0,0,1,313,17.87a32.75,32.75,0,0,1-2.21,5.9,60.94,60.94,0,0,1-6.66,10.47.51.51,0,0,1-.71.09A.5.5,0,0,1,303.27,33.7Z"/><path class="cls-6" d="M320.35,66.86a60.41,60.41,0,0,0,9.8-3.22A66.11,66.11,0,0,0,339.24,59c1.39-1,2.82-1.87,4.11-3,.66-.53,1.36-1,2-1.57l1.85-1.69c.64-.54,1.16-1.2,1.74-1.79s1.17-1.18,1.67-1.85a40.45,40.45,0,0,0,2.93-4L354.83,43c.41-.72.84-1.46,1.23-2.2.79-1.48,1.48-3,2.14-4.48a31.15,31.15,0,0,0,1.53-4.51,12.78,12.78,0,0,0,.44-4.25,4.78,4.78,0,0,0-1.32-3.1,7.57,7.57,0,0,0-3.44-1.71,17.27,17.27,0,0,0-9.68.36l.14-.06a43.57,43.57,0,0,0-7.79,5.24A51.1,51.1,0,0,0,331.4,35,64.75,64.75,0,0,0,326,42.88c-1.73,2.74-3.4,5.52-5.38,8.21A28.27,28.27,0,0,1,313.28,58c-2.77,1.88-5.76,3.3-8.44,4.93a54.51,54.51,0,0,0-14.33,12.28,47.09,47.09,0,0,0-5.16,7.88l-1,2.12c-.34.71-.62,1.45-.94,2.17-.63,1.48-1.27,3.08-2.06,4.55a41.71,41.71,0,0,1-13.05,15.16,34.69,34.69,0,0,1-9.1,4.57c-.82.23-1.64.48-2.47.69l-2.52.5-2.55.28-2.45.16a176,176,0,0,1-19.63.17A133.46,133.46,0,0,1,210,111c-6.4-1.34-12.63-2.83-19-3.66a79.67,79.67,0,0,0-18.95-.52,62.66,62.66,0,0,0-18.25,4.73A120.72,120.72,0,0,0,137,120.68c-5.46,3.41-10.75,7.14-16.22,10.69s-11.06,7-17.4,9.31A31.06,31.06,0,0,1,98.5,142a22.2,22.2,0,0,1-5.2.41,11.56,11.56,0,0,1-5.25-1.68,14.42,14.42,0,0,1-2.16-1.67,10.51,10.51,0,0,1-1.8-2.18,1.5,1.5,0,1,1,2.56-1.56v0a9.64,9.64,0,0,0,3,2.87,8.59,8.59,0,0,0,3.91,1.29,18.48,18.48,0,0,0,4.46-.34,28.66,28.66,0,0,0,4.46-1.22c5.89-2.12,11.38-5.53,16.78-9s10.73-7.22,16.19-10.77a123.3,123.3,0,0,1,17.17-9.59,66.1,66.1,0,0,1,19.17-5.21,80.53,80.53,0,0,1,19.81.3c6.54.83,12.94,2.34,19.22,3.64a132.13,132.13,0,0,0,19,2.55,169,169,0,0,0,19.23,0l2.4-.14,2.28-.24,2.25-.42,2.21-.6a31.63,31.63,0,0,0,8.27-4,38.57,38.57,0,0,0,12.22-13.85c.77-1.38,1.35-2.79,2-4.27.34-.77.66-1.54,1-2.29s.74-1.49,1.13-2.23a49.81,49.81,0,0,1,5.56-8.29,57.2,57.2,0,0,1,15.18-12.73c2.87-1.7,5.78-3,8.39-4.77a24.92,24.92,0,0,0,6.71-6.36c1.88-2.53,3.55-5.3,5.28-8a66.82,66.82,0,0,1,5.62-8.11,54.14,54.14,0,0,1,7-7,45.93,45.93,0,0,1,8.32-5.57l.1,0h0c1.72-.56,3.45-1.11,5.26-1.57A19.24,19.24,0,0,1,356,18.5a10.17,10.17,0,0,1,6.12,2.28,9.85,9.85,0,0,1,3.3,6.08c.59,4.42-.66,8.2-2.07,11.65a49.94,49.94,0,0,1-2.52,5c-.46.79-.93,1.56-1.42,2.34l-1.62,2.28a47.43,47.43,0,0,1-16.7,14.11,56.52,56.52,0,0,1-20.57,6.06.7.7,0,0,1-.76-.63.71.71,0,0,1,.54-.75Z"/><path class="cls-6" d="M90.94,141.24s-8.5-2.06-12.38-9.5,7.06-7.37,6.81-2.37,4.11,10.44,5.57,10.76Z"/><path class="cls-6" d="M355.31,21.1a33.47,33.47,0,0,1-.17,7.38,40.75,40.75,0,0,1-1.51,7.05A39.08,39.08,0,0,1,351,42.17a43.32,43.32,0,0,1-3.72,6,.5.5,0,0,1-.84-.54v0a42.56,42.56,0,0,0,3.08-6.15,38.42,38.42,0,0,0,2-6.53,37.17,37.17,0,0,0,.82-6.72c0-1.12,0-2.24,0-3.35a25.9,25.9,0,0,0-.37-3.22l0-.07a1.74,1.74,0,1,1,3.41-.68Z"/><path class="cls-6" d="M335.23,51.14a25.05,25.05,0,0,0,2.9-5A31.76,31.76,0,0,0,340,40.71a32.13,32.13,0,0,0,.89-5.68,37.79,37.79,0,0,0-.06-5.73v-.05a1.18,1.18,0,1,1,2.35-.17v.07a38.58,38.58,0,0,1-.28,6.08,35.31,35.31,0,0,1-1.28,5.94,33.19,33.19,0,0,1-2.3,5.59,26.13,26.13,0,0,1-3.35,5,.49.49,0,0,1-.7.05.5.5,0,0,1-.08-.68Z"/><path class="cls-7" d="M286,79.06s-.37-16.12.66-19.75c.75-2.67,8.5,9.07,8.5,9.07"/><path class="cls-6" d="M182.34,104a4.28,4.28,0,0,1,.35.38c.09.11.15.2.22.3a6.42,6.42,0,0,1,.39.57c.23.37.44.74.64,1.11.39.75.71,1.49,1,2.23a45.08,45.08,0,0,1,1.58,4.48c.45,1.48.83,3,1.19,4.48a11.57,11.57,0,0,0,.68,1.94,2.68,2.68,0,0,0,.39.63c.14.14,0,0,0,.08a1.06,1.06,0,0,0,.37-.2,5.57,5.57,0,0,0,.67-.64,18,18,0,0,0,1.34-1.68c.87-1.21,1.71-2.49,2.55-3.76,1.71-2.54,3.42-5.12,5.3-7.58a1,1,0,0,1,1.4-.18,1,1,0,0,1,.2,1.38c-1.79,2.44-3.44,5-5,7.58-.81,1.3-1.6,2.61-2.47,3.91a21,21,0,0,1-1.45,2,8,8,0,0,1-1,1,3.21,3.21,0,0,1-1.68.77,2.37,2.37,0,0,1-1.2-.2,2.68,2.68,0,0,1-.85-.6,5,5,0,0,1-.88-1.25,15,15,0,0,1-.93-2.36c-.45-1.51-.9-2.89-1.42-4.3a41.09,41.09,0,0,0-1.73-4.07,18.62,18.62,0,0,0-1.05-1.86c-.19-.29-.38-.57-.58-.82l-.29-.36-.14-.14s-.11-.11-.05,0a1.82,1.82,0,0,1,2.43-2.72Z"/><path class="cls-6" d="M188.8,186.48c4-.88,8-1.89,11.94-3s7.84-2.34,11.69-3.71a143.22,143.22,0,0,0,22.31-9.83l2.66-1.48,2.57-1.62,2.58-1.6c.85-.54,1.65-1.16,2.48-1.74,1.64-1.18,3.33-2.3,4.85-3.63l2.33-1.92,1.17-1,1.13-1a190,190,0,0,0,17.15-17.48c5.38-6.18,10.42-12.66,15.32-19.27s9.58-13.39,14.45-20.11c2.44-3.36,4.92-6.71,7.72-9.91s5.61-6.1,8.41-9.16l16.92-18.13a1.53,1.53,0,0,1,2.26,2.07h0L320.18,82.38c-2.75,3.07-5.61,6.12-8.26,9.19s-5,6.37-7.4,9.72c-4.75,6.71-9.38,13.58-14.26,20.3s-9.94,13.31-15.36,19.65a192.14,192.14,0,0,1-17.42,18,104.46,104.46,0,0,1-20.7,14.42,125.72,125.72,0,0,1-23.24,9.52c-2,.63-4,1.08-6.06,1.63s-4.07.92-6.14,1.26a83.54,83.54,0,0,1-12.44,1.4.5.5,0,0,1-.51-.49.5.5,0,0,1,.39-.5Z"/><path class="cls-6" d="M74.87,169.29c5.71,3.27,11.56,6.41,17.45,9.41,2.94,1.47,6,3,8.91,4.22a82.16,82.16,0,0,0,9.25,3.21c3.16.92,6.37,1.65,9.61,2.28s6.5,1.19,9.78,1.63c6.56.88,13.18,1.44,19.83,1.77a.49.49,0,0,1,.47.52.51.51,0,0,1-.49.48,197.34,197.34,0,0,1-20-.69,125.88,125.88,0,0,1-19.9-3.18,82.69,82.69,0,0,1-9.73-3L97.64,185l-2.3-1q-2.3-1.05-4.56-2.13-4.55-2.18-9-4.6c-3-1.6-5.84-3.27-8.71-5.06a1.68,1.68,0,0,1,1.73-2.89Z"/><path class="cls-6" d="M63.67,169.66l32.52,14.65,1.46-3s-9.05-4.15-12.53-9.48Z"/><path class="cls-6" d="M208.31,184.56s6.56-1.57,13.19,9.25,7.37,12.31,5.81,15.93c0,0,6.25-2.5,6.75-11.56l-4.94.5s-8-17.44,1.13-21.87C230.25,176.81,223.31,175.43,208.31,184.56Z"/><path class="cls-6" d="M231.34,10.8a28.18,28.18,0,0,1,1.13-5.22c.26-.85.53-1.69.85-2.51A6,6,0,0,1,234.91.83h0a1,1,0,0,1,1.71.62,5.94,5.94,0,0,1-.22,2.74c-.28.84-.61,1.65-.95,2.47A28.24,28.24,0,0,1,233,11.4a.89.89,0,0,1-1.63-.59Z"/><path class="cls-6" d="M235.4,11.34q1.38-2.41,2.88-4.74a26.82,26.82,0,0,1,3.23-4.46A1.56,1.56,0,0,1,244,4a27.38,27.38,0,0,1-3.41,4.34c-1.22,1.38-2.46,2.74-3.76,4.06a.88.88,0,0,1-1.4-1.05Z"/><path class="cls-6" d="M108.1,100.06a27.28,27.28,0,0,1-11-3.84,37.07,37.07,0,0,1-8.94-7.68,42.43,42.43,0,0,1-6.29-10,43.66,43.66,0,0,1-3.42-11.42,39.76,39.76,0,0,1-.08-12,35.78,35.78,0,0,1,3.7-11.59,30.24,30.24,0,0,1,7.82-9.6,24.46,24.46,0,0,1,24-3.91,31.22,31.22,0,0,1,10.49,6.48A44.21,44.21,0,0,1,136.52,56.9a43.08,43.08,0,0,1,.1,23.51,32,32,0,0,1-5.34,10.53,23.79,23.79,0,0,1-9.19,7.17.51.51,0,0,1-.68-.27.53.53,0,0,1,.22-.65,23.38,23.38,0,0,0,7.81-7.57,29.63,29.63,0,0,0,4.08-10,40.2,40.2,0,0,0-1.39-21.36,44.38,44.38,0,0,0-4.55-9.74,36.35,36.35,0,0,0-6.75-8.13A26.93,26.93,0,0,0,112.09,35a19.56,19.56,0,0,0-9.83-1,20,20,0,0,0-9.05,4,25,25,0,0,0-6.47,7.88,33.79,33.79,0,0,0-3.33,9.91,38.91,38.91,0,0,0-.29,10.62,43.13,43.13,0,0,0,7.73,20,35,35,0,0,0,7.58,7.79A28.09,28.09,0,0,0,108.28,99a.52.52,0,0,1-.18,1Z"/><path class="cls-6" d="M102.39,29.59A24.27,24.27,0,0,1,121.11,32a31.65,31.65,0,0,1,7.45,5.79,39.07,39.07,0,0,1,5.66,7.42c.85,1.31,1.48,2.73,2.2,4.11.33.69.6,1.42.91,2.13s.61,1.42.83,2.16c.49,1.47,1,2.93,1.36,4.43s.67,3,.9,4.55A40.64,40.64,0,0,1,139,80.89a.5.5,0,0,1-.63.32.51.51,0,0,1-.33-.62,39.18,39.18,0,0,0,.81-17.72c-.26-1.47-.6-2.92-1-4.35s-.93-2.83-1.44-4.23c-.24-.7-.57-1.37-.87-2s-.59-1.36-.94-2a40.7,40.7,0,0,0-2.22-3.84,36.68,36.68,0,0,0-5.55-6.84,29.35,29.35,0,0,0-7-5.11,21.21,21.21,0,0,0-16.45-1.69h0a1.65,1.65,0,1,1-1-3.15Z"/><path class="cls-1" d="M91.72,39.4S87,30,79.77,25.31s-5.58-12-2.08-11.75,9,5.36,18.12,22.7"/><path class="cls-6" d="M91.07,39.14A45.26,45.26,0,0,0,81.13,27.6c-1-.8-2-1.35-3.2-2.24a10,10,0,0,1-2.77-3.22A9.34,9.34,0,0,1,74,18a7.33,7.33,0,0,1,.2-2.18,6.33,6.33,0,0,1,.9-2.21,3,3,0,0,1,2.47-1.31,6.31,6.31,0,0,1,2.37.57,12.62,12.62,0,0,1,3.51,2.49,37.47,37.47,0,0,1,5.08,6.25A106.88,106.88,0,0,1,96.1,35.44.61.61,0,0,1,95,36c-1.33-2.24-2.64-4.49-4-6.68S88.22,25,86.71,22.88a39.26,39.26,0,0,0-4.9-5.77,10.45,10.45,0,0,0-2.87-2,4.06,4.06,0,0,0-1.41-.34,1.9,1.9,0,0,0-1,.2,2,2,0,0,0-.92,1.2,4.6,4.6,0,0,0-.12,1.7,6.88,6.88,0,0,0,1.36,3.19,14.84,14.84,0,0,0,2.49,2.52c.88.72,2.13,1.46,3.14,2.35a30.85,30.85,0,0,1,2.94,2.77,39.91,39.91,0,0,1,6.57,10,.5.5,0,0,1-.87.48Z"/><path class="cls-1" d="M101.05,34.48s-2-10.34-7.81-16.75S91,4.68,94.33,5.85s7.54,8.8,11.73,27.92"/><path class="cls-6" d="M100.46,33.87a42.07,42.07,0,0,0-6.64-14c-.37-.52-.82-1-1.23-1.47a16.73,16.73,0,0,1-1.32-1.65,10.25,10.25,0,0,1-1.66-3.93,9.08,9.08,0,0,1,.16-4.33,7.48,7.48,0,0,1,1-2,4.14,4.14,0,0,1,1.9-1.73,2.86,2.86,0,0,1,1.48-.19A3.68,3.68,0,0,1,95.42,5a7.49,7.49,0,0,1,1.87,1.46,17.17,17.17,0,0,1,2.46,3.49,45.71,45.71,0,0,1,3.16,7.51c.84,2.56,1.53,5.14,2.17,7.73s1.14,5.21,1.58,7.84a.62.62,0,0,1-.5.71.63.63,0,0,1-.7-.45c-.7-2.55-1.37-5.1-2.14-7.63s-1.54-5-2.47-7.48a48.91,48.91,0,0,0-3.16-7.06,14.67,14.67,0,0,0-2.16-2.95,4.79,4.79,0,0,0-1.26-1A2.66,2.66,0,0,0,93.72,7,1.73,1.73,0,0,0,92,7.42a3.36,3.36,0,0,0-.82,1.48,6.47,6.47,0,0,0,.1,3.54,11.77,11.77,0,0,0,1.62,3.25A15.66,15.66,0,0,0,94,17.17c.43.54.9,1,1.28,1.62a31.77,31.77,0,0,1,3.91,7.13,39.37,39.37,0,0,1,2.27,7.75.5.5,0,0,1-1,.23Z"/><path class="cls-6" d="M102.56,45.5a36.81,36.81,0,0,1,2,4.48c.56,1.51,1,3,1.48,4.53s.81,3,1.16,4.53l.51,2.21c.15.73.32,1.45.46,1.94l-.13-.36c.77,1.79,1.52,3.6,2.21,5.43s1.33,3.69,1.91,5.57,1.11,3.78,1.56,5.71a49.77,49.77,0,0,1,1,5.94.53.53,0,0,1-.47.58.57.57,0,0,1-.45-.18,51.48,51.48,0,0,1-3.64-4.81c-1.11-1.65-2.14-3.33-3.12-5s-1.9-3.44-2.77-5.19-1.69-3.53-2.49-5.31l0-.07c0-.09-.07-.2-.1-.29a24.07,24.07,0,0,1-.57-2.67c-.12-.83-.23-1.62-.31-2.42-.16-1.61-.24-3.2-.25-4.8s0-3.2.19-4.81a32.21,32.21,0,0,1,.81-4.86.53.53,0,0,1,.65-.39A.55.55,0,0,1,102.56,45.5Z"/><path class="cls-6" d="M242.62,35.85A29.61,29.61,0,0,0,241,31.09a31.61,31.61,0,0,0-2.44-4.51,25.62,25.62,0,0,0-3.21-4,21.8,21.8,0,0,0-4-3.18l0,0a.5.5,0,0,1-.15-.69.51.51,0,0,1,.66-.17,22.8,22.8,0,0,1,4.5,3,26.88,26.88,0,0,1,3.72,4,34.46,34.46,0,0,1,3,4.59,32.56,32.56,0,0,1,2.19,5.07,1.28,1.28,0,0,1-.82,1.63,1.31,1.31,0,0,1-1.64-.83s0-.06,0-.09Z"/><path class="cls-6" d="M230.76,24.8A39,39,0,0,1,234,29.24a32.51,32.51,0,0,1,2.58,4.93.89.89,0,0,1-1.65.69.14.14,0,0,1,0-.06h0a30.39,30.39,0,0,0-2.1-4.84A36.8,36.8,0,0,0,230,25.44v0a.5.5,0,0,1,.1-.7A.51.51,0,0,1,230.76,24.8Z"/><path class="cls-6" d="M131.69,34.73c1.75,1.27,3.4,2.63,5,4.06s3.17,2.92,4.67,4.5A45.74,45.74,0,0,1,149.15,54a1.93,1.93,0,1,1-3.45,1.75,1.42,1.42,0,0,1-.08-.18l0,0A38,38,0,0,0,143,50a56.24,56.24,0,0,0-3.46-5.18c-1.27-1.66-2.61-3.28-4-4.84s-2.9-3.08-4.45-4.5h0a.51.51,0,0,1,0-.71A.51.51,0,0,1,131.69,34.73Z"/><path class="cls-6" d="M145.36,34.9A18.84,18.84,0,0,1,150,38.65a14.55,14.55,0,0,1,3.22,5.08.28.28,0,0,1-.18.36.3.3,0,0,1-.31-.07h0c-.66-.74-1.26-1.48-1.9-2.2l-1.91-2.17c-1.28-1.43-2.62-2.83-3.92-4.3h0a.28.28,0,0,1,0-.4A.29.29,0,0,1,145.36,34.9Z"/><path class="cls-6" d="M80.28,78.91a43.76,43.76,0,0,0,2.64,5.58,39.53,39.53,0,0,0,3.35,5.12,38.39,38.39,0,0,0,4.09,4.56,57.67,57.67,0,0,0,4.75,4h0a.36.36,0,0,1,.06.5.35.35,0,0,1-.43.1,25.84,25.84,0,0,1-5.49-3.36,27.58,27.58,0,0,1-7.94-10.14A20.14,20.14,0,0,1,79.59,79a.36.36,0,0,1,.32-.39.35.35,0,0,1,.36.23Z"/><path class="cls-6" d="M109.21,53.29a8,8,0,0,1,0-7.77A5.38,5.38,0,0,1,112.79,43,5.53,5.53,0,0,1,117,44a8.61,8.61,0,0,1,3.25,7.3A7.66,7.66,0,0,1,119,55.21a5.08,5.08,0,0,1-3.42,2.2.51.51,0,0,1-.56-.44.5.5,0,0,1,.35-.53h0a4,4,0,0,0,2.34-2,6.59,6.59,0,0,0,.71-3.12,7.12,7.12,0,0,0-2.64-5.57,3.56,3.56,0,0,0-2.67-.72,3.52,3.52,0,0,0-2.32,1.54,7.49,7.49,0,0,0-.7,6.36h0a.51.51,0,0,1-.33.63A.5.5,0,0,1,109.21,53.29Z"/><path class="cls-6" d="M93.33,56.16a4.18,4.18,0,0,1,2.81,1.41,4.42,4.42,0,0,1,1.08,3.09,4.57,4.57,0,0,1-1.38,3.08,4.63,4.63,0,0,1-3.14,1.31,4.71,4.71,0,0,1-3.2-1.19,4.52,4.52,0,0,1-1.49-3A4.39,4.39,0,0,1,89,57.71a4.23,4.23,0,0,1,2.75-1.52.38.38,0,0,1,.16.74,3.41,3.41,0,0,0-2.28,3.73,3.05,3.05,0,0,0,6-.12A3.41,3.41,0,0,0,93.2,56.9a.38.38,0,0,1,.13-.74Z"/><path class="cls-6" d="M304.66,61.43A14.36,14.36,0,0,0,305.87,63c.45.49.93,1,1.42,1.44a29.45,29.45,0,0,0,3.21,2.55.5.5,0,0,1,.14.69.51.51,0,0,1-.64.17,29.43,29.43,0,0,1-3.69-2.2c-.58-.42-1.16-.86-1.72-1.33A15.71,15.71,0,0,1,303,62.71a1.06,1.06,0,0,1,1.59-1.41l.09.11Z"/><path class="cls-6" d="M280.91,90.25l4.14,5.21a.51.51,0,0,1-.08.71.51.51,0,0,1-.65,0l-4.94-4.46a1.05,1.05,0,1,1,1.41-1.56Z"/><path class="cls-6" d="M269.35,104.34a28.1,28.1,0,0,1-1.73-2.56c-.52-.87-1-1.75-1.47-2.65a40.35,40.35,0,0,1-2.31-5.57.5.5,0,0,1,.94-.35,39.08,39.08,0,0,0,2.69,5.18c.51.82,1.06,1.62,1.63,2.4a25.23,25.23,0,0,0,1.78,2.21l0,0a1,1,0,1,1-1.49,1.38Z"/><path class="cls-6" d="M258.42,110.12c.34,1.37.75,2.78,1.19,4.15s.93,2.73,1.47,4.07a.5.5,0,0,1-.28.65.51.51,0,0,1-.63-.22c-.71-1.29-1.37-2.61-2-4s-1.2-2.68-1.74-4.09a1,1,0,0,1,1.93-.74s0,.08,0,.11Z"/><path class="cls-6" d="M244.12,111.81c0-1.87.1-3.7.25-5.53s.37-3.67.7-5.48a.5.5,0,0,1,1,.14c-.18,1.79-.25,3.59-.26,5.4s.06,3.61.19,5.38v0a.93.93,0,0,1-1.86.14A.17.17,0,0,1,244.12,111.81Z"/><path class="cls-6" d="M227.72,111.41a78,78,0,0,0,.64,8.92h0a.5.5,0,0,1-1,.19,76.49,76.49,0,0,1-1.62-9,1,1,0,0,1,1.94-.26.34.34,0,0,1,0,.1Z"/><path class="cls-6" d="M215.13,110.2c.07-1.52.2-3,.41-4.5.1-.75.23-1.5.4-2.24a10,10,0,0,1,.73-2.23.5.5,0,0,1,.92.39v0a9.25,9.25,0,0,0-.44,2c-.09.71-.15,1.43-.17,2.16-.06,1.44-.05,2.92,0,4.35v0a.94.94,0,0,1-.89,1,.93.93,0,0,1-1-.89A.14.14,0,0,1,215.13,110.2Z"/><path class="cls-6" d="M164.8,106.7a16.88,16.88,0,0,1-1.23-2.75c-.33-.92-.6-1.84-.84-2.77a34.06,34.06,0,0,1-.87-5.64.5.5,0,0,1,1-.13,34.89,34.89,0,0,0,1.49,5.27c.33.84.69,1.67,1.09,2.47a15.82,15.82,0,0,0,1.33,2.2l0,0a1.19,1.19,0,1,1-1.9,1.44Z"/><path class="cls-6" d="M157.13,108.76c.05.82.14,1.68.24,2.52s.23,1.68.38,2.52a22.27,22.27,0,0,0,1.38,4.85h0a.5.5,0,0,1-.88.47,23.36,23.36,0,0,1-2.27-4.86c-.3-.84-.56-1.68-.81-2.54s-.48-1.7-.68-2.6a1.34,1.34,0,0,1,2.61-.59.76.76,0,0,1,0,.21Z"/><path class="cls-6" d="M137.42,107.35a23.14,23.14,0,0,0,2,4.41,9.17,9.17,0,0,0,3,3.27h0a1.11,1.11,0,1,1-1.1,1.92l-.12-.08A10.94,10.94,0,0,1,138,112.5a23.93,23.93,0,0,1-1.55-4.91.5.5,0,0,1,1-.26Z"/><path class="cls-6" d="M132.6,122.28c.16,1.47.39,3,.66,4.42a35.22,35.22,0,0,0,1.06,4.34h0a.49.49,0,0,1-.32.63.5.5,0,0,1-.61-.26,38.43,38.43,0,0,1-1.66-4.32c-.46-1.47-.88-2.93-1.24-4.45a1.07,1.07,0,0,1,2.09-.5s0,.08,0,.13Z"/><path class="cls-6" d="M114.81,122.8a28.31,28.31,0,0,0,1.48,4.39,14.14,14.14,0,0,0,1,2,4.49,4.49,0,0,0,1.29,1.39,1.1,1.1,0,1,1-1.07,1.92l-.15-.1,0,0a6.28,6.28,0,0,1-1.68-2.25,15.09,15.09,0,0,1-.9-2.35,30.11,30.11,0,0,1-1-4.77.5.5,0,0,1,1-.18Z"/><path class="cls-6" d="M173.82,54.27a9.32,9.32,0,0,1,6-.4,4.83,4.83,0,0,1,2.58,2,5.54,5.54,0,0,1,.81,3.19A11.17,11.17,0,0,1,181,64.85a18.58,18.58,0,0,1-4.3,4.28,17.49,17.49,0,0,1-5.44,2.68,9.39,9.39,0,0,1-6.23-.12,5,5,0,0,1-2.45-2.25,5.51,5.51,0,0,1-.53-3.19,11,11,0,0,1,2.57-5.41.32.32,0,0,1,.52.38,10.78,10.78,0,0,0-1.86,5.13,4.45,4.45,0,0,0,.52,2.42,3.47,3.47,0,0,0,1.83,1.47,8.22,8.22,0,0,0,5.13-.14,16.32,16.32,0,0,0,4.86-2.48,17.29,17.29,0,0,0,3.91-3.82A10.12,10.12,0,0,0,181.63,59,3.65,3.65,0,0,0,179.38,55a8.89,8.89,0,0,0-5.37-.16h0a.34.34,0,0,1-.39-.25A.33.33,0,0,1,173.82,54.27Z"/><path class="cls-6" d="M201.64,61.89a15.29,15.29,0,0,1-4.16,4.21A15.47,15.47,0,0,1,192,68.54a8.06,8.06,0,0,1-6.17-.79,4.59,4.59,0,0,1-1.93-2.65,5.3,5.3,0,0,1,.19-3.09.25.25,0,0,1,.32-.15.27.27,0,0,1,.17.25,5.62,5.62,0,0,0,.41,2.62,3.21,3.21,0,0,0,.68,1,2.47,2.47,0,0,0,.45.4,2.14,2.14,0,0,0,.5.32,7.64,7.64,0,0,0,5,.39,18.36,18.36,0,0,0,5.1-2,23.8,23.8,0,0,0,4.54-3.32.25.25,0,0,1,.36,0A.24.24,0,0,1,201.64,61.89Z"/><path class="cls-6" d="M198.83,50.59a5,5,0,0,1,2.56,0A4.61,4.61,0,0,1,203.74,52a4.34,4.34,0,0,1,1,2.55,4.62,4.62,0,0,1-.55,2.53.26.26,0,0,1-.48-.12,5.91,5.91,0,0,0-1.23-3.9,4.88,4.88,0,0,0-1.59-1.16,16.3,16.3,0,0,0-2.12-.76h0a.25.25,0,0,1-.17-.32A.25.25,0,0,1,198.83,50.59Z"/><path class="cls-6" d="M197,41.1a6.62,6.62,0,0,1,4.21,1,3.86,3.86,0,0,1,1.39,1.9,4.44,4.44,0,0,1,.1,2.34,8.06,8.06,0,0,1-2.2,3.86A14.21,14.21,0,0,1,197,52.87a12.94,12.94,0,0,1-8.44,1.61,6.53,6.53,0,0,1-2.12-.84,4,4,0,0,1-1.56-1.74,4.64,4.64,0,0,1,.52-4.34.28.28,0,0,1,.38-.09.29.29,0,0,1,.11.36,4.08,4.08,0,0,0-.12,3.63,4,4,0,0,0,3,1.8,13.87,13.87,0,0,0,10.7-3.95,8.2,8.2,0,0,0,1.21-1.5,5.79,5.79,0,0,0,.78-1.7,3,3,0,0,0-.91-3.21A6.33,6.33,0,0,0,197,41.66h0a.28.28,0,0,1-.26-.3A.29.29,0,0,1,197,41.1Z"/><path class="cls-6" d="M233,51.31A6.3,6.3,0,0,1,237,52.69a4,4,0,0,1,1.24,2,4.49,4.49,0,0,1,0,2.33,7.68,7.68,0,0,1-2.31,3.67A12.43,12.43,0,0,1,232.37,63a11.63,11.63,0,0,1-8.26.64,6.14,6.14,0,0,1-2-1.11,4.29,4.29,0,0,1-1.29-1.93,4.66,4.66,0,0,1,.9-4.16.41.41,0,0,1,.56-.07.4.4,0,0,1,.12.49,3.8,3.8,0,0,0-.26,3.26,3.68,3.68,0,0,0,2.46,1.84,11,11,0,0,0,6.92-.78,11.93,11.93,0,0,0,3-1.88,6.65,6.65,0,0,0,2-2.72,2.84,2.84,0,0,0-.54-2.87,5.73,5.73,0,0,0-3.1-1.56h0a.4.4,0,0,1-.3-.48A.4.4,0,0,1,233,51.31Z"/><path class="cls-6" d="M238.6,59.19a4.79,4.79,0,0,1,2.94,1.15,3.55,3.55,0,0,1,1,3.2A5.79,5.79,0,0,1,241,66.43a8.69,8.69,0,0,1-2.62,1.8,8,8,0,0,1-6.27.28,3.9,3.9,0,0,1-2.28-2.43,3.8,3.8,0,0,1,.61-3.14.31.31,0,0,1,.43-.07.31.31,0,0,1,.1.36,3.16,3.16,0,0,0-.13,2.51,2.88,2.88,0,0,0,1.77,1.53,7.29,7.29,0,0,0,5.16-.41,6.09,6.09,0,0,0,3.54-3.58,2.47,2.47,0,0,0-.51-2.22,4.26,4.26,0,0,0-2.28-1.28h0a.31.31,0,0,1-.22-.37A.3.3,0,0,1,238.6,59.19Z"/><path class="cls-6" d="M226.63,195.46c4.33-.28,8.71-.66,13-1.18,2.17-.25,4.33-.55,6.47-.92a46.16,46.16,0,0,0,6.28-1.41h0a1,1,0,0,1,.69,1.88,51.12,51.12,0,0,1-6.43,2.07c-2.16.57-4.33,1.07-6.5,1.53-4.35.92-8.7,1.7-13.11,2.39a2.19,2.19,0,0,1-.67-4.33l.19,0Z"/><path class="cls-6" d="M244.86,243.09c.71-8.87,1.57-17.72,2.64-26.56.54-4.42,1.13-8.83,1.87-13.25.37-2.2.77-4.4,1.25-6.61a38.65,38.65,0,0,1,2-6.66h0a1.32,1.32,0,0,1,.61-.66l.06,0c.51-.25.85-.37,1.28-.54s.8-.28,1.2-.41c.81-.25,1.61-.46,2.42-.66,1.61-.38,3.22-.67,4.84-.89s3.24-.39,4.86-.52,3.25-.2,4.87-.24a1.83,1.83,0,1,1,.11,3.66h-.09c-1.56,0-3.13,0-4.69.06s-3.11.15-4.65.32-3.08.37-4.59.67c-.75.15-1.49.32-2.22.52-.36.1-.72.2-1.07.32s-.73.25-.93.34l.66-.68h0a36.45,36.45,0,0,0-2,6c-.55,2.12-1,4.27-1.47,6.43-.89,4.33-1.64,8.7-2.34,13.08-1.38,8.76-2.56,17.56-3.6,26.38a.5.5,0,0,1-1-.1Z"/><path class="cls-6" d="M259.21,243.9l12.42-43a2.09,2.09,0,1,1,4,1.16c0,.05,0,.1,0,.14l-15.44,42a.5.5,0,0,1-1-.31Z"/><path class="cls-6" d="M313.28,224.3a30.79,30.79,0,0,1-6.3,1,35.35,35.35,0,0,1-6.42-.15,28.2,28.2,0,0,1-6.29-1.54,18.12,18.12,0,0,1-5.5-3.43.51.51,0,0,1,0-.71.52.52,0,0,1,.61-.11h0a32.28,32.28,0,0,0,5.59,2.27,45.09,45.09,0,0,0,5.9,1.23c2,.25,4,.39,6.09.46s4.11,0,6.16-.05h0a.51.51,0,0,1,.16,1Z"/><path class="cls-6" d="M295.74,222.53c.17,1.29.32,2.58.37,3.88a33.63,33.63,0,0,1-.05,3.89,31.19,31.19,0,0,1-.5,3.85,22.46,22.46,0,0,1-1,3.77h0a.49.49,0,0,1-.63.3.39.39,0,0,1-.14-.08h0a84.88,84.88,0,0,1-7-6.14,52.08,52.08,0,0,1-6.14-7.08c-.47-.62-.86-1.33-1.3-2a23,23,0,0,1-1.09-2.16A15,15,0,0,1,277,216a14.12,14.12,0,0,1,.34-5,14,14,0,0,1,.83-2.38,11.17,11.17,0,0,1,1.33-2.27l-.07.1,5.57-8.37h0l0-.06a1.36,1.36,0,0,1,1.18-.58c3.12.15,6.21.35,9.32.62s6.19.6,9.27,1.2a.51.51,0,0,1,.4.59.5.5,0,0,1-.53.4h0a90.75,90.75,0,0,0-9.19-.18c-3.07.06-6.16.2-9.22.38l1.22-.64h0L281.5,208l0,0-.06.08a8.86,8.86,0,0,0-1.05,1.67,11.24,11.24,0,0,0-.78,1.94,12.14,12.14,0,0,0-.46,4.16,13,13,0,0,0,.95,4.16c.22.69.61,1.33.9,2s.71,1.3,1.14,1.92a50.79,50.79,0,0,0,5.65,7.09,80.43,80.43,0,0,0,6.6,6.33l-.77.22h0a21.38,21.38,0,0,0,.73-3.61,28.73,28.73,0,0,0,.24-3.7,32.81,32.81,0,0,0-.2-3.71c-.12-1.23-.34-2.44-.58-3.65v0a1,1,0,0,1,2-.39A.13.13,0,0,0,295.74,222.53Z"/><path class="cls-6" d="M287.08,212a47.2,47.2,0,0,1-1.64-6.42,33.15,33.15,0,0,1-.56-6.72,1.32,1.32,0,0,1,2.63.07c0,.05,0,.11,0,.16h0a31.09,31.09,0,0,0-.24,6.27,43.73,43.73,0,0,0,.79,6.35v0a.51.51,0,0,1-.39.59A.51.51,0,0,1,287.08,212Z"/><path class="cls-6" d="M277.77,211.15a37,37,0,0,1-3.4-6.58,32.27,32.27,0,0,1-2-7.15,25.59,25.59,0,0,1-.15-7.52,22.89,22.89,0,0,1,.92-3.69,17.17,17.17,0,0,1,1.48-3.53,9.34,9.34,0,0,1,2.62-3.18,4.64,4.64,0,0,1,1.08-.58,5.2,5.2,0,0,1,.61-.18l.56-.07a14.47,14.47,0,0,1,2,0,57.53,57.53,0,0,1,7.27.91,73.88,73.88,0,0,1,13.88,4,.5.5,0,0,1,.27.66.51.51,0,0,1-.6.29,107.35,107.35,0,0,0-13.9-2.83,53.68,53.68,0,0,0-7-.62,13.63,13.63,0,0,0-1.62.09l-.32.05c-.11,0-.16.06-.25.08a.9.9,0,0,0-.24.12,1.17,1.17,0,0,0-.25.16,7,7,0,0,0-1.83,2.34,14.62,14.62,0,0,0-1.25,3.08,19.68,19.68,0,0,0-.78,3.27A25.89,25.89,0,0,0,275,197a33.1,33.1,0,0,0,1.75,6.65,40.1,40.1,0,0,0,2.91,6.26l0,0a1.11,1.11,0,0,1-1.89,1.17Z"/><path class="cls-6" d="M279.7,190.16c-.44-1.66-.8-3.32-1.1-5a33.79,33.79,0,0,1-.55-5.19,1.08,1.08,0,0,1,2.16,0,.49.49,0,0,1,0,.12h0a32.27,32.27,0,0,0,0,4.92c.1,1.66.27,3.34.51,5h0a.5.5,0,0,1-1,.2Z"/><path class="cls-6" d="M276.08,181.27a17.13,17.13,0,0,1,.59-2.85,15.52,15.52,0,0,1,1.06-2.71,11.57,11.57,0,0,1,1.7-2.47,8.26,8.26,0,0,1,2.56-1.79h0l-.37.26a1.56,1.56,0,0,1,.65-.41c.16-.06.25-.07.38-.11a5.94,5.94,0,0,1,.67-.12q.62-.06,1.2-.06a21.55,21.55,0,0,1,2.29.11c1.5.14,3,.38,4.41.64,2.91.53,5.77,1.22,8.6,2s5.62,1.57,8.45,2.26l8.46,2.17-.2,0a9.6,9.6,0,0,1,2.19.56,12.2,12.2,0,0,1,1.93.92,14.25,14.25,0,0,1,3.25,2.68,19.18,19.18,0,0,1,3.89,7.2c1.53,5,2.77,10,4.18,15s2.9,9.88,4.62,14.7a65.09,65.09,0,0,0,6.5,13.74l0,0a1,1,0,1,1-1.66,1.1,66.19,66.19,0,0,1-6.89-14.13c-1.82-4.89-3.32-9.86-4.75-14.84s-2.71-10-4.22-14.88a16.76,16.76,0,0,0-3.42-6.33,12,12,0,0,0-2.71-2.22,10.63,10.63,0,0,0-1.56-.75,8.63,8.63,0,0,0-1.56-.41h-.06l-.14,0-8.48-2.15c-1.42-.37-2.84-.69-4.24-1.1s-2.81-.8-4.21-1.17c-2.79-.75-5.61-1.44-8.42-2-1.41-.29-2.82-.53-4.22-.72-.7-.09-1.39-.17-2.07-.19-.34,0-.66,0-1,0a4,4,0,0,0-.41.06l-.15,0h0l.05,0v0a.75.75,0,0,0,.14-.12l-.37.26h0a6.21,6.21,0,0,0-1.87,1.33,8.88,8.88,0,0,0-1.38,2,13.44,13.44,0,0,0-.92,2.36,15,15,0,0,0-.52,2.48v0a1,1,0,1,1-2-.23Z"/><path class="cls-6" d="M314.56,255.34A77.22,77.22,0,0,0,323,251a69.09,69.09,0,0,0,7.85-5.29,43.26,43.26,0,0,0,6.73-6.44,21.89,21.89,0,0,0,4.31-7.79v0a1.7,1.7,0,1,1,3.27.95l0,.05a25.33,25.33,0,0,1-5.22,8.82,46,46,0,0,1-7.41,6.64,71.94,71.94,0,0,1-8.31,5.23,82.4,82.4,0,0,1-8.86,4.18,1.07,1.07,0,0,1-.82-2Z"/><path class="cls-7" d="M291.33,355.81s15.19-37.67,4.36-132.5"/><path class="cls-7" d="M314,336.31s4.5-67.31-2.41-111.75"/><path class="cls-6" d="M394,326.29a46.46,46.46,0,0,0-1.87-10.13,96.47,96.47,0,0,0-3.37-9.78c-.69-1.58-1.33-3.18-2.08-4.74l-1.09-2.35L384.41,297c-.75-1.56-1.59-3-2.39-4.56a24.2,24.2,0,0,0-1.35-2.21L379.24,288q-5.69-8.76-11.19-17.62l-11-17.74-.05-.09c-1.94-3.62-4-7.21-6.26-10.67-1.12-1.72-2.28-3.42-3.52-5-.62-.8-1.27-1.57-1.94-2.28a10.8,10.8,0,0,0-2.08-1.79l-.05,0a1.32,1.32,0,0,1,1.38-2.24,12.91,12.91,0,0,1,2.66,2.24c.76.8,1.46,1.63,2.12,2.47,1.31,1.69,2.51,3.43,3.67,5.2,2.3,3.54,4.41,7.14,6.41,10.86l-.05-.09,11.21,17.67q5.61,8.83,11,17.77l1.36,2.24a24.17,24.17,0,0,1,1.29,2.29c.78,1.59,1.61,3.17,2.32,4.77,1.51,3.17,2.81,6.44,4,9.75a90.93,90.93,0,0,1,2.93,10.13,44.36,44.36,0,0,1,1.19,10.49.33.33,0,0,1-.35.33.35.35,0,0,1-.33-.32Z"/><path class="cls-6" d="M327.2,271.46a156.32,156.32,0,0,0,16.07-9.07,79.7,79.7,0,0,0,7.41-5.39,28.54,28.54,0,0,0,6.07-6.43v0a1.3,1.3,0,0,1,2.2,1.38l0,.06a30.78,30.78,0,0,1-6.92,6.68,79.56,79.56,0,0,1-7.85,5.14q-4,2.34-8.21,4.42c-2.77,1.38-5.58,2.7-8.43,3.92a.38.38,0,0,1-.32-.68Z"/><path class="cls-6" d="M316.16,272.78c2.91,9.07,5.26,18.28,8,27.35,1.36,4.53,2.8,9,4.56,13.41A61.4,61.4,0,0,0,335.22,326h0a.5.5,0,0,1-.81.58,60.29,60.29,0,0,1-6.93-12.55c-1.86-4.41-3.4-8.93-4.84-13.46s-2.73-9.11-4.07-13.66-2.68-9.09-4.11-13.61a.89.89,0,0,1,1.7-.54Z"/><path class="cls-6" d="M316,317.86c2.6,3.56,5.25,7.13,8,10.59s5.48,6.95,8.36,10.29,5.83,6.62,8.95,9.7a58.94,58.94,0,0,0,10,8.22,33.65,33.65,0,0,0,11.89,4.3,23.57,23.57,0,0,0,12.39-1.3,24.33,24.33,0,0,0,10-7.71,38.39,38.39,0,0,0,3.64-5.43,63.93,63.93,0,0,0,2.81-6,.32.32,0,0,1,.42-.18.31.31,0,0,1,.18.38A41.94,41.94,0,0,1,387,353a26.36,26.36,0,0,1-10.44,8.91,25.4,25.4,0,0,1-13.76,2,33.27,33.27,0,0,1-6.78-1.59,36.19,36.19,0,0,1-6.36-2.87,45,45,0,0,1-5.61-4.05c-1.75-1.46-3.44-3-5-4.58a133.4,133.4,0,0,1-9.05-10q-4.27-5.19-8.24-10.6c-2.59-3.65-5.16-7.29-7.54-11.1a1.11,1.11,0,0,1,1.84-1.25Z"/><path class="cls-6" d="M286.69,251.27q.42,13.74.55,27.47t0,27.49c-.09,9.17-.33,18.33-.79,27.5a266.66,266.66,0,0,1-2.5,27.52,1.67,1.67,0,0,1-3.29-.52v-.05a265,265,0,0,0,3-27.11c.65-9.11,1.08-18.25,1.37-27.39s.5-18.29.59-27.44.12-18.3,0-27.45a.5.5,0,0,1,.49-.51A.52.52,0,0,1,286.69,251.27Z"/><path class="cls-6" d="M298.66,296.3q-1.73-2.62-3.37-5.3L292,285.61c-1.05-1.81-2.13-3.6-3.16-5.43s-2.06-3.65-3.07-5.49a.74.74,0,0,1,1.27-.77c1.17,1.74,2.33,3.49,3.45,5.26s2.24,3.55,3.36,5.32l3.27,5.36c1.07,1.81,2.12,3.62,3.14,5.45a1,1,0,0,1-1.64,1Z"/><path class="cls-7" d="M158.73,220.81s9,6.93,36.71,4.12l10.12,23V223.81s25-6.88,27.38-25.75"/><path class="cls-6" d="M304.4,176.57l-2.08-22.5h0a.68.68,0,0,1,.07-.4l4.06-8.25,1.12.94-12.37,9.18a.74.74,0,0,1-.83.05l-8.67-5.13,1.12-.81,1.79,7.87v0a.73.73,0,0,1-.55.87.74.74,0,0,1-.21,0l-9.9-.75a.31.31,0,0,1-.29-.33.32.32,0,0,1,.31-.3l9.92-.12-.75.92-1.8-7.88a.76.76,0,0,1,1.12-.81l8.66,5.13-.83,0,12.38-9.19a.74.74,0,0,1,1.05.16.76.76,0,0,1,.07.78l-4.06,8.25.07-.41,2.46,22.46a.94.94,0,0,1-1.87.2Z"/><path class="cls-6" d="M279.6,162.31a44.69,44.69,0,0,1,4.64-.43c.78,0,1.57,0,2.38,0a6.9,6.9,0,0,1,1.28.2,2.13,2.13,0,0,1,.81.38,1.45,1.45,0,0,1,.33.38l.13.21.07.17a12,12,0,0,1,.63,2.41c.13.77.25,1.55.35,2.32.2,1.54.33,3.07.42,4.63a.86.86,0,0,1-1.72.11h0c-.11-1.51-.24-3-.39-4.54-.08-.75-.17-1.5-.29-2.24a11.07,11.07,0,0,0-.47-2l0-.1,0,0s0-.08,0-.06-.1-.06-.22-.1a6.22,6.22,0,0,0-1-.21c-.72-.09-1.47-.12-2.22-.14-1.51,0-3,0-4.55.07h0a.5.5,0,0,1-.52-.48A.51.51,0,0,1,279.6,162.31Z"/><path class="cls-6" d="M300.7,139.67,306,129.35a1.37,1.37,0,1,1,2.44,1.24,1.74,1.74,0,0,1-.11.18l-6.74,9.42a.5.5,0,0,1-.7.12A.51.51,0,0,1,300.7,139.67Z"/><path class="cls-6" d="M291,141.67l-2.75-8.49a1.28,1.28,0,0,1,2.43-.79,1.6,1.6,0,0,1,.05.21l1.24,8.84a.5.5,0,0,1-.42.57A.49.49,0,0,1,291,141.67Z"/><path class="cls-6" d="M281.14,153.2l-6.37-3a1.17,1.17,0,0,1-.57-1.56,1.18,1.18,0,0,1,1.57-.58,1,1,0,0,1,.19.12l5.69,4.11a.52.52,0,0,1,.11.71A.51.51,0,0,1,281.14,153.2Z"/><path class="cls-6" d="M252.83,250.13a12.12,12.12,0,0,1,8.91,2.72,11.14,11.14,0,0,1-.06,17.32,12.36,12.36,0,0,1-8.85,2.78.52.52,0,0,1-.48-.56.52.52,0,0,1,.48-.48,12.4,12.4,0,0,0,7.46-3.31,9.49,9.49,0,0,0-.06-14.05,12.79,12.79,0,0,0-7.4-3.38.52.52,0,0,1-.47-.57A.54.54,0,0,1,252.83,250.13Z"/><path class="cls-6" d="M250.58,272.76a11.84,11.84,0,0,1-6.53-2.71,11.07,11.07,0,0,1-3.78-6.18,10.65,10.65,0,0,1,1-7.19,11,11,0,0,1,5.16-4.87.52.52,0,0,1,.69.25.53.53,0,0,1-.17.65h0a11.8,11.8,0,0,0-4,4.78,9.68,9.68,0,0,0-.63,5.95,10.35,10.35,0,0,0,3,5.26,10.8,10.8,0,0,0,2.53,1.84,14.23,14.23,0,0,0,3,1.2h0a.52.52,0,0,1,.36.65A.53.53,0,0,1,250.58,272.76Z"/><path class="cls-6" d="M254.11,250.09s3.59.15,4.94-2.33a5.76,5.76,0,0,0,1.86,4.5Z"/><path class="cls-6" d="M117,244.81c-.94-3.2-2-6.4-3.06-9.56s-2.23-6.31-3.47-9.41-2.53-6.18-4-9.16a51.14,51.14,0,0,0-5-8.44h0v0a1.37,1.37,0,0,1,.33-1.91,1.33,1.33,0,0,1,.42-.19c3.89-1.11,7.78-2.06,11.73-2.91a113,113,0,0,1,12-1.94H126a1.51,1.51,0,0,1,1.43.69,29.22,29.22,0,0,1,1.62,3c.48,1,.91,2,1.33,3,.83,2,1.54,4,2.19,6.06s1.2,4.09,1.7,6.16.92,4.15,1.3,6.23a.5.5,0,0,1-.4.58.49.49,0,0,1-.57-.35h0c-.56-2-1.16-4-1.84-6s-1.4-3.94-2.21-5.86-1.68-3.8-2.65-5.63c-.48-.91-1-1.81-1.51-2.68s-1.11-1.76-1.64-2.45l1.48.68h0a108.48,108.48,0,0,0-11.68,1.6c-3.88.72-7.78,1.58-11.59,2.56l.73-2.13h0a53.59,53.59,0,0,1,4.86,9.1c1.36,3.11,2.55,6.28,3.65,9.47s2.13,6.39,3.08,9.62,1.85,6.47,2.67,9.74a.5.5,0,0,1-1,.27Z"/><line class="cls-8" x1="140.37" y1="210.06" x2="130.95" y2="210.29"/><path class="cls-6" d="M153.28,231.41c1.2-4.4,2.61-8.64,4.17-12.88s3.27-8.39,5.17-12.47a134.89,134.89,0,0,1,6.26-12,102,102,0,0,1,7.58-11.21h0l.07-.08a.75.75,0,0,1,.52-.26l6.38-.53a.51.51,0,0,1,.54.46.5.5,0,0,1-.4.53l-6.25,1.35.59-.35h0a101.05,101.05,0,0,0-7.29,11.1c-2.2,3.85-4.18,7.83-6,11.88s-3.45,8.19-4.93,12.37-2.83,8.45-3.92,12.7v0a1.29,1.29,0,1,1-2.5-.64Z"/><path class="cls-6" d="M132.84,230.89c1.27-4.59,2.73-9,4.32-13.48s3.32-8.8,5.19-13.13,3.92-8.56,6.11-12.74,4.64-8.22,7.23-12.17h0l-.19,1.09c-.08-.6-.21-1.28-.34-1.92s-.31-1.29-.51-1.92a10.18,10.18,0,0,0-1.71-3.44h0l0,0a.51.51,0,0,1,.54-.82l8.32,2.76h0l-1.41.49a41.33,41.33,0,0,1,3-4.13,19.82,19.82,0,0,1,1.79-1.88,5.69,5.69,0,0,1,2.37-1.43h0a.47.47,0,0,1,.6.28.43.43,0,0,1,0,.11v.06l.92,9.23h0l-1.23-.82,7.39-2.18a.5.5,0,0,1,.62.33.51.51,0,0,1-.28.61l-7.11,3a.9.9,0,0,1-1.17-.47,1.23,1.23,0,0,1-.07-.32v0h0l-.07-9.27.62.45h0a4.86,4.86,0,0,0-1.69,1.38,18.46,18.46,0,0,0-1.42,1.93,39.16,39.16,0,0,0-2.37,4.24h0a1,1,0,0,1-1.39.49h0l-7.85-3.9.52-.84h0a11.2,11.2,0,0,1,2.77,3.42,20.49,20.49,0,0,1,1,1.92c.31.67.58,1.31.84,2a1.09,1.09,0,0,1-.1,1l-.1.14h0c-2.49,3.89-4.86,7.86-7,12s-4.1,8.3-5.89,12.58-3.47,8.61-5,13-2.94,8.83-4.12,13.25v0a1.66,1.66,0,1,1-3.2-.86Z"/><path class="cls-6" d="M176.24,179.27l7.13-1.41a.5.5,0,0,1,.26,1l-6.91,2.26a.94.94,0,1,1-.59-1.79Z"/><path class="cls-6" d="M144.06,171.21l-8.23-1.2a1.42,1.42,0,1,1,.41-2.82,1.18,1.18,0,0,1,.31.08l7.76,3a.5.5,0,0,1,.29.65A.49.49,0,0,1,144.06,171.21Z"/><path class="cls-6" d="M155.12,150.26l3.46,9.85a.49.49,0,0,1-.3.64.5.5,0,0,1-.61-.25l-4.79-9.27a1.22,1.22,0,0,1,2.17-1.13A1.11,1.11,0,0,1,155.12,150.26Z"/><path class="cls-6" d="M179.34,165.51l6.28-7.06a1.28,1.28,0,1,1,1.91,1.7,1,1,0,0,1-.15.14L180,166.23a.5.5,0,0,1-.69-.72Z"/><path class="cls-6" d="M185.43,172.45l5.89-2.29a1.13,1.13,0,1,1,.82,2.11l-.21.06-6.23,1.08a.49.49,0,0,1-.58-.41A.48.48,0,0,1,185.43,172.45Z"/><path class="cls-6" d="M54.07,262.89a57.05,57.05,0,0,1,1.07-22.75,51.14,51.14,0,0,1,10.39-20.55,48.26,48.26,0,0,1,8.54-8,34.37,34.37,0,0,1,10.73-5.34A26,26,0,0,1,97,205.7a22,22,0,0,1,5.89,2.12,8.73,8.73,0,0,1,2.46,2.13,5.08,5.08,0,0,1,1.23,3.26.56.56,0,0,1-.58.53l-.21-.06-.12-.06a25.45,25.45,0,0,0-2.46-1c-.79-.27-1.56-.55-2.32-.85a20.34,20.34,0,0,0-4.79-1.4,26.18,26.18,0,0,0-10.16.34c-6.79,1.47-12.94,5.77-17.87,11.09a48.17,48.17,0,0,0-10.73,18.9,58.58,58.58,0,0,0-2.2,10.86,53.6,53.6,0,0,0-.1,11.11v0a.5.5,0,0,1-.45.55A.5.5,0,0,1,54.07,262.89Z"/><path class="cls-6" d="M.19,363.36a56.61,56.61,0,0,1,.16-10.74c.14-1.78.42-3.54.63-5.31s.55-3.53.89-5.28a163.16,163.16,0,0,1,5.54-20.64c2.18-6.8,5-13.36,7.8-19.91,1.47-3.24,3-6.45,4.53-9.67l4.9-9.5a1.32,1.32,0,0,1,.12-.2l0-.05c2.25-3,4.56-5.82,7-8.62s4.88-5.56,7.47-8.22c1.3-1.33,2.61-2.65,4-3.94.69-.62,1.37-1.29,2.07-1.88l1.05-.9a11.93,11.93,0,0,0,.89-.87c.59-.64,1.16-1.32,1.74-2s1.19-1.29,1.73-2a28.18,28.18,0,0,0,2.95-4.29l0,0a.89.89,0,0,1,1.65.61,18,18,0,0,1-2.18,5.4,26.31,26.31,0,0,1-1.58,2.41,24.35,24.35,0,0,1-1.89,2.16c-.33.34-.67.71-1.07,1.06l-1,.92c-.68.61-1.29,1.25-1.94,1.88-1.27,1.27-2.51,2.59-3.72,3.93-2.42,2.7-4.75,5.49-7,8.31s-4.58,5.68-6.81,8.52l.17-.25-5.06,9.26c-1.58,3.13-3.19,6.26-4.73,9.42-3,6.37-5.82,12.8-8.25,19.39A160.77,160.77,0,0,0,4,342.48c-.42,1.7-.76,3.43-1.14,5.14s-.65,3.45-.88,5.19l-.34,2.61L1.34,358a43.37,43.37,0,0,0-.16,5.21v0a.5.5,0,0,1-1,.07Z"/><path class="cls-6" d="M2.66,371.65a27.09,27.09,0,0,0,10,12.28A19.45,19.45,0,0,0,20,386.56l1.94.18c.64,0,1.3-.05,2-.07a32.72,32.72,0,0,0,4-.44A66.48,66.48,0,0,0,57.13,373a90.47,90.47,0,0,0,11.92-11.16c1.84-2,3.54-4.16,5.25-6.3s3.25-4.4,4.85-6.69c3.23-4.52,6.47-9,9.94-13.37,1.73-2.18,3.49-4.34,5.31-6.45a66.22,66.22,0,0,1,5.79-6.08.5.5,0,0,1,.69.72l0,0a77,77,0,0,0-5.33,6.26c-1.71,2.16-3.35,4.38-5,6.62-3.21,4.49-6.4,9-9.46,13.61-6,9.36-13.25,18.2-22.15,25.14S39.54,387.39,28.24,389a33.22,33.22,0,0,1-4.28.37c-.74,0-1.47.06-2.2,0l-2.19-.28a20.72,20.72,0,0,1-8.09-3.32,23.65,23.65,0,0,1-6-6.16A28.45,28.45,0,0,1,1.71,372a.5.5,0,0,1,.94-.35Z"/><path class="cls-6" d="M8.37,341.69a49.83,49.83,0,0,1,9.49-19.23A43,43,0,0,1,25.75,315L28,313.47c.76-.5,1.51-.92,2.27-1.38,1.52-.9,3-1.85,4.51-2.78,6-3.78,11.85-7.73,17.71-11.7s11.69-8,17.48-12.09h0a1.16,1.16,0,0,1,1.63.28,1.18,1.18,0,0,1-.27,1.63q-8.66,6.22-17.46,12.2T36,311.25c-1.52.91-3,1.86-4.58,2.75s-3,1.81-4.47,2.72a41.07,41.07,0,0,0-7.66,6.95,48,48,0,0,0-5.89,8.61,50.34,50.34,0,0,0-4.08,9.64v0a.49.49,0,0,1-.62.34A.49.49,0,0,1,8.37,341.69Z"/><path class="cls-6" d="M102.8,318.82l7.81-11.28.87,2.58h0a12.73,12.73,0,0,1-1.4-.47,13.4,13.4,0,0,1-1.29-.53c-.86-.36-1.65-.81-2.46-1.24s-1.58-.93-2.31-1.48l-1.11-.8-1.05-.87a34.83,34.83,0,0,1-7-8.22,38.85,38.85,0,0,1-2.45-4.81,41,41,0,0,1-1.84-5,21.85,21.85,0,0,1-.66-2.59l-.59-2.61c-.27-1.75-.48-3.51-.72-5.27l1.58,1.26h0a17.78,17.78,0,0,0-2.4.59c-.83.24-1.64.55-2.45.87a41.31,41.31,0,0,0-4.73,2.31,49.42,49.42,0,0,0-4.44,2.87c-.73.51-1.41,1.08-2.12,1.61l-2,1.71h0l.42-1.07a31.41,31.41,0,0,0,1.21,5.72,36.07,36.07,0,0,0,2.17,5.55,33.74,33.74,0,0,0,3,5.15,35.15,35.15,0,0,0,3.85,4.6l0,0a.49.49,0,0,1,0,.7.49.49,0,0,1-.68,0,37.08,37.08,0,0,1-4.27-4.5,35.17,35.17,0,0,1-3.48-5.17,38.46,38.46,0,0,1-2.63-5.68,33.52,33.52,0,0,1-1.69-6.13,1.14,1.14,0,0,1,.37-1l0,0h0l2.11-1.81c.73-.57,1.44-1.17,2.19-1.71a53.5,53.5,0,0,1,4.64-3.1,44.34,44.34,0,0,1,5-2.53c.87-.37,1.75-.71,2.66-1a21.84,21.84,0,0,1,2.87-.73h0a1.38,1.38,0,0,1,1.56,1.17l0,.09c.25,1.67.46,3.35.73,5l.58,2.46a22.29,22.29,0,0,0,.65,2.43,38.88,38.88,0,0,0,1.76,4.69,37.64,37.64,0,0,0,2.3,4.41,31.74,31.74,0,0,0,6.48,7.42l1,.78,1,.7c.66.49,1.38.88,2.08,1.3a22.07,22.07,0,0,0,2.18,1.08,15.65,15.65,0,0,0,2.17.79h0l.37.16a1.5,1.5,0,0,1,.8,2,1.36,1.36,0,0,1-.3.46l-9.53,9.89a.5.5,0,0,1-.71,0A.51.51,0,0,1,102.8,318.82Z"/><line class="cls-7" x1="121.6" y1="301.47" x2="111.85" y2="308.56"/><path class="cls-6" d="M89.32,279.33q8.49-11.41,17-22.77l8.6-11.34,2.18-2.83c.39-.49.73-.91,1.06-1.36l1-1.42a21.87,21.87,0,0,1,5-5.68,15.69,15.69,0,0,1,7.27-2.81,26.61,26.61,0,0,1,3.76-.26l3.57,0q7.13,0,14.24.22c2.38.06,4.75.13,7.14.25,1.19.05,2.39.12,3.59.21.61.06,1.2.08,1.83.17l.94.12a9,9,0,0,1,1,.23,7.73,7.73,0,0,1,3.69,2.22,8.78,8.78,0,0,1,2,3.72,16.31,16.31,0,0,1-.11,7.71h0v-.67c1.18,4.37,2.34,8.73,3.43,13.13l.79,3.32a19.87,19.87,0,0,1,.5,3.62,8.64,8.64,0,0,1-.74,3.89,11.08,11.08,0,0,1-2.24,3.1l-1.22,1.22c-.36.36-.73.77-1.1,1.18-.73.82-1.45,1.67-2.16,2.53-1.42,1.73-2.82,3.49-4.2,5.26-2.75,3.55-5.48,7.15-8,10.82h0l0,.07a1.32,1.32,0,0,1-1.82.35,1.77,1.77,0,0,1-.31-.3,4.35,4.35,0,0,1-.3-.49c-.07-.14-.13-.27-.18-.4a5.94,5.94,0,0,1-.26-.78,10.2,10.2,0,0,1-.27-1.51,13.87,13.87,0,0,1,.07-2.89,22.12,22.12,0,0,1,.53-2.74c.24-.89.53-1.76.83-2.61a.74.74,0,0,1,1.42.41v0c-.19.85-.37,1.69-.49,2.54a17.78,17.78,0,0,0-.19,2.51,10.55,10.55,0,0,0,.22,2.41,6.69,6.69,0,0,0,.32,1.07,4,4,0,0,0,.22.46l.12.19s.1.14.06.07l-2.17.12h0c2.57-3.8,5.29-7.4,8.07-11,1.39-1.79,2.8-3.57,4.25-5.32.72-.88,1.46-1.75,2.23-2.62.39-.43.77-.86,1.21-1.3l1.17-1.17a8.61,8.61,0,0,0,1.73-2.34,5.81,5.81,0,0,0,.48-2.7,16.28,16.28,0,0,0-.43-3.08l-.78-3.26c-1.08-4.36-2.24-8.72-3.42-13.07a1.35,1.35,0,0,1,0-.63v0h0a13.42,13.42,0,0,0,0-6.36,5.09,5.09,0,0,0-3.68-3.85c-.23-.06-.47-.11-.71-.15l-.82-.1c-.54-.07-1.14-.09-1.71-.15-1.16-.07-2.33-.14-3.5-.18-2.35-.1-4.71-.16-7.08-.2-4.72-.1-9.45-.13-14.18-.14h-3.54a24.12,24.12,0,0,0-3.32.25,12.89,12.89,0,0,0-5.86,2.23,19,19,0,0,0-4.32,4.93l-1,1.48c-.37.51-.78,1-1.13,1.45l-2.16,2.79-8.61,11.29L91.64,281.07a1.45,1.45,0,0,1-2.32-1.74Z"/><path class="cls-6" d="M140.26,296.82a45,45,0,0,0,7.48-4.72,32.06,32.06,0,0,0,6.17-6.2,16.26,16.26,0,0,0,3.14-7.81,32.59,32.59,0,0,0-.16-8.77,23.68,23.68,0,0,0-1-4.24,17.38,17.38,0,0,0-1.85-3.86,5.7,5.7,0,0,0-2.76-2.48,35.47,35.47,0,0,0-4.35-.45c-6-.3-12.12-.44-18.19-.61a.5.5,0,0,1-.49-.51.52.52,0,0,1,.48-.49c6.09-.26,12.17-.45,18.29-.28.77,0,1.53.05,2.31.11l1.17.09.6.06.65.12a3.29,3.29,0,0,1,.68.21,2.91,2.91,0,0,1,.66.33,5.89,5.89,0,0,1,1.07.81c.34.29.59.61.89.92l.74,1a18.9,18.9,0,0,1,2.14,4.32,25.24,25.24,0,0,1,1.21,4.59,34.79,34.79,0,0,1,.29,9.39,18.47,18.47,0,0,1-3.54,9A32.65,32.65,0,0,1,149.2,294a47.71,47.71,0,0,1-8,4.94,1.16,1.16,0,1,1-1-2.08Z"/><path class="cls-6" d="M147.6,271.81a36,36,0,0,0,4.05-5.07,21.23,21.23,0,0,0,2.71-5.72h0a1,1,0,1,1,1.9.53.25.25,0,0,1,0,.07,22.57,22.57,0,0,1-3.38,6,37,37,0,0,1-4.58,4.95.5.5,0,0,1-.7-.72Z"/><path class="cls-6" d="M137.21,240.62c3.83-.64,7.67-1.06,11.53-1.39a113.19,113.19,0,0,1,11.67-.39c1,0,2,.08,3,.17.49,0,1,.12,1.53.19.26,0,.5.06.78.12l.83.22a7.83,7.83,0,0,1,1.6.63l.79.48c.25.17.5.43.75.64a4.79,4.79,0,0,1,1.11,1.81,5.23,5.23,0,0,1,.19,1,6.26,6.26,0,0,1,0,1,9.54,9.54,0,0,1-1,3.2,21.58,21.58,0,0,1-1.54,2.61,39.91,39.91,0,0,1-3.63,4.62A.5.5,0,0,1,164,255c.81-1.77,1.68-3.49,2.49-5.19a14.74,14.74,0,0,0,1.63-4.88,1.8,1.8,0,0,0-.55-1.47,3.6,3.6,0,0,0-.35-.29l-.45-.26a6,6,0,0,0-1.1-.4l-.56-.16c-.2,0-.43-.07-.65-.11-.44-.06-.86-.15-1.33-.18-.92-.1-1.85-.16-2.8-.2-3.77-.21-7.61-.19-11.45-.19s-7.69,0-11.55,0a.5.5,0,0,1-.08-1Z"/><path class="cls-6" d="M157.32,280.61c2-2.61,3.86-5.33,5.66-8.06a77.58,77.58,0,0,0,4.8-8.48,23.24,23.24,0,0,0,1.61-4.41l.24-1.1.17-1.18c.09-.79.18-1.58.22-2.37a37.13,37.13,0,0,0-.05-4.72,26,26,0,0,0-.77-4.52l0-.08a1.4,1.4,0,0,1,2.67-.85,17.83,17.83,0,0,1,.67,2.63,24.92,24.92,0,0,1,.33,2.58,29.76,29.76,0,0,1,0,5.17c-.07.85-.19,1.7-.32,2.55l-.23,1.27c-.09.43-.23.87-.34,1.3a27.25,27.25,0,0,1-2,4.78,66.63,66.63,0,0,1-5.47,8.44c-2,2.67-4.11,5.22-6.34,7.69a.5.5,0,0,1-.71,0,.5.5,0,0,1-.06-.67Z"/><path class="cls-6" d="M101.32,367.46q-1.68-9.84-3.09-19.68c-1-6.57-1.81-13.15-2.5-19.76a.49.49,0,0,1,.44-.54.49.49,0,0,1,.55.41c1.08,6.53,2.33,13,3.67,19.51s2.75,13,4.26,19.38h0a1.7,1.7,0,0,1-3.31.78A.43.43,0,0,1,101.32,367.46Z"/><path class="cls-8" d="M141.19,383.93s-19.5-35.79-19.59-100.62"/><path class="cls-8" d="M140.35,286.47s-.16,70.22,27.5,101.61"/><path class="cls-6" d="M117.08,279.07a30.46,30.46,0,0,0,6.17,3.34,22.92,22.92,0,0,0,6.66,1.57,20.38,20.38,0,0,0,6.77-.58,23.86,23.86,0,0,0,3.32-1,13.53,13.53,0,0,0,1.62-.68c.55-.24,1.1-.47,1.66-.69l.07,0a.5.5,0,0,1,.49.86,27.72,27.72,0,0,1-3.05,2.19,18.81,18.81,0,0,1-3.48,1.57,17.68,17.68,0,0,1-7.61.88,19.87,19.87,0,0,1-7.34-2.13,20.22,20.22,0,0,1-6-4.57.51.51,0,0,1,.05-.71.5.5,0,0,1,.61,0Z"/><path class="cls-6" d="M148.72,286.23a24.9,24.9,0,0,1-5.73.61,11.71,11.71,0,0,1-3-.4,5.88,5.88,0,0,1-2.85-1.63,1,1,0,0,1,.07-1.35,1,1,0,0,1,1.34.07l.06.07a4.09,4.09,0,0,0,1.88,1.24,10.51,10.51,0,0,0,2.55.55,23.7,23.7,0,0,0,5.45-.14h0a.5.5,0,0,1,.56.43A.49.49,0,0,1,148.72,286.23Z"/><path class="cls-9" d="M322.45,329.7A176.17,176.17,0,0,1,79.9,351.51"/><path class="cls-9" d="M313,88a176.5,176.5,0,0,1,48,167.17"/><path class="cls-9" d="M27.11,281.53A176.31,176.31,0,0,1,65.43,89.05"/></g></g></svg>