<svg  viewBox="0 0 18 18" fill="none" xmlns="http://www.w3.org/2000/svg">
<path fill-rule="evenodd" clip-rule="evenodd" d="M15.7077 2.29206C15.2621 1.84643 14.5401 1.84644 14.0946 2.29201L4.02031 12.3663L3.12664 14.8732L5.63373 13.9797L15.7077 3.90542C16.1533 3.45983 16.1533 2.73766 15.7077 2.29206ZM12.8218 1.01922C13.9703 -0.129352 15.832 -0.129244 16.9805 1.01927C18.1291 2.16781 18.1291 4.02967 16.9805 5.17821L6.61989 15.5391L0.157227 17.8424L2.46091 11.3801L12.8218 1.01922Z" fill="#3C3C64"/>
<path fill-rule="evenodd" clip-rule="evenodd" d="M6.10593 14.8373L3.21973 11.9511L4.49252 10.6783L7.37872 13.5645L6.10593 14.8373Z" fill="#3C3C64"/>
<path fill-rule="evenodd" clip-rule="evenodd" d="M14.9505 5.89386L12.062 3.00516L13.3349 1.73242L16.2233 4.62112L14.9505 5.89386Z" fill="#3C3C64"/>
</svg>
