<svg width="2200" height="42" fill="none" xmlns="http://www.w3.org/2000/svg" xmlns:xlink="http://www.w3.org/1999/xlink">
  <linearGradient id="b" x1="0" y1="0" x2="100%" y2="0">
    <stop offset="0%" stop-color="#ece8f1"/>
    <stop offset="12.5%" stop-color="#ece8f1"/>
    <stop offset="32.813%" stop-color="#7d64ff"/>
    <stop offset="69.271%" stop-color="#7d64ff"/>
    <stop offset="88.021%" stop-color="#ece8f1"/>
    <stop offset="100%" stop-color="#ece8f1"/>
  </linearGradient>
  <defs>
    <path id="a" d="M0 21h440l20-20h40l20 20h20l20-20h80l20 20h40l20 20h60l40-40h40l20 20h40l20-20h20l20 20h220l20 20h140l20-20h220l20-20h80l20 20h20l20-20h40l40 40h360"/>
    <mask id="c">
      <use xlink:href="#a" stroke="#fff"/>
    </mask>
  </defs>
  <path d="M0 50V20h440l20-20h40l20 20h20l20-20h80l20 20h40l20 20h60l40-40h40l20 20h40l20-20h20l20 20h220l20 20h140l20-20h220l20-20h80l20 20h20l20-20h40l40 40h360v10" fill="#F9F8FC"/>
  <use xlink:href="#a" stroke="#ece8f1"/>
  <rect y="-8" x="0" width="100%" height="58" fill="url(#b)" mask="url(#c)">
        <animate attributeName="x" from="0" to="2200" dur="9s" repeatCount="indefinite"/>
        <animate attributeName="width" from="450px" to="450px" dur="9s" repeatCount="indefinite"/>
  </rect> 
</svg>
