<svg width="24" height="24" viewBox="0 0 24 24" fill="none" xmlns="http://www.w3.org/2000/svg">
<path d="M12 0C5.383 0 0 5.44654 0 12.1417C0 17.7835 3.95 22.7656 9.392 23.9879C9.54 24.0192 9.694 23.9838 9.813 23.8887C9.931 23.7926 10 23.6479 10 23.4941V20.742C10 20.4627 9.776 20.2361 9.5 20.2361H8.5C7.252 20.2361 6.403 19.0391 5.653 17.9838C5.576 17.8755 5.5 17.7673 5.423 17.6621C5.778 17.8523 6.083 18.082 6.384 18.3076C6.983 18.7568 7.603 19.2212 8.427 19.2212C8.43 19.2212 8.434 19.2212 8.437 19.2212C8.501 19.2283 9.085 19.289 9.537 18.8874C9.749 18.6981 10 18.341 10 17.7066V17.3535C10 17.1268 9.852 16.9285 9.636 16.8668C6.863 16.0725 5 13.97 5 11.6357C5 10.4216 5.493 9.26307 6.425 8.28465C6.569 8.13389 6.606 7.91029 6.519 7.72007C6.147 6.9086 6.226 5.80472 6.667 5.14199C7.251 5.37167 8.008 5.8543 8.5 6.44519C8.635 6.60809 8.857 6.66678 9.054 6.59393C10.929 5.89781 13.072 5.89781 14.947 6.59393C15.146 6.66678 15.367 6.60708 15.501 6.44519C15.993 5.8543 16.75 5.37167 17.333 5.14098C17.775 5.80371 17.854 6.9086 17.481 7.72007C17.394 7.91029 17.431 8.13389 17.575 8.28465C18.507 9.26307 19 10.4216 19 11.6357C19 14.0863 16.93 16.2809 13.967 16.972C13.816 17.0074 13.689 17.1116 13.625 17.2543C13.561 17.397 13.565 17.5619 13.638 17.7005C13.885 18.1761 14 18.8206 14 19.7302V23.4941C14 23.6479 14.069 23.7926 14.187 23.8887C14.277 23.9616 14.387 24 14.5 24C14.536 24 14.572 23.996 14.608 23.9879C20.05 22.7656 24 17.7835 24 12.1417C24 5.44654 18.617 0 12 0Z" fill="#BEB9D7"/>
</svg>
