<svg width="12" height="10" viewBox="0 0 10 8" fill="none" xmlns="http://www.w3.org/2000/svg">
<path d="M8.80602 0.707258C8.58611 0.483037 8.325 0.305168 8.03762 0.183815C7.75024 0.062461 7.44222 0 7.13115 0C6.82007 0 6.51205 0.062461 6.22467 0.183815C5.93729 0.305168 5.67619 0.483037 5.45628 0.707258L4.99989 1.17238L4.54349 0.707258C4.09929 0.254559 3.49682 0.00023465 2.86862 0.000234655C2.24043 0.000234659 1.63796 0.254559 1.19375 0.707258C0.749551 1.15996 0.5 1.77395 0.5 2.41416C0.5 3.05438 0.749551 3.66837 1.19375 4.12107L1.65014 4.58619L4.99989 8L8.34962 4.58619L8.80602 4.12107C9.02603 3.89695 9.20056 3.63086 9.31963 3.33798C9.43871 3.0451 9.5 2.73119 9.5 2.41416C9.5 2.09714 9.43871 1.78322 9.31963 1.49035C9.20056 1.19747 9.02603 0.931374 8.80602 0.707258Z" fill="#7D64FF"/>
</svg>
