<svg width="20" height="20" viewBox="0 0 20 20" fill="none" xmlns="http://www.w3.org/2000/svg">
<path fill-rule="evenodd" clip-rule="evenodd" d="M10 20C15.5228 20 20 15.5228 20 10C20 4.47715 15.5228 0 10 0C4.47715 0 0 4.47715 0 10C0 15.5228 4.47715 20 10 20ZM4.4223 3.57441C4.14077 3.82828 4 4.1505 4 4.54108C4 4.93165 4.13674 5.25583 4.41023 5.5136C4.68372 5.77138 5.04166 5.90027 5.48407 5.90027H5.49614C5.95463 5.90027 6.32465 5.77138 6.60618 5.5136C6.87967 5.26363 7.01641 4.95118 7.01641 4.57623C7.01641 4.16222 6.87564 3.82633 6.59411 3.56855C6.32062 3.31858 5.96268 3.1936 5.52027 3.1936C5.06982 3.1936 4.70382 3.32054 4.4223 3.57441ZM4.15685 6.96653V14.7936H6.83542V6.96653H4.15685ZM10.9981 14.7936H8.3195C8.33558 12.4345 8.34363 10.6028 8.34363 9.29825C8.34363 7.99373 8.33558 7.2165 8.3195 6.96653H10.9981V8.07966L10.986 8.1031H10.9981V8.07966C11.5772 7.21259 12.3856 6.77906 13.4233 6.77906C14.3483 6.77906 15.0923 7.07785 15.6554 7.67542C16.2185 8.273 16.5 9.14983 16.5 10.3059V14.7936H13.8214V10.6106C13.8214 9.43104 13.371 8.84128 12.4701 8.84128C12.1242 8.84128 11.8366 8.93306 11.6074 9.11663C11.3781 9.3002 11.2072 9.52478 11.0946 9.79037C11.0302 9.93878 10.9981 10.1497 10.9981 10.4231V14.7936Z" fill="#BEB9D7"/>
</svg>
