<svg width="24" height="24" viewBox="0 0 20 20" fill="none" xmlns="http://www.w3.org/2000/svg">
<path fill-rule="evenodd" clip-rule="evenodd" d="M10 20C15.5228 20 20 15.5228 20 10C20 4.47715 15.5228 0 10 0C4.47715 0 0 4.47715 0 10C0 15.5228 4.47715 20 10 20ZM4.56081 4.10564C4.29805 4.34273 4.16667 4.64365 4.16667 5.00842C4.16667 5.37317 4.29429 5.67593 4.54955 5.91667C4.80481 6.15741 5.13889 6.27778 5.5518 6.27778H5.56306C5.99099 6.27778 6.33634 6.15741 6.5991 5.91667C6.85436 5.68321 6.98198 5.39141 6.98198 5.04125C6.98198 4.65459 6.8506 4.34091 6.58784 4.10017C6.33258 3.86672 5.9985 3.75 5.58559 3.75C5.16517 3.75 4.82357 3.86854 4.56081 4.10564ZM4.31306 7.27357V14.5833H6.81306V7.27357H4.31306ZM10.6982 14.5833H8.1982C8.21321 12.3802 8.22072 10.6695 8.22072 9.45118C8.22072 8.23288 8.21321 7.50701 8.1982 7.27357H10.6982V8.31313L10.6869 8.33502H10.6982V8.31313C11.2387 7.50337 11.9932 7.09848 12.9617 7.09848C13.8251 7.09848 14.5195 7.37752 15.045 7.93561C15.5706 8.49369 15.8333 9.31257 15.8333 10.3923V14.5833H13.3333V10.6768C13.3333 9.57519 12.9129 9.02441 12.0721 9.02441C11.7492 9.02441 11.4809 9.11013 11.2669 9.28157C11.0529 9.453 10.8934 9.66273 10.7883 9.91077C10.7282 10.0494 10.6982 10.2463 10.6982 10.5017V14.5833Z" fill="#BEB9D7"/>
</svg>
