<svg width="20" height="20" viewBox="0 0 20 20" fill="none" xmlns="http://www.w3.org/2000/svg">
<path fill-rule="evenodd" clip-rule="evenodd" d="M10 20C15.5228 20 20 15.5228 20 10C20 4.47715 15.5228 0 10 0C4.47715 0 0 4.47715 0 10C0 15.5228 4.47715 20 10 20ZM13.7293 15.245C12.8138 14.9348 12.1682 14.0217 12.1674 12.9887C12.1441 12.5546 12.3342 12.1393 12.5231 11.7263C12.5287 11.714 12.5344 11.7017 12.54 11.6894C12.8225 11.0721 13.1092 10.457 13.396 9.84198C13.5771 9.45338 13.7583 9.06478 13.9384 8.67559C13.9964 8.5494 14.0478 8.41999 14.0992 8.29068C14.119 8.24079 14.1389 8.19091 14.159 8.14124C14.1936 8.05545 14.2187 7.96529 14.2225 7.87305C14.2295 7.70148 14.2184 7.52766 14.053 7.43249C13.8834 7.3347 13.7052 7.3427 13.5399 7.4502C13.3567 7.56965 13.2418 7.75173 13.1437 7.9439C12.8798 8.46235 12.617 8.98145 12.3586 9.503C12.0889 10.0474 11.8201 10.5925 11.5513 11.1375C11.2627 11.7228 10.9741 12.308 10.6844 12.8925C10.5215 13.2212 10.31 13.5057 9.95623 13.6375C9.65217 13.7508 9.34771 13.7291 9.05441 13.5991C8.76692 13.4717 8.62778 13.1518 8.68517 12.7907C8.7149 12.6042 8.78291 12.4302 8.8508 12.2564C8.85942 12.2344 8.86803 12.2123 8.87657 12.1903C9.038 11.7733 9.2004 11.3566 9.36281 10.94C9.57761 10.3889 9.79243 9.83777 10.005 9.28576C10.0104 9.27184 10.0158 9.25792 10.0211 9.24399C10.1042 9.02929 10.188 8.81275 10.2058 8.57919C10.2231 8.34648 10.1767 8.12881 10.0007 7.96529C9.71248 7.69742 9.22653 7.83501 9.05742 8.23892C8.93197 8.53852 8.81473 8.84152 8.69744 9.14467C8.65812 9.24628 8.6188 9.34791 8.57916 9.44943C8.38045 9.95843 8.18554 10.469 7.99063 10.9796C7.62279 11.9432 7.25495 12.9067 6.86154 13.8598C6.68043 14.2993 6.4213 14.6905 5.94813 14.8368C5.36408 15.017 4.79992 14.9336 4.28468 14.5964C3.62427 14.1637 3.34806 13.3754 3.5821 12.5743C3.65204 12.3347 3.72167 12.0951 3.7913 11.8554C4.24193 10.3043 4.69263 8.75287 5.22961 7.2297C5.36387 6.84932 5.50546 6.47139 5.67888 6.1076C6.06972 5.28553 6.99689 4.74472 7.88287 4.82219C8.11147 4.842 8.31405 4.94062 8.51608 5.03897C8.56161 5.06113 8.6071 5.08328 8.65287 5.10451C8.89854 5.21889 9.14483 5.3336 9.38272 5.46393C9.63244 5.60072 9.85983 5.55948 10.0853 5.414C10.2386 5.3151 10.3709 5.19055 10.5031 5.066C10.5887 4.98542 10.6743 4.90484 10.7655 4.8312C11.3413 4.36674 12.0504 4.39171 12.5867 4.90029C12.6268 4.93828 12.6666 4.97668 12.7063 5.01507C12.7789 5.08531 12.8515 5.15552 12.9265 5.22316C13.0782 5.36075 13.2464 5.38897 13.4212 5.27096C13.947 4.9148 14.5257 4.92744 15.1071 5.03857C15.7421 5.16026 16.1104 5.58338 16.2719 6.21467C16.3779 6.63059 16.3223 7.0338 16.2056 7.43595C16.0198 8.07827 15.7552 8.6877 15.4906 9.29695C15.4535 9.38234 15.4165 9.46773 15.3796 9.5532C15.3363 9.65366 15.2927 9.75401 15.2491 9.85436C14.9802 10.4732 14.7114 11.0919 14.5045 11.7366C14.3731 12.146 14.2573 12.5598 14.2628 12.9985C14.2691 13.4944 14.4694 13.754 14.9469 13.8517C15.128 13.8886 15.3103 13.92 15.4926 13.9514C15.6015 13.9701 15.7104 13.9888 15.8191 14.0088C15.9163 14.0261 16.0094 14.058 16.101 14.0971C16.3646 14.2097 16.488 14.4214 16.4993 14.7045C16.5105 14.9857 16.3931 15.1968 16.144 15.3245C15.8271 15.4868 15.4847 15.5114 15.1418 15.4962C14.6614 15.4744 14.1881 15.4006 13.7293 15.245Z" fill="#BEB9D7"/>
</svg>
