<svg width="24" height="24" viewBox="0 0 24 24" fill="none" xmlns="http://www.w3.org/2000/svg">
<path fill-rule="evenodd" clip-rule="evenodd" d="M12 24C18.6274 24 24 18.6274 24 12C24 5.37258 18.6274 0 12 0C5.37258 0 0 5.37258 0 12C0 18.6274 5.37258 24 12 24ZM9.89596 4H9.89396C8.9653 4 8.21197 4.75333 8.21197 5.682C8.21197 6.61067 8.9653 7.364 9.89396 7.364H11.5746V5.67867C11.574 4.75133 10.8226 4 9.89596 4ZM5.69331 15.7973C4.76464 15.7973 4.01131 15.044 4.01131 14.1153C4.01131 13.1867 4.76464 12.4333 5.69331 12.4333H7.37531V14.1153C7.37531 15.044 6.62197 15.7973 5.69331 15.7973ZM8.2132 14.1153C8.2132 13.1873 8.96587 12.4347 9.89386 12.4347C10.8212 12.4347 11.5739 13.1873 11.5745 14.1153V18.3193C11.5745 19.2473 10.8219 20 9.89386 20C8.96587 20 8.2132 19.2473 8.2132 18.3193V14.1153ZM9.894 11.5806H5.682C4.75333 11.5806 4 10.8273 4 9.89864C4 8.96998 4.75333 8.21664 5.682 8.21664H9.894C10.8227 8.21664 11.576 8.96998 11.576 9.89864C11.576 10.8273 10.8227 11.5806 9.894 11.5806ZM18.3033 8.21603C17.3759 8.21603 16.6246 8.96736 16.6246 9.89469V11.58H18.3053C19.2339 11.58 19.9873 10.8267 19.9873 9.89803C19.9873 8.96936 19.2339 8.21603 18.3053 8.21603H18.3033ZM12.426 9.89872V5.68205C12.426 4.75405 13.1787 4.00139 14.1067 4.00139C15.0347 4.00139 15.7873 4.75405 15.7873 5.68205V9.89872C15.7873 10.8267 15.0347 11.5794 14.1067 11.5794C13.1787 11.5794 12.426 10.8267 12.426 9.89872ZM15.7865 18.318C15.7865 17.39 15.0338 16.6373 14.1058 16.6373H12.4252V18.3193C12.4258 19.2467 13.1778 19.9987 14.1058 19.9987C15.0338 19.9987 15.7865 19.246 15.7865 18.318ZM14.1059 12.4333H18.3179C19.2466 12.4333 20 13.1867 20 14.1153C20 15.044 19.2466 15.7973 18.3179 15.7973H14.1059C13.1773 15.7973 12.4239 15.044 12.4239 14.1153C12.4239 13.1867 13.1773 12.4333 14.1059 12.4333Z" fill="#BEB9D7"/>
</svg>
