<svg width="20" height="20" viewBox="0 0 24 24" fill="none" xmlns="http://www.w3.org/2000/svg">
<path fill-rule="evenodd" clip-rule="evenodd" d="M12 24C18.6274 24 24 18.6274 24 12C24 5.37258 18.6274 0 12 0C5.37258 0 0 5.37258 0 12C0 18.6274 5.37258 24 12 24ZM20.4931 7.51054C20.633 7.43966 20.8034 7.46856 20.9091 7.58349C21.0149 7.69772 21.0302 7.86838 20.9453 7.99776C20.5356 8.63843 19.8747 9.23437 19.433 9.55712C19.6723 12.4646 17.954 15.7141 15.1972 17.5239C14.1746 18.1962 12.4946 19 10.318 19C8.82233 19 7.09157 18.6201 5.17716 17.5569C5.03316 17.4771 4.96569 17.3064 5.01716 17.1509C5.06864 16.9954 5.22447 16.8929 5.38794 16.9156C6.64984 17.0594 8.02791 16.7662 9.05746 16.1682C7.87835 15.8937 6.92531 15.1367 6.42236 14.0363C6.36602 13.9131 6.38758 13.7686 6.47802 13.6675C6.56845 13.5656 6.71036 13.5264 6.84114 13.5656C6.99349 13.6117 7.14444 13.6434 7.28914 13.6606C6.39384 13.1321 5.43525 12.1205 5.43525 10.6045C5.43525 10.4717 5.51246 10.3506 5.6335 10.2934C5.75524 10.2377 5.89924 10.2535 6.0022 10.3375C6.11419 10.4269 6.23315 10.502 6.35628 10.5618C6.09959 10.2177 5.87837 9.79316 5.75176 9.31145C5.52011 8.42854 5.65437 7.53463 6.13854 6.72604C6.19698 6.62901 6.29993 6.56639 6.41402 6.55813C6.52254 6.55125 6.63801 6.59805 6.70966 6.68682C7.73365 7.95234 9.55276 9.48142 12.4793 9.76013C12.4251 8.84488 12.7033 7.34332 13.9819 6.60493C15.5548 5.69656 17.0678 5.81355 18.368 6.94006C18.9432 6.81344 19.8531 6.42257 20.0417 6.29251C20.1613 6.20993 20.3206 6.20993 20.4403 6.29251C20.5599 6.37577 20.6149 6.52304 20.5773 6.66273C20.4904 6.98686 20.2935 7.34745 20.0486 7.66951C20.2427 7.61239 20.4062 7.55458 20.4931 7.51054Z" fill="#BEB9D7"/>
</svg>
