<svg width="24" height="24" viewBox="0 0 20 20" fill="none" xmlns="http://www.w3.org/2000/svg">
<path fill-rule="evenodd" clip-rule="evenodd" d="M10 20C15.5228 20 20 15.5228 20 10C20 4.47715 15.5228 0 10 0C4.47715 0 0 4.47715 0 10C0 15.5228 4.47715 20 10 20ZM7.71241 14.5216L10.2769 14.5713C10.281 14.5713 10.2892 14.5713 10.2891 14.578C11.7172 14.6063 13.1086 14.5175 14.5327 14.4072C15.6693 14.3228 15.9387 13.4488 16.0794 12.4065C16.2549 11.1477 16.2937 9.87379 16.2019 8.60637C16.1974 8.54628 16.1932 8.48564 16.1889 8.42463C16.1033 7.21194 16.0072 5.84904 14.6552 5.5978C14.3675 5.5437 14.0737 5.49616 13.782 5.48747C11.0196 5.3926 8.23266 5.36851 5.46413 5.57184C4.644 5.62787 4.11368 6.14275 3.97892 7.00563C3.74021 8.54343 3.69125 10.1223 3.81774 11.6731C3.81932 11.692 3.82089 11.7111 3.82247 11.7301C3.91289 12.821 4.01855 14.0958 5.23563 14.3594C5.89086 14.5038 6.55799 14.5096 7.22635 14.5154C7.38835 14.5168 7.55042 14.5182 7.71241 14.5216ZM10.1005 11.1218C9.65863 11.391 9.21571 11.6609 8.76924 11.9327V8.04382C9.26138 8.34308 9.75004 8.64095 10.2392 8.93915C10.8107 9.2875 11.3829 9.63629 11.9621 9.98824C11.339 10.3671 10.7208 10.7438 10.1005 11.1218Z" fill="#BEB9D7"/>
</svg>
