<svg width="20" height="20" viewBox="0 0 20 20" fill="none" xmlns="http://www.w3.org/2000/svg">
<path fill-rule="evenodd" clip-rule="evenodd" d="M10 20C15.5228 20 20 15.5228 20 10C20 4.47715 15.5228 0 10 0C4.47715 0 0 4.47715 0 10C0 15.5228 4.47715 20 10 20ZM7.62091 14.6946L10.288 14.7462C10.2922 14.7462 10.3008 14.7462 10.3007 14.7531C11.7859 14.7825 13.233 14.6903 14.714 14.5757C15.8961 14.4881 16.1762 13.5807 16.3226 12.4986C16.5051 11.1916 16.5454 9.86896 16.4499 8.55306C16.4453 8.49067 16.4409 8.42771 16.4364 8.36437C16.3474 7.10529 16.2474 5.69026 14.8414 5.4294C14.5422 5.37323 14.2367 5.32388 13.9333 5.31485C11.0604 5.21636 8.16196 5.19134 5.28269 5.40246C4.42976 5.46063 3.87822 5.9952 3.73808 6.89108C3.48982 8.48772 3.4389 10.127 3.57045 11.7371C3.57209 11.7568 3.57373 11.7765 3.57537 11.7963C3.66941 12.9289 3.77929 14.2524 5.04505 14.5261C5.7265 14.6761 6.42031 14.6821 7.11541 14.6881C7.28388 14.6896 7.45244 14.6911 7.62091 14.6946ZM10.1042 11.1649C9.64475 11.4444 9.18422 11.7245 8.72001 12.0066V7.96899C9.23188 8.27973 9.74013 8.58903 10.2489 8.89866C10.8432 9.2603 11.4382 9.62241 12.0406 9.98779C11.3925 10.3813 10.7494 10.7724 10.1042 11.1649Z" fill="#BEB9D7"/>
</svg>
