<svg width="116" height="35" viewBox="0 0 116 35" fill="none" xmlns="http://www.w3.org/2000/svg">
<g opacity="0.5">
<path d="M71.9299 27.299C65.217 32.2624 55.4528 34.9069 47.0312 34.9069C35.2327 34.9069 24.6548 30.5537 16.5994 23.3119C15.9891 22.7423 16.518 21.9693 17.291 22.4169C25.9567 27.4617 36.6567 30.4723 47.7228 30.4723C55.168 30.4723 63.3862 28.9263 70.9535 25.7123C72.0926 25.2648 73.0284 26.4853 71.9299 27.299Z" fill="#5A5C87"/>
<path d="M74.7371 24.0848C73.8827 22.9863 69.0413 23.5559 66.885 23.8406C66.2341 23.922 66.112 23.3524 66.7223 22.9456C70.5873 20.2198 76.8933 21.0334 77.6257 21.9285C78.358 22.8235 77.4222 29.1703 73.8013 32.1809C73.2318 32.6284 72.7029 32.3843 72.947 31.7741C73.7607 29.7399 75.5914 25.2239 74.7371 24.0848Z" fill="#5A5C87"/>
<path fill-rule="evenodd" clip-rule="evenodd" d="M13.3444 20.2607C13.6292 20.4235 13.9547 20.3828 14.1988 20.1794C14.4587 19.9628 14.7904 19.6795 15.1448 19.3769C15.7887 18.827 16.5074 18.2133 17.006 17.8197C17.2908 17.6163 17.2501 17.2094 17.006 16.8839C16.9275 16.7712 16.8485 16.6613 16.7701 16.5525C16.1984 15.7581 15.6634 15.0148 15.6634 13.5478V7.9741C15.6634 7.78782 15.6644 7.60255 15.6654 7.41849C15.6772 5.27109 15.688 3.289 14.0767 1.79011C12.6935 0.447526 10.4152 0 8.66574 0C5.24826 0 1.46463 1.26121 0.650947 5.49237C0.569579 5.93989 0.895053 6.14332 1.17984 6.22468L4.638 6.59084C4.96347 6.59084 5.16689 6.26537 5.24826 5.93989C5.53305 4.47526 6.75358 3.78363 8.13684 3.78363C8.86916 3.78363 9.68284 4.06842 10.1304 4.71937C10.598 5.3668 10.5886 6.23682 10.5801 7.02019C10.579 7.1229 10.5779 7.22412 10.5779 7.32316V7.77068C10.2403 7.8104 9.88557 7.84795 9.5197 7.88669L9.51968 7.88669C7.63655 8.08604 5.45946 8.31652 3.82432 9.03189C1.58668 10.0083 0 11.9612 0 14.8904C0 18.5927 2.35968 20.4642 5.37032 20.4642C7.89274 20.4642 9.31668 19.8539 11.2695 17.8604C11.3639 17.9961 11.4498 18.1224 11.5312 18.2421L11.5316 18.2427L11.5316 18.2428C12.0112 18.9483 12.336 19.4262 13.3444 20.2607ZM61.2297 20.1794C60.9856 20.3828 60.6601 20.4235 60.3753 20.2607C59.3669 19.4262 59.0421 18.9483 58.5625 18.2427C58.481 18.1228 58.395 17.9963 58.3004 17.8604C56.3476 19.8539 54.9236 20.4642 52.4012 20.4642C49.3906 20.4642 47.0309 18.5927 47.0309 14.8904C47.0309 11.9612 48.6176 10.0083 50.8552 9.03189C52.4904 8.31652 54.6675 8.08604 56.5506 7.88669L56.5506 7.88668C56.9165 7.84795 57.2713 7.81039 57.6088 7.77068V7.32316C57.6088 7.22436 57.6099 7.12338 57.611 7.02092V7.02068V7.02044V7.02019V7.02016C57.6195 6.2368 57.6289 5.36679 57.1613 4.71937C56.7138 4.06842 55.9001 3.78363 55.1678 3.78363C53.7845 3.78363 52.564 4.47526 52.2792 5.93989C52.1978 6.26537 51.9944 6.59084 51.6689 6.59084L48.2108 6.22468C47.926 6.14332 47.6005 5.93989 47.6819 5.49237C48.4955 1.26121 52.2792 0 55.6967 0C57.4461 0 59.7244 0.447526 61.1077 1.79011C62.719 3.289 62.7081 5.27109 62.6964 7.41848V7.41901V7.41955V7.42008C62.6953 7.60362 62.6943 7.78836 62.6943 7.9741V13.5478C62.6943 15.0148 63.2293 15.7581 63.801 16.5524C63.8794 16.6613 63.9584 16.7712 64.0369 16.8839C64.281 17.2094 64.3217 17.6163 64.0369 17.8197C63.5383 18.2133 62.8196 18.8271 62.1757 19.3769C61.8213 19.6795 61.4896 19.9628 61.2297 20.1794ZM24.0037 20.22H20.4235C20.0981 20.1793 19.8133 19.9352 19.7726 19.6098V1.22051C19.7726 0.854351 20.0981 0.569562 20.4642 0.569562H23.8003C24.1665 0.569562 24.4106 0.854351 24.4513 1.17982V3.58019H24.5326C25.387 1.26119 27.0551 0.16272 29.252 0.16272C31.4896 0.16272 32.9136 1.26119 33.89 3.58019C34.7444 1.26119 36.7379 0.16272 38.8535 0.16272C40.3588 0.16272 41.9862 0.772983 43.0033 2.19693C43.9729 3.51281 43.9403 5.32975 43.9092 7.07076C43.9037 7.37522 43.8983 7.67736 43.8983 7.97409V19.6098C43.8983 19.9759 43.5728 20.2607 43.2067 20.2607H39.6672C39.301 20.22 39.0162 19.9352 39.0162 19.6098V9.84556C39.0162 9.67917 39.02 9.45811 39.0243 9.20633C39.0399 8.2884 39.0626 6.96209 38.9348 6.3874C38.6501 5.16688 37.8771 4.80072 36.8193 4.80072C35.9649 4.80072 35.0292 5.3703 34.663 6.30604C34.3291 7.15937 34.3335 8.52022 34.3369 9.5555L34.3369 9.55767C34.3372 9.65688 34.3375 9.75309 34.3375 9.84556V19.6098C34.3375 19.9759 34.0121 20.2607 33.6459 20.2607H30.0657C29.6995 20.22 29.4147 19.9352 29.4147 19.6098V9.84556C29.4147 9.64317 29.418 9.43071 29.4213 9.21219V9.21207V9.21194V9.2118V9.21167V9.21153V9.21139V9.21125C29.4513 7.2336 29.4889 4.76004 27.2178 4.76004C24.7305 4.76004 24.7336 7.51855 24.7359 9.65227L24.7361 9.84556V19.6098C24.6954 19.9352 24.4106 20.22 24.0037 20.22ZM67.007 3.82429V1.17982C67.007 0.772975 67.2918 0.52887 67.6579 0.52887H79.4563C79.8225 0.52887 80.148 0.813659 80.148 1.17982V3.41745C80.148 3.78361 79.8225 4.27182 79.2529 5.0855L73.1503 13.7919C75.4286 13.7512 77.829 14.0767 79.8632 15.2159C80.3107 15.46 80.4328 15.8668 80.4734 16.233V19.0402C80.4734 19.447 80.0666 19.8946 79.6191 19.6504C75.9982 17.7383 71.1568 17.5349 67.1697 19.6911C66.7629 19.8946 66.3153 19.4877 66.3153 19.0809V16.3957C66.3153 15.9889 66.3153 15.2566 66.7629 14.6056L73.8419 4.47524H67.6986C67.3324 4.47524 67.007 4.19045 67.007 3.82429ZM98.5371 10.5372C98.5371 4.71935 95.6485 0.16272 90.3189 0.16272C85.1113 0.16272 82.2227 4.63798 82.2634 10.3745C82.2634 16.0702 85.1113 20.6269 90.3189 20.6269C95.3637 20.6269 98.5371 16.1516 98.5371 10.5372ZM90.319 3.94629C87.6745 3.94629 87.5118 7.56718 87.5118 9.80482L87.5118 9.89939C87.5112 12.1747 87.51 16.8432 90.2783 16.8432C93.0448 16.8432 93.2076 12.9782 93.2076 10.6185C93.2076 9.0725 93.1262 7.20103 92.6787 5.73639C92.2718 4.4345 91.4582 3.94629 90.319 3.94629ZM101.833 20.22H105.413C105.779 20.22 106.104 19.9352 106.145 19.5691V9.64214C106.145 8.38093 106.226 7.28246 106.715 6.1433C107.122 5.24825 107.935 4.67867 108.79 4.67867C111.072 4.67867 111.049 7.15612 111.03 9.13645L111.03 9.13808C111.029 9.31053 111.027 9.47921 111.027 9.64214V19.6505C111.068 19.9352 111.353 20.1793 111.678 20.22H115.258C115.625 20.22 115.909 19.9759 115.95 19.6505V8.05546C115.95 6.26535 115.95 3.78361 115.014 2.31898C113.997 0.732299 112.41 0.16272 110.824 0.16272C108.342 0.16272 106.959 1.34256 105.942 3.86498H105.86V1.05777C105.779 0.772983 105.535 0.528878 105.209 0.528878H101.873C101.507 0.528878 101.222 0.813667 101.182 1.13914V19.5691C101.182 19.8946 101.466 20.1793 101.833 20.22ZM57.6089 11.4324L57.6091 11.6507C57.6111 12.941 57.6129 14.0623 56.9579 15.2567C56.3883 16.2738 55.4933 16.884 54.4762 16.884C53.0929 16.884 52.2792 15.8263 52.2792 14.2803C52.2792 11.2289 55.0051 10.6594 57.6089 10.6594V11.4324ZM10.6189 11.6507C10.6187 11.5785 10.6186 11.5057 10.6186 11.4324V10.6594C8.01484 10.6594 5.289 11.2289 5.289 14.2803C5.289 15.8263 6.10269 16.884 7.48595 16.884C8.50305 16.884 9.39811 16.2738 9.96769 15.2567C10.6227 14.0623 10.6209 12.941 10.6189 11.6507Z" fill="#5A5C87"/>
</g>
</svg>
