<svg width="111" height="44" viewBox="0 0 111 44" fill="none" xmlns="http://www.w3.org/2000/svg">
<g opacity="0.5">
<path fill-rule="evenodd" clip-rule="evenodd" d="M26.3226 8.64582C28.6888 8.64546 30.6067 6.71028 30.6067 4.32323C30.6067 1.93558 28.6881 0 26.3213 0C23.9545 0 22.0358 1.93558 22.0358 4.32323C22.036 5.46994 22.4877 6.5696 23.2917 7.38026C24.0956 8.19092 25.1859 8.64616 26.3226 8.64582ZM22.9039 33.038V10.0449H29.7378V33.038H22.9039ZM78.2492 10.0449V33.038H71.4774V10.0449H78.2492ZM31.5854 16.0578V10.0538H48.7681V16.0578H43.5748V33.0379H36.7787V16.0578H31.5854ZM67.6886 17.3748C67.6886 20.5346 66.0481 22.9841 63.4358 23.8813L70.3994 33.0379H61.7908L57.449 26.1716V33.0386H50.6158V10.0544H59.5755C62.2268 10.0544 64.3756 10.8103 65.793 12.2402C67.0518 13.5063 67.6886 15.2342 67.6886 17.3748ZM57.4496 15.6631C58.33 15.6676 59.516 15.7585 60.1304 16.3758C60.4385 16.6892 60.5888 17.1291 60.5888 17.7192C60.5888 19.1608 59.6732 19.758 57.4496 19.7754V15.6631ZM96.4837 20.6345L104.023 10.0699H95.6423L92.5127 14.9368L89.8096 10.0699H81.4523L88.4536 20.5958L79.329 33.0379H87.5969L92.4092 26.2683L96.2126 33.0379H104.402L96.4837 20.6345ZM78.606 40.922C77.8402 42.2597 76.4251 43.0837 74.8939 43.0834C72.5267 43.0831 70.608 41.1469 70.6084 38.7589C70.6087 36.3709 72.528 34.4353 74.8951 34.4357C76.4264 34.4359 77.8412 35.2602 78.6067 36.5982C79.3721 37.9361 79.3719 39.5843 78.606 40.922ZM17.2356 24.0038C16.2229 25.6969 14.2339 26.7862 12.2232 26.7862C9.3526 26.7862 7.24919 24.4366 7.24919 21.5407C7.24919 18.6461 9.35324 16.2964 12.2232 16.2964C14.2339 16.2964 16.2229 17.3858 17.2356 19.0795L20.8293 13.2135C18.6568 10.9322 15.6085 9.50427 12.2232 9.50427C5.63295 9.50427 0.290039 14.8936 0.290039 21.5407C0.290039 28.1897 5.63295 33.5791 12.2232 33.5791C15.6085 33.5791 18.6568 32.1517 20.8293 29.8705L17.2356 24.0038ZM107.743 10.0449C106.337 10.0449 105.196 11.1955 105.196 12.617C105.196 14.0353 106.337 15.184 107.743 15.184C109.149 15.184 110.29 14.0359 110.29 12.617C110.29 11.1955 109.149 10.0449 107.743 10.0449ZM107.744 14.8408C108.962 14.8408 109.95 13.8442 109.95 12.6147C109.95 11.3853 108.962 10.3886 107.744 10.3886C106.54 10.4093 105.574 11.3999 105.574 12.6147C105.574 13.8296 106.54 14.8202 107.744 14.8408ZM108.89 12.0035C108.89 12.4891 108.531 12.6484 108.206 12.6981C108.624 12.7865 108.837 13.0406 108.837 13.545C108.837 13.7404 108.853 13.9468 108.891 14.0126H108.43C108.403 13.9081 108.391 13.8152 108.391 13.6559C108.391 13.0593 108.197 12.898 107.689 12.898H107.202V14.0126H106.747V11.1882H107.689C108.29 11.1882 108.89 11.3295 108.89 12.0035ZM107.203 11.5268V12.5575H107.69C108.15 12.5575 108.397 12.3782 108.397 12.0035C108.397 11.6836 108.135 11.5268 107.69 11.5268H107.203Z" fill="#5A5C87"/>
</g>
</svg>
