<svg width="91" height="47" viewBox="0 0 91 47" fill="none" xmlns="http://www.w3.org/2000/svg">
<g opacity="0.5">
<path fill-rule="evenodd" clip-rule="evenodd" d="M90.15 0.0143982L90.1408 46.7854L69.2276 46.7865L69.2235 0L90.15 0.0143982ZM21.3612 46.779L21.3669 0.00799561L0.290039 0.00902405V46.7873L21.3612 46.779ZM44.3125 0.00875397L23.2475 0.00823975L23.2465 46.7865L44.312 46.7844L44.3125 0.00875397ZM67.3271 0.0057373L46.2073 0.00676575L46.2032 46.7866L67.3271 46.7845V0.0057373ZM34.0328 14.3615C33.244 14.3573 32.4567 14.4296 31.6818 14.5775C29.3273 15.1915 27.7949 16.2682 26.4047 18.265C24.5844 21.4593 24.54 24.6588 26.0549 27.993C27.8292 31.1673 30.5784 32.3294 34.1084 32.3346C37.2816 32.187 39.4341 31.1956 41.2881 28.5221C43.1457 25.2558 43.3389 21.7946 41.4389 18.4938C39.609 15.8785 37.1916 14.5816 34.0328 14.3615ZM77.935 21.4176L77.9432 18.6105L86.3515 18.6305L86.3567 14.6988L73.1549 14.7158L73.1528 32.0733L86.3567 32.0893L86.3536 28.1621L77.9243 28.1375V25.2218L85.0585 25.2239L85.0682 21.4351L77.935 21.4176ZM62.3235 32.1196L53.4596 23.6108L53.4745 32.08L49.0885 32.0754L49.0686 14.687L51.6604 14.6813L60.0559 23.3326L60.0779 14.67L64.4838 14.6731V32.0851L62.3235 32.1196ZM8.10534 24.3009L13.9204 32.1053L19.3785 32.1207L12.7413 23.1321L19.0507 14.5415L14.0109 14.5456L8.11914 22.3803L8.14113 14.5415L3.32928 14.5523L3.31445 32.1104L8.1084 32.1042L8.10534 24.3009ZM33.3217 18.4424C31.3542 18.8147 30.4569 19.7177 29.74 21.5643C29.4097 22.9157 29.4164 23.8639 29.7758 25.2106C30.4896 26.8829 31.2852 27.6228 33.0006 28.2147C33.9097 28.3654 34.4496 28.4014 35.3475 28.2096C36.8174 27.5498 37.3758 26.707 37.8769 25.2024C38.153 23.8608 38.1376 22.8807 37.8053 21.5519C36.935 19.3444 35.7181 18.4342 33.3217 18.4424Z" fill="#5A5C87"/>
</g>
</svg>
