<svg width="73" height="72" viewBox="0 0 73 72" fill="none" xmlns="http://www.w3.org/2000/svg">
<g opacity="0.5">
<path d="M69.9996 21.5742C71.9007 25.9679 72.9502 30.8859 72.9502 36.0004C72.9502 55.8697 56.8844 72.0004 36.9502 72.0004C17.0813 72.0004 0.950195 55.8697 0.950195 36.0004C0.950195 32.525 1.40912 29.115 2.39281 25.9021C2.39281 25.9021 5.08102 26.4922 8.09791 29.3774C8.09791 29.3774 21.0156 46.8204 36.7536 45.6397C36.7536 45.6397 31.0485 49.8369 25.737 50.0329C25.737 50.0329 28.7534 54.689 43.1801 47.3447C47.9664 44.9184 54.3274 44.2625 54.1962 44.1313C51.1798 42.2302 45.6712 42.6233 45.6712 42.6233C56.4913 40.0005 69.9996 21.5742 69.9996 21.5742V21.5742Z" fill="#5A5C87"/>
<path fill-rule="evenodd" clip-rule="evenodd" d="M36.9507 1.30403e-05C24.9831 -0.0101663 13.7961 5.9398 7.11475 15.8688C7.11475 15.8688 13.1476 16.6554 20.1641 27.1478C31.7704 44.5899 39.4424 42.623 39.4424 42.623C51.5734 41.312 55.3111 26.1641 55.3111 26.1641C57.8033 17.1807 65.8693 14.492 65.8693 14.492C59.3112 5.70511 48.754 1.30403e-05 36.9507 1.30403e-05ZM36.2938 22.0328C36.2938 22.8853 35.5725 23.5408 34.72 23.5408H31.7036C30.917 23.5408 30.1957 22.8853 30.1957 22.0328V15.8688C30.1957 15.0168 30.9165 14.3608 31.7036 14.3608H34.72C35.573 14.3608 36.2938 15.0163 36.2938 15.8688V22.0328ZM34.5264 21.9022C34.5264 22.0334 34.3294 22.23 34.1328 22.23H32.2967C32.1001 22.23 31.9689 22.0334 31.9689 21.9022V16.1318C31.9689 15.9352 32.1001 15.804 32.2967 15.804H34.1328C34.3299 15.804 34.5264 15.9352 34.5264 16.1318V21.9022ZM41.9998 23.5407H43.9018V15.9346C43.9018 15.0821 43.1805 14.4261 42.328 14.4261H39.3115C38.459 14.4261 37.8036 15.0821 37.8036 15.9346V23.5407H39.5735V19.7376H41.9998V23.5407ZM51.7045 23.672V16C51.7045 15.2128 51.049 14.492 50.1965 14.492H47.1801C46.3276 14.492 45.6721 15.2133 45.6721 16V23.6725H47.4429V19.8035H49.8692V23.6725H51.7045V23.672ZM26.5229 23.5409V16.3278C26.5229 16.3278 26.3259 15.9347 26.064 15.9996H24.6867C24.6867 15.9996 24.2932 15.9996 24.2932 16.3278V23.5409H22.4575V14.4921H27.0477C28.2937 14.5574 28.6215 16.2624 28.6215 16.2624V23.5409H26.5229Z" fill="#5A5C87"/>
<path d="M42.0652 18.2951V16.2624C42.0652 16.1312 41.8682 16 41.6721 16H39.8354C39.6384 16 39.4414 16.1312 39.4414 16.2624V18.2951H42.0652V18.2951Z" fill="#5A5C87"/>
<path d="M49.9344 18.3605V16.3278C49.9344 16.1966 49.7373 16.0654 49.6061 16.0654H47.7041C47.5081 16.0654 47.311 16.1966 47.311 16.3278V18.3605H49.9344Z" fill="#5A5C87"/>
</g>
</svg>
