<svg width="98" height="63" viewBox="0 0 98 63" fill="none" xmlns="http://www.w3.org/2000/svg">
<g opacity="0.5">
<path fill-rule="evenodd" clip-rule="evenodd" d="M2.72647 58.16L0.950195 58.2293C1.16075 60.7635 2.84967 62.2788 5.41664 62.2788C7.98474 62.2788 9.79573 60.6583 9.79573 58.5279C9.79573 56.3282 8.47641 55.343 5.78623 54.4304C5.60458 54.3672 5.42389 54.3093 5.24552 54.2521L5.2455 54.2521C4.62877 54.0543 4.03982 53.8655 3.53509 53.4977C3.07814 53.1634 2.83175 52.6176 2.83175 51.9489C2.83175 50.665 3.76469 49.767 5.22401 49.767C6.73709 49.767 7.61627 50.6292 7.82682 52.3526H9.58518C9.46198 49.8207 7.82682 48.3076 5.20609 48.3076C2.70967 48.3076 1.14395 49.7491 1.14395 51.9489C1.14395 53.1108 1.53146 54.0233 2.28744 54.6395C3.08716 55.3047 3.95206 55.5925 4.7922 55.8722L4.79221 55.8722C4.93098 55.9184 5.06907 55.9643 5.20609 56.0117C7.035 56.6279 8.02058 57.1211 8.02058 58.6152C8.02058 59.8297 7.05292 60.7098 5.45248 60.7098C3.76357 60.7109 2.74439 59.7614 2.72647 58.16ZM14.7772 62.0137H21.758V60.4302H16.5177V55.9088H21.758V54.3599H16.5177V50.1573H21.758V48.5737H14.7772V62.0137ZM28.7972 62.0137H27.0556H27.0545V48.5737H29.9216C33.0867 48.5737 34.9693 50.3675 34.9693 53.0056C34.9693 55.5565 33.0699 57.3872 30.2565 57.3872H28.7972V62.0137ZM28.7972 55.7859V50.1573H29.9048C32.0507 50.1573 33.1763 51.1426 33.1763 52.9353C33.1763 54.7302 32.0686 55.7859 30.1859 55.7859H28.7972ZM40.9176 62.0137H39.1761V48.5737H40.9176V54.2895H47.9701V48.5737H49.7105V62.0137H47.9701V55.873H40.9176V62.0137ZM61.2517 62.2799C63.2374 62.2799 64.8389 61.6614 66.1236 60.4123C67.4776 59.0926 68.1977 57.3324 68.1977 55.2926C68.1977 53.2528 67.4608 51.4769 66.1068 50.1573C64.858 48.9428 63.2217 48.3098 61.2528 48.3098C59.2828 48.3098 57.6465 48.9428 56.3988 50.1573C55.0448 51.4769 54.3056 53.2528 54.3056 55.2926C54.3056 57.3324 55.0269 59.0926 56.3809 60.4123C57.6622 61.6614 59.2805 62.2799 61.2517 62.2799ZM57.6454 59.2683C58.5772 60.2178 59.7733 60.6942 61.2338 60.6942C62.6931 60.6942 63.924 60.2178 64.8558 59.2683C65.875 58.2484 66.4025 56.8583 66.4025 55.2927C66.4025 53.7091 65.8582 52.3549 64.839 51.3171C63.9072 50.3844 62.6931 49.8934 61.2338 49.8934C59.7913 49.8934 58.5593 50.3844 57.6454 51.3171C56.6251 52.337 56.0976 53.7091 56.0976 55.2927C56.0976 56.8594 56.6251 58.2484 57.6454 59.2683ZM73.0193 62.0137H74.7609V56.5418L79.5443 62.0137H81.7428L77.0109 56.7889H77.1162C79.5264 56.7889 81.1604 55.0287 81.1604 52.6545C81.1604 50.1204 79.3662 48.5749 76.0791 48.5749H73.0193V62.0137ZM74.7609 50.1573V55.4694H76.0275C78.2081 55.4694 79.3673 54.4662 79.3673 52.706C79.3673 51.0699 78.2261 50.1573 75.938 50.1573H74.7609ZM84.6826 62.0137H86.5462L87.7424 58.8992H94.0557L95.2518 62.0137H97.2901L91.6264 48.5737H90.1671L84.6826 62.0137ZM90.5042 51.9264L88.3583 57.3145H93.424L91.3128 51.9264C91.2602 51.8045 91.1191 51.4008 90.9085 50.6817C90.6968 51.365 90.5568 51.7866 90.5042 51.9264Z" fill="#5A5C87"/>
<path fill-rule="evenodd" clip-rule="evenodd" d="M64.4662 0H33.1641V31.3073H64.4662V0ZM48.4259 20.6629C48.343 24.3478 47.7169 28.0259 47.083 30.134C47.1238 30.0558 47.1669 29.9733 47.2121 29.8869C48.2583 27.8872 50.4307 23.735 50.406 20.1664C50.3943 18.4683 50.1247 16.8553 49.882 15.4037C49.6821 14.2082 49.5006 13.1222 49.4965 12.1883C49.4842 9.25718 49.8684 3.33904 50.5482 1.17285C49.6287 2.98117 47.0315 9.78726 47.1446 12.8682C47.1766 13.7361 47.4196 14.7028 47.6858 15.7616C48.0539 17.2255 48.4661 18.8653 48.4259 20.6629Z" fill="#5A5C87"/>
</g>
</svg>
