<svg version="1.1" xmlns="http://www.w3.org/2000/svg" viewBox="0 0 1015 370" width="1015" height="370">
  <!-- svg-source:excalidraw -->
  
  <defs>
    <style>
      @font-face {
        font-family: "Virgil";
        src: url("https://excalidraw.com/Virgil.woff2");
      }
      @font-face {
        font-family: "Cascadia";
        src: url("https://excalidraw.com/Cascadia.woff2");
      }
    </style>
  </defs>
  <g stroke-linecap="round"><g transform="translate(250 210) rotate(0 100 0)"><path d="M0 0 C33.33 0, 166.67 0, 200 0 M0 0 C33.33 0, 166.67 0, 200 0" stroke="#000000" stroke-width="4" fill="none"></path></g></g><g transform="translate(455.9130434782609 177.5) rotate(0 28 25)"><text x="28" y="18" font-family="Virgil, Segoe UI Emoji" font-size="20px" fill="#000000" text-anchor="middle" style="white-space: pre;" direction="ltr">Main</text><text x="28" y="43" font-family="Virgil, Segoe UI Emoji" font-size="20px" fill="#000000" text-anchor="middle" style="white-space: pre;" direction="ltr">v0.0.1</text></g><g stroke-linecap="round" transform="translate(450 170) rotate(0 40 40)"><path d="M80 40 C80 41.9, 79.86 43.81, 79.59 45.69 C79.32 47.57, 78.91 49.45, 78.38 51.27 C77.85 53.09, 77.17 54.89, 76.39 56.62 C75.6 58.34, 74.68 60.03, 73.65 61.63 C72.62 63.22, 71.47 64.76, 70.23 66.19 C68.99 67.63, 67.63 68.99, 66.19 70.23 C64.76 71.47, 63.22 72.62, 61.63 73.65 C60.03 74.68, 58.34 75.6, 56.62 76.39 C54.89 77.17, 53.09 77.85, 51.27 78.38 C49.45 78.91, 47.57 79.32, 45.69 79.59 C43.81 79.86, 41.9 80, 40 80 C38.1 80, 36.19 79.86, 34.31 79.59 C32.43 79.32, 30.55 78.91, 28.73 78.38 C26.91 77.85, 25.11 77.17, 23.38 76.39 C21.66 75.6, 19.97 74.68, 18.37 73.65 C16.78 72.62, 15.24 71.47, 13.81 70.23 C12.37 68.99, 11.01 67.63, 9.77 66.19 C8.53 64.76, 7.38 63.22, 6.35 61.63 C5.32 60.03, 4.4 58.34, 3.61 56.62 C2.83 54.89, 2.15 53.09, 1.62 51.27 C1.09 49.45, 0.68 47.57, 0.41 45.69 C0.14 43.81, 0 41.9, 0 40 C0 38.1, 0.14 36.19, 0.41 34.31 C0.68 32.43, 1.09 30.55, 1.62 28.73 C2.15 26.91, 2.83 25.11, 3.61 23.38 C4.4 21.66, 5.32 19.97, 6.35 18.37 C7.38 16.78, 8.53 15.24, 9.77 13.81 C11.01 12.37, 12.37 11.01, 13.81 9.77 C15.24 8.53, 16.78 7.38, 18.37 6.35 C19.97 5.32, 21.66 4.4, 23.38 3.61 C25.11 2.83, 26.91 2.15, 28.73 1.62 C30.55 1.09, 32.43 0.68, 34.31 0.41 C36.19 0.14, 38.1 0, 40 0 C41.9 0, 43.81 0.14, 45.69 0.41 C47.57 0.68, 49.45 1.09, 51.27 1.62 C53.09 2.15, 54.89 2.83, 56.62 3.61 C58.34 4.4, 60.03 5.32, 61.63 6.35 C63.22 7.38, 64.76 8.53, 66.19 9.77 C67.63 11.01, 68.99 12.37, 70.23 13.81 C71.47 15.24, 72.62 16.78, 73.65 18.37 C74.68 19.97, 75.6 21.66, 76.39 23.38 C77.17 25.11, 77.85 26.91, 78.38 28.73 C78.91 30.55, 79.32 32.43, 79.59 34.31 C79.86 36.19, 79.93 39.05, 80 40 C80.07 40.95, 80.07 39.05, 80 40" stroke="#000000" stroke-width="4" fill="none"></path></g><g stroke-linecap="round"><g transform="translate(330 130) rotate(0 60 40)"><path d="M0 0 C3.33 6.67, 0 26.67, 20 40 C40 53.33, 103.33 73.33, 120 80" stroke="#000000" stroke-width="4.5" fill="none" stroke-dasharray="8 12"></path></g></g><g stroke-linecap="round" transform="translate(290 70) rotate(0 40 30)"><path d="M80 30 C80 31.56, 79.83 33.15, 79.51 34.69 C79.18 36.24, 78.69 37.78, 78.04 39.27 C77.4 40.76, 76.59 42.23, 75.64 43.62 C74.69 45.01, 73.59 46.37, 72.36 47.63 C71.13 48.9, 69.76 50.11, 68.28 51.21 C66.81 52.32, 65.2 53.35, 63.51 54.27 C61.82 55.19, 60.02 56.02, 58.16 56.73 C56.3 57.44, 54.34 58.05, 52.36 58.53 C50.38 59.02, 48.32 59.39, 46.26 59.63 C44.2 59.88, 42.09 60, 40 60 C37.91 60, 35.8 59.88, 33.74 59.63 C31.68 59.39, 29.62 59.02, 27.64 58.53 C25.66 58.05, 23.7 57.44, 21.84 56.73 C19.98 56.02, 18.18 55.19, 16.49 54.27 C14.8 53.35, 13.19 52.32, 11.72 51.21 C10.24 50.11, 8.87 48.9, 7.64 47.63 C6.41 46.37, 5.31 45.01, 4.36 43.62 C3.41 42.23, 2.6 40.76, 1.96 39.27 C1.31 37.78, 0.82 36.24, 0.49 34.69 C0.17 33.15, 0 31.56, 0 30 C0 28.44, 0.17 26.85, 0.49 25.31 C0.82 23.76, 1.31 22.22, 1.96 20.73 C2.6 19.24, 3.41 17.77, 4.36 16.38 C5.31 14.99, 6.41 13.63, 7.64 12.37 C8.87 11.1, 10.24 9.89, 11.72 8.79 C13.19 7.68, 14.8 6.65, 16.49 5.73 C18.18 4.81, 19.98 3.98, 21.84 3.27 C23.7 2.56, 25.66 1.95, 27.64 1.47 C29.62 0.98, 31.68 0.61, 33.74 0.37 C35.8 0.12, 37.91 0, 40 0 C42.09 0, 44.2 0.12, 46.26 0.37 C48.32 0.61, 50.38 0.98, 52.36 1.47 C54.34 1.95, 56.3 2.56, 58.16 3.27 C60.02 3.98, 61.82 4.81, 63.51 5.73 C65.2 6.65, 66.81 7.68, 68.28 8.79 C69.76 9.89, 71.13 11.1, 72.36 12.37 C73.59 13.63, 74.69 14.99, 75.64 16.38 C76.59 17.77, 77.4 19.24, 78.04 20.73 C78.69 22.22, 79.18 23.76, 79.51 25.31 C79.83 26.85, 79.92 29.22, 80 30 C80.08 30.78, 80.08 29.22, 80 30" stroke="#000000" stroke-width="4.5" fill="none" stroke-dasharray="8 12"></path></g><g transform="translate(302 90) rotate(0 28 10)"><text x="28" y="14" font-family="Virgil, Segoe UI Emoji" font-size="16px" fill="#000000" text-anchor="middle" style="white-space: pre;" direction="ltr">PR #2</text></g><g transform="translate(10 10) rotate(0 245 10)"><text x="245" y="16" font-family="Cascadia, Segoe UI Emoji" font-size="16px" fill="#000000" text-anchor="middle" style="white-space: pre;" direction="ltr">https://mdr-ci.staging.k6.io/docs/refs/pull/2/merge/</text></g><g stroke-linecap="round"><g transform="translate(550.8857020054013 211.24045566749126) rotate(0 59.38530488703395 -0.04256152416870762)"><path d="M-0.89 -0.12 C19.07 -0.03, 99.76 0.17, 119.66 -0.09" stroke="#000000" stroke-width="1.5" fill="none" stroke-dasharray="8 9"></path></g><g transform="translate(550.8857020054013 211.24045566749126) rotate(0 59.38530488703395 -0.04256152416870762)"><path d="M91.3 11.19 C101.72 6.46, 107.31 5.12, 120.72 1.85" stroke="#000000" stroke-width="1.5" fill="none"></path></g><g transform="translate(550.8857020054013 211.24045566749126) rotate(0 59.38530488703395 -0.04256152416870762)"><path d="M91.22 -9.34 C101.55 -8.05, 107.16 -3.38, 120.72 1.85" stroke="#000000" stroke-width="1.5" fill="none"></path></g></g><g transform="translate(710 190) rotate(0 123 10)"><text x="123" y="16" font-family="Cascadia, Segoe UI Emoji" font-size="16px" fill="#000000" text-anchor="middle" style="white-space: pre;" direction="ltr">https://staging.k6.io/docs</text></g><g transform="translate(380.8097184266385 274.2788669162112) rotate(0 100.5 12)"><text x="100.5" y="19" font-family="Cascadia, Segoe UI Emoji" font-size="20px" fill="#000000" text-anchor="middle" style="white-space: pre;" direction="ltr">(Upgrade release)</text></g><g transform="translate(445.5 310) rotate(0 32.5 25)"><text x="32.5" y="18" font-family="Virgil, Segoe UI Emoji" font-size="20px" fill="#000000" text-anchor="middle" style="white-space: pre;" direction="ltr">Main</text><text x="32.5" y="43" font-family="Virgil, Segoe UI Emoji" font-size="20px" fill="#000000" text-anchor="middle" style="white-space: pre;" direction="ltr">v0.0.2</text></g><g stroke-linecap="round"><g transform="translate(551.0842162039131 351.2684767084226) rotate(0 59.06628380622715 -0.3484384191237453)"><path d="M-1.08 0.6 C18.83 0.55, 99.05 -1.05, 119.22 -1.3" stroke="#000000" stroke-width="1.5" fill="none" stroke-dasharray="8 9"></path></g><g transform="translate(551.0842162039131 351.2684767084226) rotate(0 59.06628380622715 -0.3484384191237453)"><path d="M92.2 9.93 C99 8.37, 107.47 4.15, 119.67 0.52" stroke="#000000" stroke-width="1.5" fill="none"></path></g><g transform="translate(551.0842162039131 351.2684767084226) rotate(0 59.06628380622715 -0.3484384191237453)"><path d="M91.86 -10.59 C98.58 -6.47, 107.14 -5.01, 119.67 0.52" stroke="#000000" stroke-width="1.5" fill="none"></path></g></g><g transform="translate(708 325) rotate(0 148.5 17)"><text x="148.5" y="27" font-family="Cascadia, Segoe UI Emoji" font-size="28px" fill="#000000" text-anchor="middle" style="white-space: pre;" direction="ltr">https://k6.io/docs</text></g><g stroke-linecap="round"><g transform="translate(369.0076087389141 91.48670073962646) rotate(0 33.59048623795218 -20.164867475507663)"><path d="M0.99 -0.28 C11.28 -0.54, 52.31 6.16, 62.19 -0.9 C72.07 -7.97, 60.58 -35.78, 60.25 -42.68" stroke="#000000" stroke-width="1.5" fill="none" stroke-dasharray="8 9"></path></g><g transform="translate(369.0076087389141 91.48670073962646) rotate(0 33.59048623795218 -20.164867475507663)"><path d="M70.61 -23.87 C68.28 -32.72, 61.65 -38.54, 58.9 -44.41" stroke="#000000" stroke-width="1.5" fill="none"></path></g><g transform="translate(369.0076087389141 91.48670073962646) rotate(0 33.59048623795218 -20.164867475507663)"><path d="M57.27 -20.84 C59.45 -30.83, 57.35 -37.68, 58.9 -44.41" stroke="#000000" stroke-width="1.5" fill="none"></path></g></g></svg>