<svg xmlns="http://www.w3.org/2000/svg" width="14" height="14" fill="none"><path stroke="#9691AF" stroke-linecap="round" stroke-linejoin="round" d="M6.611 1.26a.452.452 0 0 1 .161-.19.42.42 0 0 1 .464 0c.07.046.125.111.16.19L9.01 4.692l3.616.55c.081.013.157.05.22.104a.462.462 0 0 1 .133.21.483.483 0 0 1-.112.471L10.25 8.692l.618 3.766a.481.481 0 0 1-.026.25.456.456 0 0 1-.147.2.424.424 0 0 1-.459.035l-3.232-1.776-3.238 1.78a.418.418 0 0 1-.46-.035.457.457 0 0 1-.146-.199.482.482 0 0 1-.026-.25l.618-3.766-2.618-2.664a.483.483 0 0 1 .022-.68.427.427 0 0 1 .219-.105l3.617-.55 1.62-3.439Z"/></svg>