<svg viewBox="0 0 29 28" fill="none" xmlns="http://www.w3.org/2000/svg">
    <path
        d="M26.1595 11.3888L24.6824 10.8649C24.4708 10.7897 24.2775 10.671 24.1148 10.5163C23.9521 10.3616 23.8237 10.1745 23.7379 9.96708C23.6521 9.75964 23.6108 9.53649 23.6168 9.31209C23.6227 9.08769 23.6757 8.86703 23.7723 8.66441L24.4443 7.24913C24.6895 6.7323 24.7687 6.1523 24.6713 5.58865C24.5738 5.025 24.3043 4.5053 23.8999 4.10082C23.4954 3.69635 22.9757 3.42689 22.412 3.32941C21.8484 3.23193 21.2684 3.31119 20.7515 3.55634L19.3363 4.22956C19.1335 4.32574 18.9129 4.37831 18.6885 4.38389C18.4642 4.38947 18.2412 4.34792 18.0339 4.26193C17.8266 4.17594 17.6397 4.04743 17.4852 3.88469C17.3307 3.72195 17.212 3.5286 17.1369 3.31715L16.6119 1.8412C16.4198 1.3024 16.0657 0.836221 15.5982 0.506586C15.1307 0.17695 14.5727 0 14.0007 0C13.4287 0 12.8706 0.17695 12.4031 0.506586C11.9356 0.836221 11.5816 1.3024 11.3895 1.8412L10.8644 3.31832C10.7892 3.52967 10.6704 3.72289 10.5159 3.8855C10.3613 4.04811 10.1744 4.1765 9.96712 4.26238C9.75986 4.34825 9.5369 4.3897 9.31262 4.38404C9.08835 4.37839 8.86775 4.32576 8.66508 4.22956L7.2498 3.55634C6.73298 3.31119 6.15297 3.23193 5.58932 3.32941C5.02567 3.42689 4.50597 3.69635 4.1015 4.10082C3.69702 4.5053 3.42757 5.025 3.33008 5.58865C3.2326 6.1523 3.31187 6.7323 3.55701 7.24913L4.22906 8.66441C4.32549 8.86706 4.37833 9.08769 4.38416 9.31204C4.38999 9.53639 4.34869 9.75947 4.26292 9.96686C4.17715 10.1742 4.04882 10.3613 3.88622 10.516C3.72363 10.6707 3.53039 10.7896 3.31899 10.8649L1.84187 11.39C1.30295 11.5818 0.836593 11.9357 0.506815 12.4031C0.177038 12.8705 0 13.4285 0 14.0006C0 14.5726 0.177038 15.1307 0.506815 15.5981C0.836593 16.0655 1.30295 16.4194 1.84187 16.6112L3.31899 17.1362C3.53035 17.2115 3.72357 17.3302 3.88616 17.4848C4.04875 17.6394 4.17708 17.8263 4.26286 18.0336C4.34864 18.2409 4.38995 18.4639 4.38413 18.6882C4.37831 18.9125 4.32548 19.133 4.22906 19.3356L3.55701 20.7509C3.31187 21.2677 3.2326 21.8477 3.33008 22.4114C3.42757 22.975 3.69702 23.4947 4.1015 23.8992C4.50597 24.3037 5.02567 24.5731 5.58932 24.6706C6.15297 24.7681 6.73298 24.6888 7.2498 24.4437L8.66508 23.7716C8.8677 23.675 9.08834 23.6221 9.31272 23.6163C9.5371 23.6104 9.7602 23.6518 9.96757 23.7377C10.1749 23.8236 10.3619 23.9522 10.5164 24.115C10.6709 24.2778 10.7895 24.4713 10.8644 24.6828L11.3895 26.1588C11.5816 26.6976 11.9356 27.1638 12.4031 27.4934C12.8706 27.823 13.4287 28 14.0007 28C14.5727 28 15.1307 27.823 15.5982 27.4934C16.0657 27.1638 16.4198 26.6976 16.6119 26.1588L17.1369 24.6817C17.2121 24.4703 17.3309 24.2771 17.4855 24.1145C17.64 23.9519 17.827 23.8236 18.0343 23.7378C18.2416 23.652 18.4646 23.6107 18.6889 23.6165C18.9131 23.6224 19.1337 23.6752 19.3363 23.7716L20.7515 24.4437C21.2684 24.6888 21.8484 24.7681 22.412 24.6706C22.9757 24.5731 23.4954 24.3037 23.8999 23.8992C24.3043 23.4947 24.5738 22.975 24.6713 22.4114C24.7687 21.8477 24.6895 21.2677 24.4443 20.7509L23.7723 19.3356C23.6759 19.133 23.623 18.9125 23.6172 18.6882C23.6114 18.4639 23.6527 18.2409 23.7385 18.0336C23.8243 17.8263 23.9526 17.6394 24.1152 17.4848C24.2778 17.3302 24.471 17.2115 24.6824 17.1362L26.1595 16.61C26.6984 16.4182 27.1648 16.0643 27.4945 15.5969C27.8243 15.1295 28.0013 14.5715 28.0013 13.9994C28.0013 13.4274 27.8243 12.8693 27.4945 12.4019C27.1648 11.9345 26.6984 11.5806 26.1595 11.3888ZM14.0007 19.5818C12.8987 19.5658 11.8245 19.2336 10.9059 18.6246C9.98727 18.0156 9.26295 17.1556 8.81909 16.1468C8.25155 14.7726 8.25219 13.2293 8.82087 11.8555C9.38955 10.4817 10.4799 9.38949 11.8527 8.81842C13.2285 8.26819 14.7649 8.27744 16.1341 8.84419C17.5032 9.41094 18.5967 10.4903 19.1811 11.852C19.7486 13.2263 19.748 14.7695 19.1793 16.1433C18.6106 17.5171 17.5203 18.6093 16.1475 19.1804C15.4671 19.4603 14.7363 19.5969 14.0007 19.5818Z"
        fill="#3C3C64" />
</svg>