<svg width="60" height="60" viewBox="0 0 60 60" fill="none" xmlns="http://www.w3.org/2000/svg">
<path d="M53 7H7V53H53V7Z" fill="url(#paint0_linear)"/>
<path d="M26.3243 36.4398H19.5777C18.8952 36.4266 18.2293 36.2273 17.6518 35.8633C16.7222 35.2938 15.9579 34.4908 15.4349 33.5342C14.9119 32.5776 14.6486 31.5007 14.671 30.4107C14.6086 29.162 14.9678 27.9286 15.6908 26.9085C16.4139 25.8885 17.4588 25.1411 18.6577 24.7865C18.6577 24.627 18.6577 24.4675 18.6577 24.3081C18.6913 22.7498 19.1577 21.2315 20.0047 19.9231C20.8517 18.6147 22.046 17.5676 23.4539 16.899C24.9673 16.2295 26.6502 16.0428 28.2735 16.3643C29.8967 16.6859 31.3814 17.5001 32.5251 18.6961C33.294 19.4791 33.9171 20.3929 34.3651 21.3947C35.0043 20.8789 35.8008 20.5975 36.6222 20.5974C38.2905 20.5974 40.1673 21.8609 40.5107 24.6331C42.087 25.0073 45.3254 26.2953 45.3254 30.4659C45.379 31.5104 45.1348 32.5486 44.6211 33.4596C44.1075 34.3706 43.3457 35.117 42.4243 35.6118L41.811 34.5385C42.5373 34.1456 43.1366 33.5539 43.5386 32.8326C43.9405 32.1112 44.1284 31.2903 44.0803 30.4659C44.0803 26.8595 41.0934 25.9641 39.787 25.7433C39.7068 25.729 39.6302 25.6988 39.5617 25.6546C39.4933 25.6104 39.4343 25.5529 39.3883 25.4857C39.2984 25.3572 39.2611 25.1992 39.2841 25.0441C39.1062 22.8177 37.8059 21.8241 36.5854 21.8241C36.1967 21.8275 35.8144 21.9233 35.4699 22.1035C35.1255 22.2837 34.8288 22.5432 34.6043 22.8606C34.5386 22.9505 34.4497 23.0209 34.3471 23.0641C34.2444 23.1073 34.1319 23.1218 34.0217 23.1059C33.9118 23.0887 33.8087 23.042 33.7233 22.9707C33.638 22.8994 33.5736 22.8062 33.5371 22.7011C33.1372 21.5239 32.4792 20.451 31.6113 19.5609C30.6409 18.5539 29.3853 17.8683 28.0136 17.5963C26.6418 17.3244 25.2196 17.4792 23.9385 18.0398C22.757 18.6145 21.755 19.5009 21.0405 20.6034C20.326 21.7059 19.9263 22.9827 19.8843 24.2958C19.8849 24.5786 19.9012 24.8612 19.9334 25.1422C19.9533 25.2977 19.9128 25.4548 19.8205 25.5814C19.7281 25.708 19.5907 25.7945 19.4366 25.823C18.394 26.0361 17.4627 26.6164 16.812 27.4584C16.1614 28.3005 15.8347 29.3481 15.8915 30.4107C15.8658 31.2944 16.0754 32.169 16.499 32.945C16.9225 33.721 17.5448 34.3704 18.3019 34.8267C18.6834 35.0708 19.1249 35.2045 19.5777 35.2131H26.3243V36.4398Z" fill="white"/>
<path d="M44.6547 40.1201L40.3 35.7471C40.9244 34.3445 41.0329 32.7664 40.6062 31.2916C40.1795 29.8168 39.2451 28.5404 37.9682 27.688C36.6913 26.8356 35.1542 26.4621 33.6285 26.6335C32.1028 26.8049 30.6869 27.5102 29.631 28.6248C28.5751 29.7393 27.9473 31.1913 27.8585 32.724C27.7698 34.2567 28.2258 35.7714 29.1459 37.0004C30.066 38.2294 31.3911 39.0935 32.8868 39.4399C34.3824 39.7863 35.9524 39.5928 37.3192 38.8935L41.6125 43.1868C42.0222 43.5864 42.5737 43.807 43.1459 43.8001C43.4283 43.8041 43.7088 43.7519 43.971 43.6466C44.2331 43.5413 44.4718 43.385 44.6731 43.1868C44.8744 42.9849 45.0337 42.7451 45.1418 42.4812C45.2499 42.2174 45.3047 41.9348 45.303 41.6496C45.3013 41.3645 45.2431 41.0826 45.1318 40.82C45.0205 40.5575 44.8584 40.3196 44.6547 40.1201ZM34.3568 38.3844C33.3148 38.3844 32.2962 38.0754 31.4298 37.4965C30.5634 36.9176 29.8881 36.0948 29.4893 35.1321C29.0905 34.1694 28.9862 33.11 29.1895 32.088C29.3928 31.066 29.8946 30.1273 30.6314 29.3905C31.3682 28.6536 32.307 28.1519 33.329 27.9486C34.351 27.7453 35.4103 27.8496 36.373 28.2484C37.3357 28.6471 38.1585 29.3224 38.7374 30.1888C39.3163 31.0552 39.6253 32.0739 39.6253 33.1159C39.6253 34.5132 39.0703 35.8533 38.0822 36.8413C37.0942 37.8293 35.7541 38.3844 34.3568 38.3844ZM43.8021 42.2975C43.6233 42.467 43.3862 42.5615 43.1397 42.5615C42.8933 42.5615 42.6562 42.467 42.4773 42.2975L38.3925 38.2127C38.8913 37.8214 39.3295 37.3584 39.6928 36.8388L43.8021 40.9727C43.9759 41.1493 44.0733 41.3872 44.0733 41.6351C44.0733 41.8829 43.9759 42.1208 43.8021 42.2975Z" fill="white"/>
<path d="M36.0435 30.2636L35.3137 31.251C34.9854 31.0078 34.5923 30.8673 34.1842 30.8474C33.7761 30.8274 33.3713 30.9288 33.0208 31.1389C32.6703 31.3489 32.3899 31.6581 32.2151 32.0274C32.0403 32.3967 31.9788 32.8095 32.0385 33.2137C32.0725 33.4882 32.1624 33.7529 32.3027 33.9913C32.443 34.2297 32.6307 34.4368 32.8542 34.5998L32.1489 35.5566C31.4647 35.0304 31.0145 34.2567 30.895 33.402C30.7755 32.5472 30.9963 31.6797 31.5099 30.986C32.0235 30.2924 32.7889 29.8281 33.6413 29.693C34.4937 29.5579 35.3652 29.7627 36.0681 30.2636H36.0435Z" fill="white"/>
<defs>
<linearGradient id="paint0_linear" x1="-2.52507" y1="62.5251" x2="62.5251" y2="-2.52507" gradientUnits="userSpaceOnUse">
<stop stop-color="#B0084D"/>
<stop offset="1" stop-color="#FF4F8B"/>
</linearGradient>
</defs>
</svg>
