<svg width="60" height="60" viewBox="0 0 60 60" fill="none" xmlns="http://www.w3.org/2000/svg">
<path d="M24.7531 7.31213C24.1542 6.69856 23.3221 6.32171 22.3957 6.32171C21.959 6.31994 21.5265 6.40679 21.1242 6.57701C20.722 6.74723 20.3583 6.9973 20.0552 7.31213H20.0393C19.7267 7.62751 19.4794 8.00159 19.3115 8.41292C19.1436 8.82425 19.0585 9.26472 19.0609 9.70908C19.0548 10.6028 19.4028 11.4625 20.0287 12.0997L20.0446 12.1167C20.349 12.4291 20.7131 12.6768 21.1152 12.8452C21.5174 13.0135 21.9492 13.099 22.3851 13.0965C23.3115 13.0965 24.1425 12.7249 24.7425 12.1167L24.7488 12.0997C25.3488 11.4967 25.7028 10.6528 25.7028 9.70908C25.7086 8.81425 25.3616 7.95327 24.7372 7.31319H24.7425L24.7531 7.31213ZM22.3957 53.6801C23.3221 53.6801 24.1531 53.2959 24.7531 52.6929L24.7594 52.6759C25.3594 52.0751 25.7134 51.2259 25.7134 50.2928C25.7134 49.3374 25.3477 48.503 24.7594 47.8916H24.7531C24.1542 47.2727 23.3221 46.898 22.3957 46.898C21.9586 46.8954 21.5255 46.9821 21.1231 47.153C20.7207 47.3238 20.3573 47.5752 20.0552 47.8916H20.0393C19.4148 48.5339 19.0672 49.3962 19.0715 50.2928C19.0674 51.1839 19.4153 52.0406 20.0393 52.6759L20.0552 52.6929C20.3601 53.005 20.7242 53.253 21.1261 53.4224C21.528 53.5917 21.9596 53.68 22.3957 53.6801ZM40.5045 43.4182C40.93 43.3052 41.3284 43.1077 41.6762 42.8374C42.024 42.5672 42.314 42.2297 42.5291 41.845L42.5905 41.7261C42.9831 40.9706 43.077 40.0947 42.8534 39.2729C42.6351 38.4279 42.1114 37.6785 41.3037 37.2135L41.2571 37.1817C40.505 36.7568 39.6154 36.6476 38.7831 36.8781C37.9563 37.0883 37.2143 37.6498 36.7606 38.4566C36.3196 39.2386 36.1995 40.1617 36.4257 41.0308C36.6542 41.8937 37.2098 42.6333 37.9743 43.0923H37.9796C38.7746 43.5594 39.6724 43.6412 40.5055 43.4108L40.5045 43.4182ZM25.795 26.5398C24.9227 25.6534 23.7175 25.0961 22.3861 25.0961C21.7516 25.0972 21.1237 25.2255 20.5393 25.4732C19.955 25.721 19.4261 26.0832 18.9836 26.5387C18.1144 27.424 17.5801 28.6459 17.5801 30.0046C17.5765 31.3038 18.0802 32.553 18.9836 33.4854C19.8528 34.3665 21.0548 34.9185 22.3755 34.9185C23.6963 34.9185 24.9121 34.3665 25.7844 33.4854C26.6889 32.5531 27.1933 31.3034 27.19 30.0036C27.196 28.7079 26.6908 27.4623 25.7844 26.5377L25.795 26.5398ZM23.8871 20.7671C25.7902 21.0901 27.5412 22.0119 28.886 23.3987H28.8966C29.1104 23.6173 29.3131 23.8465 29.5039 24.0855L32.8217 22.1291C32.3852 20.7827 32.3476 19.3384 32.7136 17.971C33.1863 16.1664 34.3354 14.5529 36.0547 13.5412L36.1108 13.5051C36.9165 13.0364 37.8072 12.7328 38.731 12.612C39.6549 12.4912 40.5936 12.5555 41.4924 12.8013C42.4051 13.0516 43.2592 13.4807 44.0052 14.0638C44.7512 14.6469 45.3742 15.3724 45.8383 16.1983V16.2036C46.8263 17.9445 47.0255 19.9423 46.556 21.7406C46.0853 23.5452 44.9342 25.1693 43.2149 26.1757L42.7612 26.4485H42.7156C41.1774 27.1938 39.4222 27.3577 37.7729 26.9103C36.429 26.5407 35.2218 25.7866 34.2993 24.7405L30.9858 26.6905C31.3796 27.7471 31.5799 28.8662 31.5773 29.994C31.5773 31.1575 31.3674 32.2806 30.9858 33.3124L34.2993 35.2582C35.2459 34.1775 36.4553 33.4536 37.7729 33.0873C39.5431 32.5948 41.5019 32.8039 43.2149 33.8219L43.3251 33.875V33.8803C44.9278 34.8677 46.0858 36.4388 46.556 38.2634C47.0465 40.1304 46.789 42.1156 45.8383 43.7951L45.779 43.9172H45.7716C44.8239 45.5319 43.2882 46.716 41.4871 47.2207C39.7169 47.6962 37.7559 47.4935 36.0441 46.4903V46.4765C34.388 45.5009 33.1863 43.9069 32.703 42.0446C32.3365 40.6795 32.374 39.2371 32.8111 37.8929L29.4933 35.9418C29.3021 36.177 29.0994 36.4027 28.886 36.618L28.8754 36.6286C27.5483 37.9874 25.8014 38.9322 23.8765 39.2453V43.1518C25.2381 43.446 26.4831 44.1353 27.456 45.1337L27.4613 45.1443C28.7577 46.4585 29.5601 48.2907 29.5601 50.3034C29.5635 52.2291 28.8095 54.0787 27.4613 55.4518L27.456 55.4731C26.1523 56.783 24.3609 57.6004 22.3861 57.6004C20.4209 57.6004 18.6253 56.783 17.3236 55.4614H17.3183V55.4402C15.9687 54.0673 15.2135 52.2172 15.2164 50.2906C15.2164 48.2769 16.022 46.4457 17.3183 45.1316V45.1209H17.3236C18.2914 44.1175 19.537 43.4272 20.9 43.1391V39.2326C18.9655 38.9184 17.2325 37.9747 15.9181 36.6159L15.9043 36.6053C14.1715 34.8426 13.2 32.4686 13.1992 29.9951C13.1992 27.4155 14.2359 25.0823 15.8916 23.3891H15.9054C17.2479 22.0021 18.9972 21.0802 20.899 20.7576V16.867C19.5405 16.5638 18.2985 15.8737 17.3226 14.8798H17.3173V14.8692C15.967 13.4924 15.212 11.6389 15.2153 9.70908C15.2134 7.7799 15.9682 5.92716 17.3173 4.55001L17.3332 4.5447C17.9895 3.86708 18.7748 3.32818 19.6427 2.95986C20.5106 2.59155 21.4435 2.4013 22.3861 2.40039C24.3619 2.40039 26.1523 3.21778 27.4571 4.5447V4.55001H27.4624C28.7588 5.87162 29.5612 7.70596 29.5612 9.70908C29.5628 11.6376 28.8093 13.4899 27.4624 14.8682L27.4571 14.8788C26.4904 15.8596 25.2566 16.5613 23.8775 16.866V20.7565L23.8871 20.7671ZM42.5269 18.1717L42.4994 18.1292C42.0596 17.376 41.3434 16.8248 40.5034 16.5932C40.0805 16.4767 39.6385 16.4464 39.2037 16.5042C38.7689 16.562 38.3501 16.7067 37.9722 16.9297H37.9775C37.1804 17.3904 36.6472 18.1451 36.4235 18.9891C36.1951 19.858 36.3154 20.782 36.7585 21.5633L36.7733 21.5845C37.2323 22.3807 37.9637 22.9167 38.7799 23.1322C39.5993 23.3679 40.514 23.2681 41.3005 22.801L41.3429 22.7798C42.1167 22.3085 42.6361 21.5633 42.8502 20.7459C43.0697 19.902 42.9827 18.9795 42.5269 18.1717Z" fill="#262626"/>
</svg>
