<?xml version="1.0" encoding="UTF-8"?>
<svg xmlns="http://www.w3.org/2000/svg" xmlns:xlink="http://www.w3.org/1999/xlink" width="64px" height="74px" viewBox="0 0 64 74" version="1.1">
<defs>
<linearGradient id="linear0" gradientUnits="userSpaceOnUse" x1="0.500159" y1="-0.982987" x2="0.500159" y2="0.382168" gradientTransform="matrix(31.632812,0,0,31.867188,0.300781,41.972656)">
<stop offset="0" style="stop-color:rgb(0%,32.156863%,80%);stop-opacity:1;"/>
<stop offset="1" style="stop-color:rgb(14.901961%,51.764706%,100%);stop-opacity:1;"/>
</linearGradient>
<linearGradient id="linear1" gradientUnits="userSpaceOnUse" x1="0.500157" y1="0.00763359" x2="0.500157" y2="1.385814" gradientTransform="matrix(31.933594,0,0,31.5625,0,10.410156)">
<stop offset="0" style="stop-color:rgb(0%,32.156863%,80%);stop-opacity:1;"/>
<stop offset="1" style="stop-color:rgb(14.901961%,51.764706%,100%);stop-opacity:1;"/>
</linearGradient>
</defs>
<g id="surface1">
<path style=" stroke:none;fill-rule:nonzero;fill:rgb(14.901961%,51.764706%,100%);fill-opacity:1;" d="M 61.800781 41.972656 L 46.453125 41.972656 C 45.449219 41.960938 44.59375 42.691406 44.445312 43.679688 C 43.570312 49.917969 38.234375 54.558594 31.933594 54.554688 L 36.089844 73.539062 C 51.148438 71.570312 62.738281 59.269531 63.808594 44.121094 C 63.847656 43.566406 63.652344 43.019531 63.273438 42.609375 C 62.890625 42.203125 62.359375 41.972656 61.800781 41.972656 Z M 61.800781 41.972656 "/>
<path style=" stroke:none;fill-rule:nonzero;fill:rgb(14.901961%,51.764706%,100%);fill-opacity:1;" d="M 35.238281 41.492188 L 57.324219 22.507812 C 57.757812 22.125 58.003906 21.578125 58.003906 21.003906 C 58.003906 20.425781 57.757812 19.878906 57.324219 19.496094 L 35.238281 0.480469 C 34.640625 -0.0195312 33.808594 -0.132812 33.101562 0.195312 C 32.390625 0.519531 31.9375 1.226562 31.933594 2.007812 L 31.933594 39.964844 C 31.9375 40.746094 32.390625 41.453125 33.101562 41.78125 C 33.808594 42.109375 34.640625 41.996094 35.238281 41.492188 Z M 35.238281 41.492188 "/>
<path style=" stroke:none;fill-rule:nonzero;fill:url(#linear0);" d="M 0.300781 46.121094 C 2.414062 61.980469 15.9375 73.828125 31.933594 73.839844 L 31.933594 54.554688 C 24.984375 54.554688 19.34375 48.925781 19.324219 41.972656 Z M 0.300781 46.121094 "/>
<path style=" stroke:none;fill-rule:nonzero;fill:url(#linear1);" d="M 0 41.671875 L 0 41.972656 L 19.324219 41.972656 C 19.34375 35.023438 24.984375 29.394531 31.933594 29.394531 L 27.789062 10.410156 C 12.035156 12.464844 0.191406 25.789062 0 41.671875 "/>
</g>
</svg>
