<?xml version="1.0" encoding="UTF-8" standalone="no"?>
<svg
   xmlns:dc="http://purl.org/dc/elements/1.1/"
   xmlns:cc="http://creativecommons.org/ns#"
   xmlns:rdf="http://www.w3.org/1999/02/22-rdf-syntax-ns#"
   xmlns:svg="http://www.w3.org/2000/svg"
   xmlns="http://www.w3.org/2000/svg"
   id="svg22"
   version="1.1"
   viewBox="0 0 75 75">
  <metadata
     id="metadata26">
    <rdf:RDF>
      <cc:Work
         rdf:about="">
        <dc:format>image/svg+xml</dc:format>
        <dc:type
           rdf:resource="http://purl.org/dc/dcmitype/StillImage" />
        <dc:title>Amazon-CloudWatch</dc:title>
      </cc:Work>
    </rdf:RDF>
  </metadata>
  <defs
     id="defs9">
    <style
       id="style2">.cls-1{fill:url(#PinkGradient);}.cls-2{fill:#fff;}</style>
    <linearGradient
       gradientUnits="userSpaceOnUse"
       gradientTransform="translate(659 708) rotate(-90)"
       y2="-568.47"
       x2="723.53"
       y1="-674.53"
       x1="617.47"
       id="PinkGradient">
      <stop
         id="stop4"
         stop-color="#b0084d"
         offset="0" />
      <stop
         id="stop6"
         stop-color="#ff4f8b"
         offset="1" />
    </linearGradient>
  </defs>
  <title
     id="title11">Amazon-CloudWatch</title>
  <g
     id="Reference">
    <rect
       height="75"
       width="75"
       class="cls-1"
       data-name="Pink Gradient"
       id="Pink_Gradient" />
    <g
       data-name="Icon Test"
       id="Icon_Test">
      <path
         id="path14"
         d="M31.5,48h-11a6.11,6.11,0,0,1-3.14-.94,10.18,10.18,0,0,1-4.86-8.89A9.09,9.09,0,0,1,19,29c0-.26,0-.52,0-.78a13.7,13.7,0,0,1,7.82-12.08,13.12,13.12,0,0,1,14.79,2.93,15.05,15.05,0,0,1,3,4.4,5.86,5.86,0,0,1,3.68-1.3c2.72,0,5.78,2.06,6.34,6.58,2.57.61,7.85,2.71,7.85,9.51a9,9,0,0,1-4.73,8.39l-1-1.75a7.08,7.08,0,0,0,3.7-6.64c0-5.88-4.87-7.34-7-7.7a1,1,0,0,1-.65-.42,1,1,0,0,1-.17-.72c-.29-3.63-2.41-5.25-4.4-5.25a4,4,0,0,0-3.23,1.69,1,1,0,0,1-.95.4,1,1,0,0,1-.79-.66,13.6,13.6,0,0,0-3.14-5.12A11.16,11.16,0,0,0,27.61,18,11.76,11.76,0,0,0,21,28.2a12.34,12.34,0,0,0,.08,1.38,1,1,0,0,1-.81,1.11,7.24,7.24,0,0,0-5.78,7.48,8.13,8.13,0,0,0,3.93,7.2A4,4,0,0,0,20.5,46h11Z"
         class="cls-2" />
      <path
         id="path16"
         d="M61.39,54l-7.1-7.13A10.61,10.61,0,1,0,49.43,52l7,7a3.52,3.52,0,0,0,2.5,1,3.48,3.48,0,0,0,2.49-1A3.52,3.52,0,0,0,61.39,54ZM44.6,51.17a8.59,8.59,0,1,1,8.59-8.59A8.59,8.59,0,0,1,44.6,51.17ZM60,57.55a1.57,1.57,0,0,1-2.16,0l-6.66-6.66a10.48,10.48,0,0,0,2.12-2.24L60,55.39A1.54,1.54,0,0,1,60,57.55Z"
         class="cls-2" />
      <path
         id="path18"
         d="M47.35,37.93l-1.19,1.61a3.37,3.37,0,0,0-5.34,3.2A3.3,3.3,0,0,0,42.15,45L41,46.56a5.37,5.37,0,0,1,6.39-8.63Z"
         class="cls-2" />
    </g>
  </g>
</svg>
