<svg width="60" height="60" viewBox="0 0 60 60" fill="none" xmlns="http://www.w3.org/2000/svg">
<path d="M50.0839 21.1631L44.8492 38.4223C44.7973 38.5778 44.7455 38.6296 44.59 38.6814L40.7028 39.0443C40.5991 39.0443 40.4955 38.9924 40.4955 38.8369L36.4528 22.4588C36.3491 22.2515 36.5046 22.0442 36.7119 22.0442L39.9772 21.7332C40.1327 21.7332 40.2363 21.785 40.2363 21.9405L42.9833 35.0015L46.6114 21.3704C46.6632 21.2149 46.715 21.1112 46.9223 21.1112L49.8766 20.8521C49.9803 20.8521 50.1358 21.0076 50.0839 21.1631ZM35.2607 23.3399L34.1204 25.6204C34.0686 25.7759 33.9131 25.8796 33.7058 25.8277C32.8247 25.5167 31.9436 25.4131 30.8552 25.5167C29.404 25.6204 28.6265 26.346 28.7302 27.6936C28.782 28.2637 29.0412 28.782 31.3735 29.5594C34.2241 30.596 34.8979 31.9436 35.0534 33.5503C35.4162 37.6449 32.6692 39.8735 29.1966 40.1845C27.3308 40.34 25.8277 40.2882 24.3247 39.6144C24.221 39.5625 24.1173 39.4589 24.1692 39.3552L25.3094 36.7638C25.4131 36.5564 25.4649 36.5046 25.7241 36.5564C26.657 36.9192 27.4344 37.1784 28.9893 37.0747C30.3369 36.9711 31.3217 36.2455 31.218 34.8461C31.1662 34.2241 30.8552 33.7058 28.6783 32.8765C25.8796 31.8399 24.9984 30.4405 24.843 28.5747C24.532 25.1021 26.968 22.7179 30.3369 22.407C32.4619 22.1997 33.4467 22.3033 35.1052 22.9253C35.3125 22.9771 35.3125 23.1326 35.2607 23.3399ZM23.0808 24.532L21.9405 26.7607C21.8887 26.8643 21.8368 26.968 21.7332 26.968C21.6814 26.968 21.5777 26.968 21.5259 26.9161C20.6448 26.5533 19.8673 26.4497 18.8307 26.5015C16.9649 26.657 14.1661 28.7302 14.6325 33.7576C14.8917 36.6083 16.4984 38.0077 18.4679 37.8003C19.2454 37.7485 20.1265 37.5412 21.1631 36.9192C21.3704 36.8156 21.474 36.8674 21.5777 36.9711L22.6143 39.0961C22.718 39.3034 22.6661 39.4589 22.4588 39.6144C21.1112 40.5473 19.8673 40.8583 18.0533 41.0138C13.9588 41.3766 11.3155 39.0443 10.9526 34.6387C10.3307 27.7972 14.0106 23.8582 18.6752 23.4436C20.5929 23.2881 21.785 23.3917 22.9771 24.0655C23.1844 24.1173 23.1844 24.3247 23.0808 24.532ZM53.7638 7.79105L10.4344 4.00749C9.08678 3.90383 7.94653 4.88859 7.79105 6.18433L4.00749 49.5656C3.90383 50.9132 4.88859 52.0535 6.18433 52.209L49.5656 55.9925C50.9132 56.0962 52.0535 55.1114 52.209 53.8157L55.9925 10.4344C56.0962 9.08678 55.1114 7.8947 53.7638 7.79105Z" fill="#F58220"/>
</svg>
