<svg width="60" height="60" viewBox="0 0 60 60" fill="none" xmlns="http://www.w3.org/2000/svg">
<path d="M53.0894 31.5455L54.5039 49.6359L29.4592 54.1377L27.2958 36.0472L30.8737 35.547C31.4561 35.7971 31.8721 35.8805 32.5378 36.0472C33.6194 36.2973 34.8675 36.6308 36.698 35.6304C37.114 35.3803 38.0293 34.63 38.3621 34.1298L53.0894 31.5455ZM14.3991 53.0539C13.9831 52.387 13.2342 51.6367 12.0693 50.7197C10.4052 49.3858 10.9877 47.0516 11.9861 45.6343C13.2342 43.2167 19.8074 40.0488 19.4746 36.1306C19.3082 34.7134 19.1418 32.8793 17.8105 31.5455C17.7621 31.8772 17.7621 32.2141 17.8105 32.5459C17.8105 32.5459 17.228 31.8789 16.9784 30.8785C16.7288 30.5451 16.4792 30.3783 16.2296 29.8781C16.0632 30.4617 16.0632 31.0453 16.0632 31.0453C16.0632 31.0453 15.6471 29.9615 15.5639 29.1278C15.3143 29.5447 15.2311 30.295 15.2311 30.295C15.2311 30.295 14.6487 28.6276 14.8151 27.7106C14.5655 26.9603 13.7334 25.3764 13.9831 21.875C15.3975 22.8754 18.5593 22.6253 19.8074 20.7912C20.2234 20.2077 20.473 18.5403 19.641 15.2891C19.0586 13.2049 17.6441 10.1204 17.0616 8.95324L16.9784 9.03661C17.3112 9.95364 17.8937 11.9544 18.1433 12.9548C18.8089 15.8726 19.0586 16.873 18.7257 18.2069C18.4761 19.374 17.8105 20.1243 16.0632 20.958C14.3991 21.7916 12.0693 19.7075 11.9861 19.6241C10.322 18.2902 9.07396 16.1227 8.90755 15.1223C8.74114 13.9552 9.57319 13.2883 9.98921 12.3713C9.40678 12.538 8.74114 12.8715 8.74114 12.8715C8.74114 12.8715 9.48998 12.0378 10.4884 11.3709C10.9045 11.1208 11.1541 10.954 11.5701 10.6206H10.4884C10.4884 10.6206 11.4869 10.037 12.5686 9.70354H11.0709L15.0647 7.95285C16.3128 7.45265 17.4777 7.61939 18.1433 8.53641C19.0586 9.78691 19.9738 10.4538 21.8875 10.954C23.0524 10.4538 23.4684 10.1204 24.9661 9.70354C26.2974 8.20295 27.379 8.03622 27.379 8.03622C27.379 8.03622 26.6302 8.70315 26.547 9.45344C27.2958 8.86988 28.1279 8.36968 28.1279 8.36968C28.1279 8.36968 27.7951 8.78651 27.5455 9.37007L27.6287 9.45344C28.5439 8.95324 29.5424 8.53641 29.5424 8.53641C29.5424 8.53641 29.2096 8.86988 28.8767 9.37007C29.5424 9.37007 30.8737 9.37007 31.3729 9.45344C34.4515 9.53681 35.1171 6.20216 36.282 5.70197C37.7797 5.20177 38.4453 4.8683 40.9415 7.36929C43.1048 9.53681 44.7689 13.2883 43.9368 14.1219C43.2712 14.7889 41.8567 13.8718 40.2758 11.9544C39.4438 10.954 38.8613 9.70354 38.5285 8.20295C38.3621 6.95246 37.4468 6.20216 37.4468 6.20216C37.4468 6.20216 38.0293 7.45265 38.0293 8.53641C38.0293 9.11998 38.1125 11.2875 39.0277 12.538C38.9445 12.7047 38.8613 13.455 38.7781 13.5384C37.6965 12.2045 35.2835 11.2875 34.9507 10.954C36.282 12.0378 39.2773 14.4554 40.4422 16.7897C41.5239 19.0405 40.8582 21.0413 41.4407 21.5415C41.6071 21.7083 43.7704 24.376 44.1864 25.7932C44.9353 28.2108 44.2696 30.7118 43.2712 32.2124L40.6086 32.6292C40.1926 32.5459 39.943 32.4625 39.6102 32.2958C39.7766 31.9623 40.1926 31.1286 40.1926 30.9619L40.0262 30.7118C39.1941 31.8789 37.7797 33.0461 36.6148 33.713C35.1171 34.5466 33.3698 34.4633 32.2049 34.0464C28.9599 33.0461 25.8814 30.8785 25.2157 30.295C25.2157 30.295 25.2157 30.7118 25.2989 30.8785C26.131 31.7956 27.9615 33.4629 29.792 34.63L25.9646 35.0468L27.7951 49.2191C26.963 49.3024 26.8798 49.3858 25.9646 49.5525C25.2157 46.8015 23.718 45.0508 22.0539 43.967C20.6394 43.05 18.6425 42.7999 16.7288 43.2167L16.6456 43.3834C17.9769 43.2167 19.5578 43.4668 21.1387 44.4672C22.7196 45.4676 23.9676 48.052 24.4669 49.5525C25.0493 51.5533 25.4653 53.6375 23.8844 55.8884C22.7196 57.4723 19.3914 58.3894 16.7288 56.4719C17.4777 57.6391 18.3929 58.5561 19.7242 58.7228C21.6379 58.9729 23.4684 58.6394 24.7997 57.389C25.8814 56.3052 26.4638 53.9709 26.2974 51.47L28.0447 51.2199L28.6271 55.6383L57 52.2203L54.5039 29.5447L53.0894 29.7948L50.2604 1.2002L3 6.70236L8.82435 53.8876L14.3991 53.0539Z" fill="#592D86"/>
<path d="M36.8669 28.252C38.1147 29.1686 39.196 29.7384 40.2789 29.6691C40.9448 29.5865 41.6108 28.5014 42.0262 27.5022C42.3591 26.835 42.3591 26.0852 41.8613 25.8507C41.6141 25.7681 40.6135 25.7681 39.8833 25.8507C38.469 26.0159 37.0548 26.5179 36.7218 26.7673C36.2224 27.1009 36.4746 27.9349 36.8866 28.2537L36.8669 28.252ZM37.2163 18.4832V18.5658L37.2987 18.731C37.6317 19.3982 37.9647 20.0654 38.6306 20.3825C38.7954 20.3825 38.9635 20.2999 39.13 20.2999C39.5252 20.2881 39.9194 20.3445 40.2954 20.4667V19.9663C40.213 19.1323 40.4602 17.6327 38.8119 16.7987C38.146 16.4651 37.3284 16.6335 36.9987 16.9638H37.1636C37.5789 17.129 37.3284 17.2974 37.246 17.4642C37.1636 17.7979 37.0811 17.8804 37.246 18.4651" fill="#592D86"/>
<path d="M29.7232 18.6654C30.1386 18.3318 27.8111 17.8314 25.9782 18.999C24.6463 19.9156 24.6463 21.8331 25.8958 22.9165C26.0606 22.9991 26.143 23.0816 26.2287 23.1642C26.5617 22.9991 27.0611 22.8306 27.4765 22.6638C28.3089 22.4161 28.96 22.2476 29.5567 22.1634C29.804 21.8298 30.1386 21.3294 30.0562 20.4128C29.9738 19.1625 28.9749 19.4119 29.7232 18.6621V18.6654ZM48.0296 42.0924L43.2874 38.9248L39.2935 45.5936L34.6336 44.1766L30.5573 50.4293L30.7221 52.4112L53.0208 48.3269L51.689 34.4045L48.0296 42.0924Z" fill="#592D86"/>
</svg>
