<?xml version="1.0" encoding="UTF-8"?>
<svg xmlns="http://www.w3.org/2000/svg" xmlns:xlink="http://www.w3.org/1999/xlink" width="80px" height="80px" viewBox="0 0 80 80" version="1.1">
<g id="surface1">
<path style=" stroke:none;fill-rule:nonzero;fill:rgb(7.843137%,58.823529%,100%);fill-opacity:1;" d="M 27.011719 6.710938 C 25.972656 12.136719 24.703125 20.1875 24.011719 28.355469 C 22.800781 42.742188 23.546875 52.390625 23.546875 52.390625 L 3.039062 71.628906 C 3.039062 71.628906 1.480469 60.835938 0.671875 48.679688 C 0.207031 41.140625 0.0351562 34.519531 0.0351562 30.523438 C 0.0351562 30.296875 0.148438 30.0625 0.148438 29.835938 C 0.148438 29.550781 0.5 26.867188 3.15625 24.355469 C 6.039062 21.617188 27.363281 5.113281 27.011719 6.710938 Z M 27.011719 6.710938 "/>
<path style=" stroke:none;fill-rule:nonzero;fill:rgb(7.058824%,51.764706%,91.764706%);fill-opacity:1;" d="M 27.011719 6.710938 C 25.972656 12.136719 24.703125 20.1875 24.011719 28.355469 C 24.011719 28.355469 1.308594 25.667969 0.0351562 31.09375 C 0.0351562 30.808594 0.4375 27.496094 3.09375 24.984375 C 5.984375 22.246094 27.363281 5.113281 27.011719 6.710938 Z M 27.011719 6.710938 "/>
<path style=" stroke:none;fill-rule:nonzero;fill:rgb(70.588235%,86.27451%,0%);fill-opacity:1;" d="M 2.464844 24.242188 C 8.355469 18.707031 23.027344 4.941406 25.917969 2.203125 C 28.574219 -0.308594 31.40625 0.0351562 31.695312 0.0351562 C 35.679688 0.261719 42.726562 0.773438 50.757812 1.746094 C 63.007812 3.171875 73.753906 5.175781 73.753906 5.175781 L 53.242188 24.414062 C 53.242188 24.414062 43.597656 23.214844 28.976562 23.671875 C 20.71875 23.898438 12.515625 24.753906 6.96875 25.5 C 5.867188 25.613281 3.15625 26.183594 1.480469 28.292969 C 0.671875 29.378906 0.265625 30.0625 0.0351562 31.035156 C 0.0351562 30.578125 0.0351562 30.179688 0.0351562 29.78125 C 0.0351562 29.550781 -0.199219 26.753906 2.464844 24.242188 Z M 2.464844 24.242188 "/>
<path style=" stroke:none;fill-rule:nonzero;fill:rgb(43.529412%,17.647059%,65.882353%);fill-opacity:1;" d="M 54.285156 76.65625 C 51.628906 79.164062 48.792969 79.679688 48.507812 79.679688 C 48.21875 79.679688 47.753906 79.910156 47.464844 79.910156 C 43.425781 79.679688 36.777344 79.226562 29.265625 78.367188 C 17.019531 77 6.15625 74.886719 6.15625 74.886719 L 26.667969 55.585938 C 26.667969 55.585938 36.371094 56.785156 50.992188 56.328125 C 59.25 56.046875 67.457031 55.128906 73.003906 54.386719 C 74.621094 54.214844 57.171875 73.914062 54.285156 76.65625 Z M 54.285156 76.65625 "/>
<path style=" stroke:none;fill-rule:nonzero;fill:rgb(34.901961%,12.156863%,56.862745%);fill-opacity:1;" d="M 53.765625 77.167969 C 51.105469 79.679688 47.347656 79.855469 47.0625 79.855469 C 52.550781 78.878906 50.992188 56.328125 50.992188 56.328125 C 59.25 56.046875 67.457031 55.128906 73.003906 54.386719 C 74.621094 54.214844 56.652344 74.429688 53.765625 77.167969 Z M 53.765625 77.167969 "/>
<path style=" stroke:none;fill-rule:nonzero;fill:rgb(45.098039%,74.509804%,15.686275%);fill-opacity:1;" d="M 48.273438 79.964844 C 47.871094 79.964844 47.464844 79.910156 47.003906 79.910156 C 48.046875 79.738281 48.738281 79.398438 49.835938 78.597656 C 52.03125 77.054688 52.722656 74.367188 52.957031 73.289062 C 53.9375 67.863281 55.265625 59.8125 55.902344 51.644531 C 57.058594 37.257812 56.359375 27.664062 56.359375 27.664062 L 76.875 8.371094 C 76.875 8.371094 78.375 19.101562 79.242188 31.265625 C 79.761719 39.199219 79.933594 46.226562 79.996094 50.105469 C 79.996094 50.394531 80.222656 53.1875 77.566406 55.703125 C 74.675781 58.445312 60.003906 72.257812 54.167969 77.796875 C 51.394531 80.308594 48.566406 79.964844 48.273438 79.964844 Z M 48.273438 79.964844 "/>
</g>
</svg>
