<?xml version="1.0" encoding="UTF-8"?>
<svg xmlns="http://www.w3.org/2000/svg" xmlns:xlink="http://www.w3.org/1999/xlink" width="80px" height="80px" viewBox="0 0 80 79" version="1.1">
<g id="surface1">
<path style=" stroke:none;fill-rule:nonzero;fill:rgb(100%,100%,100%);fill-opacity:1;" d="M 79.835938 41.335938 C 79.84375 38.121094 78.851562 34.980469 76.992188 32.34375 C 75.128906 29.710938 72.492188 27.710938 69.445312 26.621094 C 69.722656 25.21875 69.863281 23.792969 69.863281 22.363281 C 69.859375 17.632812 68.347656 13.023438 65.539062 9.199219 C 62.734375 5.375 58.777344 2.535156 54.238281 1.082031 C 49.703125 -0.371094 44.820312 -0.359375 40.289062 1.113281 C 35.761719 2.589844 31.816406 5.449219 29.03125 9.289062 C 26.972656 7.710938 24.453125 6.839844 21.855469 6.808594 C 19.253906 6.777344 16.714844 7.585938 14.621094 9.113281 C 12.523438 10.640625 10.988281 12.804688 10.238281 15.273438 C 9.492188 17.746094 9.574219 20.390625 10.472656 22.8125 C 7.421875 23.914062 4.78125 25.917969 2.90625 28.554688 C 1.035156 31.191406 0.0195312 34.332031 0 37.558594 C -0.0117188 40.789062 0.984375 43.945312 2.859375 46.589844 C 4.730469 49.234375 7.386719 51.238281 10.453125 52.320312 C 9.820312 55.554688 9.917969 58.886719 10.734375 62.078125 C 11.550781 65.269531 13.070312 68.242188 15.183594 70.785156 C 17.292969 73.324219 19.945312 75.371094 22.945312 76.777344 C 25.949219 78.179688 29.226562 78.910156 32.546875 78.910156 C 36.121094 78.910156 39.640625 78.066406 42.816406 76.445312 C 45.996094 74.824219 48.734375 72.46875 50.808594 69.582031 C 52.859375 71.179688 55.378906 72.066406 57.984375 72.105469 C 60.589844 72.148438 63.140625 71.347656 65.242188 69.820312 C 67.34375 68.292969 68.886719 66.125 69.632812 63.648438 C 70.382812 61.171875 70.292969 58.523438 69.382812 56.097656 C 72.4375 54.996094 75.082031 52.988281 76.953125 50.347656 C 78.824219 47.710938 79.839844 44.566406 79.855469 41.335938 "/>
<path style=" stroke:none;fill-rule:nonzero;fill:rgb(99.607843%,77.254902%,7.843137%);fill-opacity:1;" d="M 31.386719 33.980469 L 48.859375 41.882812 L 66.480469 26.558594 C 67.375 22.140625 66.703125 17.550781 64.578125 13.570312 C 62.453125 9.585938 59.007812 6.457031 54.824219 4.703125 C 50.640625 2.949219 45.976562 2.6875 41.617188 3.953125 C 37.261719 5.222656 33.480469 7.945312 30.910156 11.660156 L 27.976562 26.765625 Z M 31.386719 33.980469 "/>
<path style=" stroke:none;fill-rule:nonzero;fill:rgb(0%,74.901961%,70.196078%);fill-opacity:1;" d="M 13.308594 52.339844 C 12.398438 56.777344 13.066406 61.394531 15.195312 65.398438 C 17.328125 69.402344 20.789062 72.554688 24.996094 74.3125 C 29.203125 76.070312 33.894531 76.328125 38.273438 75.042969 C 42.648438 73.757812 46.441406 71.007812 49.007812 67.261719 L 51.914062 52.21875 L 48.011719 44.859375 L 30.492188 36.921875 Z M 13.308594 52.339844 "/>
<path style=" stroke:none;fill-rule:nonzero;fill:rgb(94.117647%,30.588235%,59.607843%);fill-opacity:1;" d="M 13.1875 22.339844 L 25.167969 25.140625 L 27.789062 11.632812 C 26.160156 10.410156 24.175781 9.742188 22.132812 9.730469 C 20.089844 9.71875 18.097656 10.363281 16.453125 11.566406 C 14.8125 12.773438 13.605469 14.472656 13.015625 16.414062 C 12.425781 18.355469 12.488281 20.433594 13.1875 22.339844 Z M 13.1875 22.339844 "/>
<path style=" stroke:none;fill-rule:nonzero;fill:rgb(10.588235%,66.27451%,96.078431%);fill-opacity:1;" d="M 12.15625 25.164062 C 9.566406 26.015625 7.308594 27.636719 5.6875 29.808594 C 4.0625 31.984375 3.160156 34.601562 3.097656 37.304688 C 3.035156 40.011719 3.816406 42.667969 5.335938 44.914062 C 6.855469 47.160156 9.035156 48.882812 11.582031 49.847656 L 28.363281 34.78125 L 25.285156 28.261719 Z M 12.15625 25.164062 "/>
<path style=" stroke:none;fill-rule:nonzero;fill:rgb(57.647059%,78.823529%,5.490196%);fill-opacity:1;" d="M 52.074219 67.261719 C 53.46875 68.324219 55.136719 68.980469 56.886719 69.152344 C 58.636719 69.324219 60.402344 69.003906 61.976562 68.230469 C 63.554688 67.457031 64.882812 66.261719 65.808594 64.777344 C 66.730469 63.289062 67.21875 61.578125 67.210938 59.832031 C 67.214844 58.722656 67.023438 57.621094 66.640625 56.574219 L 54.679688 53.800781 Z M 52.074219 67.261719 "/>
<path style=" stroke:none;fill-rule:nonzero;fill:rgb(0%,46.666667%,80%);fill-opacity:1;" d="M 54.507812 50.6875 L 67.679688 53.746094 C 70.308594 52.867188 72.59375 51.195312 74.222656 48.964844 C 75.847656 46.734375 76.730469 44.054688 76.75 41.300781 C 76.746094 38.648438 75.929688 36.058594 74.410156 33.875 C 72.890625 31.691406 70.734375 30.019531 68.234375 29.082031 L 51.011719 44.054688 Z M 54.507812 50.6875 "/>
</g>
</svg>
