<svg viewBox="0 0 366 357" fill="none" xmlns="http://www.w3.org/2000/svg">
<path fill-rule="evenodd" clip-rule="evenodd" d="M183 0C82.2 0 0.5 81.7 0.5 182.5C0.5 263.1 52.8 331.5 125.3 355.7C134.4 357.4 137.8 351.7 137.8 346.9C137.8 342.5 137.6 328.2 137.6 312.9C86.8 323.9 76.1 291.4 76.1 291.4C67.8 270.3 55.8 264.7 55.8 264.7C39.2 253.4 57 253.6 57 253.6C75.3 254.9 85 272.4 85 272.4C101.3 300.3 127.7 292.2 138.1 287.6C139.7 275.8 144.5 267.8 149.7 263.2C109.2 258.6 66.5 242.9 66.5 173C66.5 153.1 73.6 136.8 85.3 124C83.4 119.4 77.2 100.8 87.1 75.7C87.1 75.7 102.4 70.8 137.3 94.4C151.9 90.4 167.5 88.3 183 88.3C198.5 88.4 214.1 90.4 228.7 94.4C263.5 70.8 278.8 75.7 278.8 75.7C288.7 100.8 282.5 119.4 280.6 124C292.3 136.8 299.4 153.1 299.4 173C299.4 243.1 256.7 258.5 216.1 263C222.6 268.7 228.5 279.8 228.5 296.8C228.5 321.2 228.3 340.9 228.3 346.9C228.3 351.8 231.6 357.4 240.8 355.7C313.3 331.5 365.5 263.2 365.5 182.5C365.5 81.7 283.8 0 183 0Z" fill="#181616"/>
<path d="M69.6 262C69.2 262.9 67.8 263.2 66.5 262.6C65.2 262 64.4 260.8 64.9 259.9C65.3 259 66.7 258.7 68 259.3C69.3 259.9 70.1 261.1 69.6 262Z" fill="#181616"/>
<path d="M77 270.3C76.1 271.1 74.4 270.7 73.3 269.5C72.1 268.2 71.9 266.5 72.8 265.7C73.7 264.9 75.3 265.3 76.5 266.5C77.7 267.8 77.9 269.5 77 270.3Z" fill="#181616"/>
<path d="M84.1999 280.8C83.0999 281.6 81.2999 280.9 80.0999 279.2C78.9999 277.6 78.9999 275.6 80.0999 274.8C81.1999 274 82.9999 274.7 84.1999 276.3C85.3999 278 85.3999 280 84.1999 280.8Z" fill="#181616"/>
<path d="M94.1002 290.9C93.1002 292 91.0002 291.7 89.4002 290.2C87.8002 288.7 87.4002 286.6 88.4002 285.5C89.4002 284.4 91.6002 284.7 93.1002 286.2C94.7002 287.8 95.1002 289.9 94.1002 290.9Z" fill="#181616"/>
<path d="M107.7 296.8C107.3 298.2 105.2 298.9 103.1 298.3C101 297.7 99.7 296 100.1 294.6C100.5 293.2 102.6 292.5 104.7 293.1C106.7 293.7 108.1 295.4 107.7 296.8Z" fill="#181616"/>
<path d="M122.6 297.9C122.7 299.4 120.9 300.7 118.7 300.7C116.5 300.8 114.8 299.5 114.7 298C114.7 296.5 116.4 295.2 118.6 295.2C120.8 295.2 122.6 296.4 122.6 297.9Z" fill="#181616"/>
<path d="M136.5 295.6C136.8 297.1 135.3 298.6 133.1 299C131 299.4 129 298.5 128.8 297C128.5 295.5 130.1 294 132.2 293.6C134.3 293.2 136.2 294.1 136.5 295.6Z" fill="#181616"/>
</svg>