<svg viewBox="0 0 338 311" fill="none" xmlns="http://www.w3.org/2000/svg">
<path d="M337.17 177.83L318.26 119.71L280.84 4.42999C280.409 3.14388 279.585 2.02568 278.484 1.23342C277.383 0.441159 276.061 0.0149078 274.705 0.0149078C273.349 0.0149078 272.027 0.441159 270.926 1.23342C269.825 2.02568 269.001 3.14388 268.57 4.42999L231.15 119.64H106.82L69.4001 4.42999C68.972 3.14263 68.1495 2.02273 67.0492 1.22907C65.949 0.435416 64.6267 0.00830078 63.2701 0.00830078C61.9134 0.00830078 60.5912 0.435416 59.4909 1.22907C58.3906 2.02273 57.5681 3.14263 57.1401 4.42999L19.7801 119.64L0.870085 177.83C0.0299832 180.414 0.0282928 183.197 0.865263 185.781C1.70223 188.366 3.335 190.619 5.53008 192.22L169 311L332.44 192.22C334.645 190.627 336.29 188.377 337.14 185.792C337.989 183.208 338 180.421 337.17 177.83" fill="#FC6D26"/>
<path d="M169 310.91L231.16 119.63H106.87L169 310.91Z" fill="#E24329"/>
<path d="M169 310.91L106.82 119.63H19.8198L169 310.91Z" fill="#FC6D26"/>
<path d="M19.7498 119.69L0.839807 177.81C-0.000294089 180.393 -0.00197685 183.176 0.834993 185.761C1.67196 188.346 3.30473 190.599 5.49981 192.2L169 311L19.7498 119.69Z" fill="#FCA326"/>
<path d="M19.7798 119.69H106.89L69.3998 4.4898C68.969 3.20369 68.1449 2.08548 67.0441 1.29322C65.9432 0.500959 64.6211 0.074707 63.2648 0.074707C61.9085 0.074707 60.5864 0.500959 59.4855 1.29322C58.3846 2.08548 57.5606 3.20369 57.1298 4.4898L19.7798 119.69Z" fill="#E24329"/>
<path d="M169 310.91L231.16 119.63H318.3L169 310.91Z" fill="#FC6D26"/>
<path d="M318.24 119.69L337.15 177.81C337.995 180.393 337.999 183.178 337.162 185.763C336.324 188.349 334.689 190.602 332.49 192.2L169 310.91L318.2 119.69H318.24Z" fill="#FCA326"/>
<path d="M318.28 119.69H231.18L268.6 4.49006C269.028 3.20271 269.851 2.08279 270.951 1.28913C272.051 0.495475 273.374 0.0683594 274.73 0.0683594C276.087 0.0683594 277.409 0.495475 278.509 1.28913C279.61 2.08279 280.432 3.20271 280.86 4.49006L318.28 119.69Z" fill="#E24329"/>
</svg>