<svg xmlns="http://www.w3.org/2000/svg" xmlns:xlink="http://www.w3.org/1999/xlink" viewBox="0 0 72 81" fill="#fff" fill-rule="evenodd" stroke="#000" stroke-linecap="round" stroke-linejoin="round"><use xlink:href="#A" x=".5" y=".5"/><symbol id="A" overflow="visible"><g stroke="none" fill-rule="nonzero"><path d="M35.329 57.399l14.36-8.281V32.555l-4.814-2.815-14.36 24.885 4.814 2.774z" fill="#4285f4"/><path d="M20.969 32.555v16.563l4.814 2.774 14.401-24.844-4.855-2.815-14.36 8.322z" fill="#669df6"/><path d="M32.514 62.335l-17.216-9.954V32.555L0 23.702v37.532L32.514 80V62.335zM18.113 27.659l17.216-9.954 17.216 9.954 15.339-8.853L35.329 0 2.774 18.807l15.339 8.853zM55.36 52.381l-17.216 9.954V80l32.555-18.766V23.702L55.36 32.555v19.827z" fill="#aecbfa"/></g></symbol></svg>