<svg  viewBox="0 0 35 40" xmlns="http://www.w3.org/2000/svg"><path d="M20.63 14.624l-2.422 8.572 7.798-4.27a8.925 8.925 0 0 0-5.376-4.302zm-19.136 8.75C1.494 32.553 8.944 40 18.138 40c9.194 0 16.645-7.445 16.645-16.627 0-9.182-7.45-16.628-16.645-16.628-9.193 0-16.644 7.446-16.644 16.628zm16.644-11.878c6.555 0 11.89 5.328 11.89 11.877 0 6.548-5.335 11.876-11.89 11.876-6.555 0-11.89-5.33-11.89-11.877 0-6.55 5.335-11.877 11.89-11.877zm5.745-6.807c.005-.066.02-.127.02-.193v-1.5A2.994 2.994 0 0 0 20.912 0h-5.228a2.993 2.993 0 0 0-2.987 2.998V4.47a19.298 19.298 0 0 1 11.185.22zM5.63 7.622a2.982 2.982 0 0 0-4.227 0l-.528.53a3.006 3.006 0 0 0 0 4.24l.562.563a19.602 19.602 0 0 1 4.494-5.03l-.3-.303z" fill="#1D3657" fill-rule="evenodd"/></svg>