<?xml version="1.0" encoding="UTF-8"?>
<svg xmlns="http://www.w3.org/2000/svg" xmlns:xlink="http://www.w3.org/1999/xlink" width="60px" height="60px" viewBox="0 0 60 60" version="1.1">
<g id="surface1">
<path style=" stroke:none;fill-rule:nonzero;fill:rgb(13.333333%,67.843137%,96.470588%);fill-opacity:1;" d="M 57.808594 35.859375 L 52.40625 12.347656 C 52.101562 11.058594 50.933594 9.773438 49.648438 9.398438 L 24.964844 1.785156 C 24.660156 1.667969 24.292969 1.667969 23.921875 1.667969 C 22.875 1.667969 21.773438 2.09375 21.035156 2.714844 L 3.351562 19.167969 C 2.375 20.027344 1.878906 21.746094 2.1875 22.972656 L 7.960938 48.148438 C 8.265625 49.433594 9.433594 50.726562 10.71875 51.09375 L 33.800781 58.214844 C 34.105469 58.332031 34.472656 58.332031 34.847656 58.332031 C 35.894531 58.332031 36.992188 57.90625 37.734375 57.285156 L 56.640625 39.734375 C 57.625 38.8125 58.113281 37.152344 57.808594 35.859375 Z M 27.546875 7.375 L 44.488281 12.59375 C 45.160156 12.78125 45.160156 13.085938 44.488281 13.265625 L 35.585938 15.292969 C 34.914062 15.480469 33.992188 15.171875 33.5 14.679688 L 27.300781 7.988281 C 26.746094 7.441406 26.867188 7.191406 27.546875 7.375 Z M 38.101562 37.765625 C 38.285156 38.441406 37.851562 38.8125 37.179688 38.625 L 18.886719 32.980469 C 18.214844 32.792969 18.085938 32.238281 18.578125 31.753906 L 32.578125 18.734375 C 33.074219 18.238281 33.625 18.425781 33.808594 19.101562 Z M 7.960938 21.1875 L 22.820312 7.375 C 23.3125 6.878906 24.105469 6.945312 24.601562 7.433594 L 32.027344 15.480469 C 32.519531 15.972656 32.453125 16.765625 31.964844 17.261719 L 17.105469 31.074219 C 16.613281 31.566406 15.820312 31.5 15.328125 31.011719 L 7.898438 22.972656 C 7.40625 22.421875 7.472656 21.621094 7.960938 21.1875 Z M 11.585938 43.105469 L 7.660156 25.851562 C 7.472656 25.179688 7.78125 25.054688 8.214844 25.546875 L 14.414062 32.238281 C 14.90625 32.734375 15.085938 33.714844 14.90625 34.386719 L 12.199219 43.105469 C 12.011719 43.78125 11.707031 43.78125 11.585938 43.105469 Z M 33.3125 53.171875 L 13.914062 47.21875 C 13.238281 47.035156 12.867188 46.300781 13.054688 45.625 L 16.308594 35.1875 C 16.492188 34.511719 17.226562 34.140625 17.898438 34.328125 L 37.300781 40.28125 C 37.972656 40.464844 38.347656 41.199219 38.160156 41.875 L 34.90625 52.3125 C 34.667969 52.992188 33.992188 53.359375 33.3125 53.171875 Z M 50.5 39.054688 L 37.554688 51.085938 C 37.058594 51.578125 36.820312 51.394531 37 50.71875 L 39.699219 42 C 39.886719 41.328125 40.621094 40.648438 41.292969 40.527344 L 50.191406 38.5 C 50.875 38.320312 50.992188 38.625 50.5 39.054688 Z M 51.914062 36.480469 L 41.234375 38.933594 C 40.558594 39.121094 39.878906 38.6875 39.699219 38.011719 L 35.160156 18.246094 C 34.972656 17.574219 35.40625 16.894531 36.078125 16.714844 L 46.761719 14.261719 C 47.433594 14.074219 48.113281 14.507812 48.292969 15.179688 L 52.832031 34.945312 C 53.019531 35.679688 52.59375 36.351562 51.914062 36.480469 Z M 51.914062 36.480469 "/>
</g>
</svg>
