<svg width="60" height="60" viewBox="0 0 60 60" fill="none" xmlns="http://www.w3.org/2000/svg">
<path d="M6 21.5998L22.2 4.7998L49.2 12.5998L54 37.7998L34.8 55.1998L10.8 47.9998L6 21.5998Z" fill="white"/>
<path d="M56.924 35.7L51.7168 12.7633C51.4427 11.5198 50.278 10.2762 49.0447 9.9308L25.1329 2.53857C24.7903 2.46948 24.4477 2.40039 24.1051 2.40039C23.0774 2.40039 21.9812 2.81491 21.3645 3.43669L4.23568 19.4647C3.34498 20.2938 2.79685 21.9518 3.07091 23.1954L8.62066 47.721C8.89472 48.9646 10.0595 50.2082 11.2928 50.5536L33.6288 57.4622C33.9713 57.5313 34.3139 57.6004 34.6565 57.6004C35.6842 57.6004 36.7805 57.1859 37.3971 56.5641L55.6907 39.4307C56.7184 38.6016 57.198 36.9436 56.924 35.7ZM27.5994 7.9273L43.9746 12.9706C44.5912 13.1779 44.5912 13.4542 43.9746 13.5924L35.3416 15.5959C34.6565 15.7341 33.7658 15.4577 33.3547 14.9741L27.3253 8.41091C26.8457 7.99639 26.9828 7.78913 27.5994 7.9273ZM37.8082 37.5653C37.9452 38.2562 37.5341 38.6016 36.9175 38.3944L19.2405 32.9366C18.6239 32.7293 18.4869 32.1766 18.9665 31.7621L32.5325 19.0502C33.0121 18.5666 33.5602 18.7739 33.6973 19.3956L37.8082 37.5653ZM8.68918 21.3991L23.0774 7.9273C23.557 7.44369 24.3107 7.51278 24.7903 7.99638L31.9844 15.8031C32.464 16.2867 32.3955 17.0467 31.9159 17.5303L17.5277 31.0021C17.048 31.4857 16.2944 31.4167 15.8148 30.9331L8.62066 23.1263C8.20957 22.6427 8.20957 21.8827 8.68918 21.3991ZM12.1835 42.8159L8.3466 26.0279C8.20957 25.3371 8.41511 25.268 8.89472 25.7516L14.9241 32.3148C15.4037 32.7984 15.6092 33.7656 15.4037 34.3874L12.8001 42.885C12.6631 43.4377 12.3205 43.4377 12.1835 42.8159ZM33.2177 52.5571L14.513 46.7538C13.8963 46.5466 13.4852 45.8557 13.6908 45.2339L16.774 35.0092C16.9795 34.3874 17.6647 33.9729 18.2813 34.1801L36.986 39.9834C37.6026 40.1906 38.0137 40.8815 37.8082 41.5033L34.725 51.728C34.5195 52.4189 33.8343 52.7643 33.2177 52.5571ZM49.8669 38.8089L37.3286 50.5536C36.849 51.0372 36.5749 50.8299 36.7805 50.2082L39.384 41.7105C39.5896 41.0888 40.2747 40.3979 40.9599 40.2597L49.5928 38.2562C50.2095 38.118 50.3465 38.3944 49.8669 38.8089ZM51.2372 36.3218L40.8914 38.6707C40.2062 38.8089 39.5896 38.3944 39.4526 37.7726L35.0676 18.4975C34.9306 17.8066 35.3416 17.1849 35.9583 17.0467L46.3041 14.6978C46.9892 14.5596 47.6059 14.9741 47.7429 15.5959L52.1279 34.871C52.2649 35.4928 51.8538 36.1836 51.2372 36.3218Z" fill="#4799EB"/>
<g filter="url(#filter0_f)">
<circle cx="30.0008" cy="29.9998" r="19.2" fill="white"/>
</g>
<path d="M42.7794 28.2366C42.7335 27.7339 42.6449 27.1538 42.4744 26.5124C42.3039 25.8744 42.0513 25.175 41.6873 24.4467C41.3167 23.7248 40.8346 22.9707 40.2115 22.2423C39.9688 21.9555 39.7031 21.6751 39.4145 21.398C39.8442 19.7222 38.8931 18.2719 38.8931 18.2719C37.2533 18.172 36.2104 18.7715 35.8234 19.0486C35.7578 19.0228 35.6955 18.9938 35.6299 18.9681C35.3511 18.8553 35.0625 18.7521 34.7673 18.6619C34.4722 18.5717 34.1704 18.4879 33.8622 18.4137C33.5539 18.3428 33.239 18.2816 32.9209 18.2333C32.8652 18.2236 32.8094 18.2172 32.7536 18.2107C32.0387 15.9613 29.9824 15.0234 29.9824 15.0234C27.6932 16.4511 27.257 18.4492 27.257 18.4492C27.257 18.4492 27.2472 18.4943 27.2341 18.5684C27.1062 18.6039 26.9815 18.6393 26.8536 18.678C26.6765 18.7296 26.506 18.794 26.3289 18.8553C26.1551 18.9229 25.9813 18.9874 25.8074 19.0615C25.4631 19.2065 25.1187 19.3709 24.7842 19.5546C24.4595 19.7351 24.1414 19.9316 23.8298 20.1443C23.7839 20.125 23.7511 20.1089 23.7511 20.1089C20.5797 18.9197 17.7626 20.3506 17.7626 20.3506C17.5068 23.6668 19.0285 25.7551 19.3302 26.1322C19.2548 26.3384 19.1859 26.5447 19.1203 26.7542C18.8842 27.505 18.7104 28.2753 18.6021 29.0745C18.5857 29.1873 18.5726 29.3033 18.5595 29.4193C15.6308 30.8406 14.7617 33.7571 14.7617 33.7571C17.2083 36.5222 20.0583 36.693 20.0583 36.693C20.0616 36.6898 20.0648 36.6898 20.0648 36.6866C20.4289 37.3215 20.8487 37.9273 21.3177 38.4913C21.5144 38.7266 21.7243 38.9554 21.9375 39.1745C21.0454 41.6786 22.0621 43.7669 22.0621 43.7669C24.7842 43.8668 26.5749 42.5971 26.9487 42.3038C27.2209 42.394 27.4932 42.4746 27.7719 42.5455C28.6082 42.7582 29.4642 42.8807 30.3202 42.9193C30.5334 42.929 30.7465 42.9322 30.963 42.9322H31.0679L31.1368 42.929L31.2713 42.9258L31.4057 42.9193L31.409 42.9226C32.6913 44.7208 34.9477 44.9754 34.9477 44.9754C36.5514 43.3125 36.6433 41.6657 36.6433 41.308C36.6433 41.308 36.6433 41.2951 36.6433 41.2854C36.6433 41.2564 36.6433 41.2339 36.6433 41.2339C36.6433 41.2081 36.64 41.1855 36.64 41.1565C36.9778 40.9245 37.2992 40.6763 37.6009 40.4088C38.2437 39.8384 38.8045 39.1874 39.2702 38.4881C39.3129 38.4236 39.3555 38.356 39.3981 38.2883C41.215 38.3914 42.4941 37.1829 42.4941 37.1829C42.1924 35.3234 41.1134 34.4178 40.8904 34.2438C40.8904 34.2438 40.8805 34.2373 40.8674 34.2277C40.8543 34.218 40.8477 34.2115 40.8477 34.2115C40.8346 34.2051 40.8215 34.1954 40.8084 34.1858C40.8182 34.073 40.828 33.9634 40.8346 33.8506C40.8477 33.6508 40.8543 33.451 40.8543 33.2512V33.1029V33.0288V32.9901C40.8543 32.9386 40.8543 32.9579 40.8543 32.9386L40.8477 32.8129L40.8379 32.6453C40.8346 32.5873 40.8313 32.5357 40.8248 32.4842C40.8215 32.4326 40.8149 32.381 40.8084 32.3295L40.7887 32.1748L40.7657 32.0201C40.7362 31.8171 40.6936 31.614 40.6477 31.411C40.4574 30.6085 40.1393 29.848 39.7195 29.1648C39.2997 28.4815 38.775 27.8757 38.188 27.3665C37.5976 26.8541 36.9384 26.4448 36.2464 26.1386C35.5544 25.8325 34.8264 25.6359 34.1016 25.5456C33.7408 25.5005 33.3768 25.4812 33.0193 25.4844L32.8848 25.4876H32.852C32.8422 25.4876 32.8028 25.4876 32.8061 25.4876L32.7504 25.4908L32.6192 25.5005C32.57 25.5037 32.5175 25.507 32.4716 25.5134C32.2879 25.5295 32.1043 25.5553 31.9272 25.5908C31.209 25.7229 30.5301 25.9775 29.9299 26.3288C29.333 26.68 28.8116 27.1215 28.3885 27.6178C27.9654 28.1174 27.6375 28.6685 27.4112 29.2389C27.1849 29.8093 27.0602 30.3991 27.0242 30.9727C27.0143 31.1145 27.0111 31.2595 27.0143 31.3981C27.0143 31.4335 27.0143 31.469 27.0176 31.5044L27.0209 31.6205C27.0275 31.6881 27.0307 31.759 27.0373 31.8267C27.0668 32.1168 27.1193 32.3939 27.198 32.6646C27.3554 33.1996 27.6079 33.6862 27.9228 34.0987C28.2343 34.5113 28.6082 34.8529 29.0051 35.1203C29.4019 35.3878 29.825 35.578 30.2447 35.6972C30.6645 35.8197 31.081 35.8712 31.4746 35.8712C31.5238 35.8712 31.573 35.8712 31.6222 35.868C31.6484 35.868 31.6747 35.8648 31.7009 35.8648C31.7271 35.8648 31.7534 35.8616 31.7796 35.8616C31.8222 35.8584 31.8616 35.8519 31.9042 35.8487C31.9141 35.8487 31.9272 35.8455 31.9403 35.8455L31.9797 35.839C32.0059 35.8358 32.0289 35.8326 32.0551 35.8293C32.1076 35.8229 32.1502 35.8132 32.1994 35.8036C32.2453 35.7939 32.2912 35.7874 32.3371 35.7746C32.429 35.7552 32.5142 35.7294 32.5995 35.7004C32.77 35.6457 32.9307 35.578 33.0816 35.5038C33.2325 35.4265 33.3702 35.3427 33.4981 35.2557C33.5342 35.2299 33.5703 35.2041 33.6063 35.1751C33.7441 35.0688 33.767 34.8722 33.6555 34.7401C33.5604 34.624 33.3932 34.595 33.262 34.6659C33.2292 34.6821 33.1964 34.7014 33.1636 34.7175C33.0488 34.7723 32.9307 34.8206 32.8028 34.8625C32.6749 34.9012 32.5438 34.9334 32.406 34.9592C32.3371 34.9689 32.2683 34.9785 32.1961 34.985C32.16 34.9882 32.124 34.9914 32.0912 34.9914C32.0551 34.9914 32.019 34.9947 31.9862 34.9947C31.9534 34.9947 31.9173 34.9947 31.8845 34.9914C31.8419 34.9882 31.7993 34.9882 31.7566 34.985C31.7566 34.985 31.7337 34.985 31.7534 34.985H31.7402L31.7107 34.9818C31.6911 34.9785 31.6714 34.9785 31.655 34.9753C31.6156 34.9721 31.5795 34.9657 31.5402 34.9624C31.2319 34.9205 30.9203 34.8335 30.6219 34.6982C30.3202 34.566 30.0316 34.3791 29.7725 34.1503C29.5134 33.9215 29.2871 33.6443 29.11 33.3317C28.9329 33.0191 28.8083 32.6743 28.7492 32.3101C28.7197 32.1297 28.7066 31.9395 28.7132 31.7558C28.7164 31.7043 28.7164 31.6559 28.7197 31.6044C28.7197 31.6172 28.7197 31.5979 28.7197 31.5947V31.5753L28.723 31.5367C28.7263 31.5109 28.7263 31.4883 28.7296 31.4626C28.7394 31.3626 28.7558 31.2627 28.7722 31.1628C28.9132 30.3701 29.3166 29.5966 29.943 29.0101C30.1004 28.865 30.2677 28.7265 30.4481 28.6072C30.6285 28.4848 30.8187 28.3784 31.0155 28.2882C31.2155 28.1979 31.4221 28.1238 31.6353 28.069C31.8485 28.0142 32.0682 27.9756 32.2879 27.9562C32.3994 27.9466 32.511 27.9433 32.6225 27.9433C32.652 27.9433 32.6749 27.9433 32.6979 27.9433L32.7897 27.9466L32.8455 27.9498C32.8684 27.9498 32.8455 27.9498 32.8553 27.9498H32.8783L32.9701 27.9562C33.2095 27.9756 33.4489 28.0078 33.6851 28.0626C34.1573 28.1657 34.6165 28.3365 35.0461 28.5685C35.9021 29.0358 36.6334 29.7642 37.0794 30.644C37.3057 31.0823 37.4632 31.5528 37.5419 32.0394C37.5616 32.1619 37.5747 32.2843 37.5845 32.4068L37.5911 32.5003L37.5943 32.5937C37.5976 32.626 37.5976 32.655 37.5976 32.6872C37.5976 32.7194 37.6009 32.7516 37.5976 32.7742V32.8548L37.5943 32.945C37.5911 33.0062 37.5878 33.1029 37.5845 33.1642C37.5747 33.2995 37.5616 33.4316 37.5452 33.567C37.5288 33.6991 37.5058 33.8313 37.4828 33.9634C37.4566 34.0955 37.4271 34.2244 37.3943 34.3533C37.3287 34.6112 37.2434 34.869 37.1418 35.1171C36.9417 35.6166 36.6728 36.0904 36.3514 36.5287C35.7053 37.402 34.8231 38.1143 33.8195 38.5654C33.3177 38.7878 32.7864 38.9522 32.2453 39.0392C31.9731 39.0843 31.6976 39.1101 31.4221 39.1197L31.3697 39.123H31.327H31.2385H31.104H31.0351C31.0712 39.123 31.0286 39.123 31.0319 39.123H31.0056C30.858 39.1197 30.7105 39.1133 30.5629 39.1004C29.9725 39.0585 29.392 38.9554 28.828 38.7943C28.2639 38.6331 27.7162 38.4172 27.198 38.1465C26.1616 37.6018 25.2368 36.8574 24.512 35.9583C24.148 35.5103 23.8298 35.0301 23.5675 34.5241C23.3051 34.0182 23.0985 33.4864 22.9443 32.945C22.7935 32.4004 22.6984 31.8461 22.6623 31.2853L22.6557 31.179L22.6525 31.1532V31.1306V31.0855L22.6492 30.992V30.9695V30.9372V30.8728L22.6459 30.7439V30.7181C22.6459 30.7213 22.6459 30.7213 22.6459 30.7084V30.6569C22.6459 30.5892 22.6492 30.5215 22.6492 30.4506C22.659 30.1735 22.682 29.8899 22.7213 29.6063C22.7574 29.3227 22.8066 29.0358 22.8656 28.7522C22.9247 28.4686 22.9968 28.1883 23.0755 27.9143C23.2362 27.3632 23.4363 26.8283 23.6757 26.3223C24.1512 25.3104 24.7744 24.4177 25.5254 23.7022C25.7123 23.5218 25.9058 23.351 26.1092 23.193C26.3092 23.0351 26.5191 22.8869 26.7356 22.7483C26.9487 22.6097 27.1718 22.4808 27.4013 22.3648C27.5128 22.3036 27.6309 22.252 27.7457 22.1972C27.8047 22.1714 27.8638 22.1457 27.9228 22.1199C27.9818 22.0941 28.0408 22.0683 28.0999 22.0458C28.336 21.9458 28.582 21.8653 28.828 21.7879C28.8903 21.7686 28.9526 21.7525 29.0149 21.7331C29.0772 21.7138 29.1395 21.7009 29.2018 21.6816C29.3265 21.6461 29.4544 21.6171 29.579 21.5881C29.6413 21.572 29.7069 21.5591 29.7692 21.5462C29.8315 21.5333 29.8971 21.5204 29.9594 21.5076C30.025 21.4947 30.0873 21.485 30.1529 21.4721L30.248 21.456L30.3431 21.4431C30.4087 21.4334 30.471 21.4238 30.5366 21.4141C30.6088 21.4012 30.6809 21.398 30.7531 21.3851C30.8121 21.3786 30.9105 21.3658 30.9695 21.3593C31.0155 21.3561 31.0614 21.3496 31.1073 21.3464L31.1991 21.3368L31.245 21.3335L31.2975 21.3303C31.3697 21.3271 31.4418 21.3206 31.5172 21.3174L31.6255 21.311C31.6255 21.311 31.6648 21.311 31.632 21.311H31.655L31.7009 21.3077C31.7632 21.3045 31.8255 21.3013 31.8878 21.2981C32.1338 21.2916 32.3798 21.2916 32.6257 21.2981C33.1144 21.3174 33.5932 21.369 34.0589 21.456C34.9903 21.6268 35.866 21.9201 36.6597 22.3068C37.4533 22.6871 38.165 23.1576 38.7816 23.6668C38.8209 23.699 38.857 23.7312 38.8963 23.7635C38.9324 23.7957 38.9718 23.8279 39.0079 23.8601C39.0833 23.9246 39.1554 23.9923 39.2276 24.0567C39.2997 24.1212 39.3686 24.1889 39.4375 24.2565C39.5064 24.3242 39.5752 24.3919 39.6375 24.4596C39.8999 24.7335 40.1426 25.0074 40.3591 25.2846C40.7985 25.8389 41.1494 26.3997 41.4282 26.9282C41.4446 26.9604 41.4643 26.9926 41.4807 27.0281C41.4971 27.0603 41.5135 27.0925 41.5299 27.128C41.5627 27.1924 41.5955 27.2569 41.625 27.3214C41.6545 27.3858 41.6873 27.4503 41.7135 27.5115C41.7431 27.5759 41.7693 27.6372 41.7955 27.6984C41.9005 27.9466 41.9956 28.1818 42.071 28.4042C42.1989 28.7619 42.294 29.0874 42.3662 29.371C42.3957 29.4838 42.5039 29.5579 42.622 29.5483C42.7433 29.5386 42.8384 29.4387 42.8417 29.3194C42.822 28.9972 42.8155 28.6427 42.7794 28.2366Z" fill="url(#paint0_linear)"/>
<defs>
<filter id="filter0_f" x="6.80078" y="6.7998" width="46.4" height="46.4" filterUnits="userSpaceOnUse" color-interpolation-filters="sRGB">
<feFlood flood-opacity="0" result="BackgroundImageFix"/>
<feBlend mode="normal" in="SourceGraphic" in2="BackgroundImageFix" result="shape"/>
<feGaussianBlur stdDeviation="2" result="effect1_foregroundBlur"/>
</filter>
<linearGradient id="paint0_linear" x1="49.6321" y1="48.0573" x2="49.6321" y2="20.6923" gradientUnits="userSpaceOnUse">
<stop stop-color="#FFEA00"/>
<stop offset="1" stop-color="#F45926"/>
</linearGradient>
</defs>
</svg>
