<svg width="60" height="60" viewBox="0 0 60 60" fill="none" xmlns="http://www.w3.org/2000/svg">
<path fill-rule="evenodd" clip-rule="evenodd" d="M29.9559 42.7073C41.4601 58.3902 52.7187 38.33 52.7022 26.2666C52.6826 12.0037 38.2264 4.03223 29.9465 4.03223C16.6565 4.03223 4 15.0159 4 30.0438C4 46.7475 18.5081 55.9999 29.9465 55.9999C27.3581 55.6272 18.732 53.7788 18.6161 33.9107C18.5381 20.4731 22.9995 15.1045 29.9278 17.4661C30.0829 17.5236 37.5698 20.477 37.5698 30.125C37.5698 39.7319 29.9559 42.7073 29.9559 42.7073Z" fill="url(#paint0_linear)"/>
<path fill-rule="evenodd" clip-rule="evenodd" d="M29.9413 17.4552C22.3395 14.8351 13.0273 21.1004 13.0273 33.6495C13.0273 54.1401 28.2115 55.9998 30.0521 55.9998C43.3421 55.9998 55.9986 45.0162 55.9986 29.9883C55.9986 13.2846 41.4906 4.03222 30.0521 4.03222C33.2203 3.59347 47.1279 7.46093 47.1279 26.4691C47.1279 38.865 36.7432 45.6132 29.9889 42.7299C29.8337 42.6724 22.3469 39.719 22.3469 30.071C22.3469 20.4641 29.9413 17.4552 29.9413 17.4552V17.4552Z" fill="url(#paint1_linear)"/>
<defs>
<linearGradient id="paint0_linear" x1="11.6907" y1="11.6907" x2="48.3181" y2="48.3284" gradientUnits="userSpaceOnUse">
<stop/>
<stop offset="1" stop-color="white"/>
</linearGradient>
<linearGradient id="paint1_linear" x1="48.3221" y1="48.3233" x2="11.6948" y2="11.6856" gradientUnits="userSpaceOnUse">
<stop/>
<stop offset="1" stop-color="white"/>
</linearGradient>
</defs>
</svg>
