<svg width="60" height="60" viewBox="0 0 60 60" fill="none" xmlns="http://www.w3.org/2000/svg">
<path d="M37.0238 42.3437C38.1437 42.3437 39.0515 41.435 39.0515 40.314C39.0515 39.1929 38.1437 38.2842 37.0238 38.2842C35.9039 38.2842 34.9961 39.1929 34.9961 40.314C34.9961 41.435 35.9039 42.3437 37.0238 42.3437Z" fill="#7D64FF"/>
<path d="M44.6929 7.2002L32.1716 24.3081L21.6637 16.6347L4.80078 52.8002H55.2008L44.6929 7.2002ZM28.6535 44.8659L25.6584 40.7398V44.8659H22.8864V29.5324L25.6584 31.5474V39.3102L29.3461 34.2291L31.4492 35.7592L28.3537 40.0243L31.8671 44.8644H28.6535V44.8659ZM37.0243 45.0374C34.4176 45.0374 32.3057 42.9218 32.3057 40.314C32.3057 39.2747 32.641 38.3153 33.2096 37.5347L37.9414 31.0137L40.0445 32.5438L37.7878 35.6542C40.0312 36.0194 41.7429 37.9664 41.7429 40.3155C41.7429 42.9218 39.6309 45.0374 37.0243 45.0374Z" fill="#7D64FF"/>
</svg>
