<?xml version="1.0" encoding="UTF-8"?>
<svg xmlns="http://www.w3.org/2000/svg" xmlns:xlink="http://www.w3.org/1999/xlink" width="60px" height="60px" viewBox="0 0 60 60" version="1.1">
<g id="surface1">
<path style=" stroke:none;fill-rule:nonzero;fill:#006bb8;fill-opacity:1;" d="M 29.613281 1.0625 C 29.445312 1.09375 29.191406 1.15625 29.050781 1.203125 C 28.773438 1.296875 8.054688 11.242188 7.671875 11.46875 C 7.359375 11.648438 6.804688 12.167969 6.578125 12.488281 C 6.378906 12.773438 6.140625 13.238281 6.027344 13.554688 C 5.988281 13.671875 4.753906 18.863281 3.285156 25.085938 L 0.625 36.402344 L 0.625 37 C 0.625 37.828125 0.769531 38.363281 1.167969 39.015625 C 1.363281 39.332031 5.042969 44.015625 5.085938 44.003906 C 5.105469 44 7.765625 40.703125 11 36.679688 L 16.875 29.363281 L 16.742188 29.328125 C 16.671875 29.308594 16.414062 29.226562 16.171875 29.152344 C 14.269531 28.554688 12.691406 27.25 11.722656 25.464844 C 11.339844 24.761719 10.984375 23.667969 10.871094 22.828125 C 10.804688 22.355469 10.804688 21.28125 10.871094 20.828125 C 11.238281 18.242188 12.820312 16.042969 15.132812 14.90625 C 16.957031 14.011719 18.996094 13.871094 20.929688 14.515625 C 22.808594 15.140625 24.421875 16.5 25.300781 18.1875 L 25.527344 18.621094 L 31.394531 11.328125 C 34.621094 7.320312 37.265625 4.019531 37.269531 3.992188 C 37.28125 3.941406 31.925781 1.328125 31.550781 1.203125 C 30.960938 1.007812 30.222656 0.953125 29.613281 1.0625 Z M 29.613281 1.0625 "/>
<path style=" stroke:none;fill-rule:nonzero;fill:#006bb8;fill-opacity:1;" d="M 40.570312 6.683594 C 40.210938 7.132812 36 12.363281 31.21875 18.308594 C 26.433594 24.257812 19.210938 33.242188 15.160156 38.277344 C 11.109375 43.3125 7.796875 47.4375 7.796875 47.449219 C 7.796875 47.488281 10.394531 50.792969 10.425781 50.800781 C 10.441406 50.804688 18.242188 41.121094 27.761719 29.285156 C 37.28125 17.441406 45.070312 7.75 45.078125 7.742188 C 45.09375 7.730469 41.289062 5.875 41.25 5.875 C 41.234375 5.875 40.929688 6.242188 40.570312 6.683594 Z M 40.570312 6.683594 "/>
<path style=" stroke:none;fill-rule:nonzero;fill:#006bb8;fill-opacity:1;" d="M 48.460938 10.324219 C 44.128906 15.683594 13.15625 54.238281 13.160156 54.257812 C 13.179688 54.316406 15.457031 57.191406 15.632812 57.378906 L 15.8125 57.574219 L 34.28125 34.621094 C 44.441406 22 52.777344 11.636719 52.804688 11.597656 C 52.847656 11.535156 52.839844 11.515625 52.710938 11.4375 C 52.59375 11.371094 49.238281 9.71875 49.066406 9.648438 C 49.042969 9.640625 48.769531 9.9375 48.460938 10.324219 Z M 48.460938 10.324219 "/>
<path style=" stroke:none;fill-rule:nonzero;fill:#006bb8;fill-opacity:1;" d="M 37.652344 37.207031 L 20.429688 58.628906 L 23.09375 58.640625 L 25.761719 58.648438 L 25.851562 58.5625 C 25.980469 58.425781 55.976562 21.101562 56 21.042969 C 56.011719 21.011719 54.945312 16.03125 54.878906 15.820312 C 54.875 15.804688 47.121094 25.429688 37.652344 37.207031 Z M 37.652344 37.207031 "/>
<path style=" stroke:none;fill-rule:nonzero;fill:#006bb8;fill-opacity:1;" d="M 17.890625 18.445312 C 16.558594 18.707031 15.542969 19.652344 15.1875 20.96875 C 15.121094 21.21875 15.101562 21.40625 15.101562 21.828125 C 15.097656 22.496094 15.15625 22.761719 15.460938 23.382812 C 15.660156 23.800781 15.714844 23.875 16.0625 24.226562 C 16.617188 24.78125 17.152344 25.070312 17.890625 25.207031 C 18.3125 25.285156 18.984375 25.269531 19.367188 25.167969 C 20.726562 24.804688 21.6875 23.742188 21.914062 22.371094 C 21.96875 22.007812 21.941406 21.304688 21.851562 20.988281 C 21.644531 20.222656 21.273438 19.636719 20.695312 19.171875 C 20.328125 18.875 19.828125 18.617188 19.402344 18.507812 C 18.996094 18.402344 18.269531 18.375 17.890625 18.445312 Z M 17.890625 18.445312 "/>
<path style=" stroke:none;fill-rule:nonzero;fill:#006bb8;fill-opacity:1;" d="M 44.277344 42.441406 C 37.175781 51.269531 31.339844 58.527344 31.308594 58.574219 C 31.25 58.652344 31.269531 58.652344 36.523438 58.636719 L 41.796875 58.625 L 42.136719 58.535156 C 42.917969 58.328125 43.71875 57.824219 44.210938 57.234375 C 44.8125 56.519531 58.558594 39.382812 58.714844 39.152344 C 58.945312 38.832031 59.1875 38.304688 59.296875 37.910156 C 59.367188 37.65625 59.382812 37.484375 59.382812 36.941406 L 59.386719 36.28125 L 58.316406 31.402344 C 57.730469 28.71875 57.234375 26.492188 57.21875 26.457031 C 57.199219 26.40625 54.09375 30.234375 44.277344 42.441406 Z M 44.277344 42.441406 "/>
</g>
</svg>
