<svg width="18" height="18" viewBox="0 0 18 18" fill="none" xmlns="http://www.w3.org/2000/svg">
    <path
        d="M7.5 9.749C7.82209 10.1796 8.23302 10.5359 8.70491 10.7937C9.17681 11.0515 9.69863 11.2048 10.235 11.2432C10.7713 11.2817 11.3097 11.2043 11.8135 11.0163C12.3173 10.8284 12.7748 10.5343 13.155 10.154L15.405 7.904C16.0881 7.19674 16.4661 6.24948 16.4575 5.26624C16.449 4.28301 16.0546 3.34246 15.3593 2.64718C14.664 1.9519 13.7235 1.55751 12.7403 1.54897C11.757 1.54043 10.8098 1.9184 10.1025 2.6015L8.8125 3.884"
        stroke="#7D64FF" stroke-width="2" stroke-linecap="round" stroke-linejoin="round" />
    <path
        d="M10.5006 8.24992C10.1785 7.81933 9.76762 7.46304 9.29573 7.20522C8.82383 6.9474 8.30201 6.79409 7.76565 6.75567C7.22929 6.71726 6.69095 6.79465 6.18713 6.98259C5.68331 7.17053 5.2258 7.46462 4.84564 7.84492L2.59564 10.0949C1.91255 10.8022 1.53457 11.7494 1.54311 12.7327C1.55165 13.7159 1.94604 14.6565 2.64132 15.3517C3.3366 16.047 4.27715 16.4414 5.26038 16.45C6.24362 16.4585 7.19088 16.0805 7.89814 15.3974L9.18064 14.1149"
        stroke="#7D64FF" stroke-width="2" stroke-linecap="round" stroke-linejoin="round" />
</svg>