<svg viewBox="0 0 50 45" fill="none" xmlns="http://www.w3.org/2000/svg">
<path d="M31.9677 34.681C33.0787 34.681 33.9793 33.7841 33.9793 32.6779C33.9793 31.5716 33.0787 30.6748 31.9677 30.6748C30.8567 30.6748 29.9561 31.5716 29.9561 32.6779C29.9561 33.7841 30.8567 34.681 31.9677 34.681Z" fill="#7D64FF"/>
<path d="M39.5755 0L27.1536 16.8828L16.7291 9.31034L0 45H50L39.5755 0ZM23.6634 37.1701L20.6921 33.0983V37.1701H17.942V22.0383L20.6921 24.0268V31.6875L24.3505 26.6733L26.4369 28.1832L23.366 32.3922L26.8515 37.1686H23.6634V37.1701ZM31.9678 37.3393C29.3818 37.3393 27.2867 35.2516 27.2867 32.6781C27.2867 31.6525 27.6193 30.7057 28.1833 29.9354L32.8776 23.5002L34.964 25.0101L32.7252 28.0796C34.9508 28.44 36.6489 30.3614 36.6489 32.6796C36.6489 35.2516 34.5537 37.3393 31.9678 37.3393Z" fill="#7D64FF"/>
</svg>
