<svg width="75" height="61" viewBox="0 0 75 61" fill="none" xmlns="http://www.w3.org/2000/svg">
<path fill-rule="evenodd" clip-rule="evenodd" d="M39.1536 16.8828L51.5755 0L62 45H12L28.7291 9.31034L39.1536 16.8828ZM32.6921 33.0983L35.6634 37.1701V37.1686H38.8515L35.366 32.3922L38.4369 28.1832L36.3505 26.6733L32.6921 31.6875V24.0268L29.942 22.0383V37.1701H32.6921V33.0983ZM39.2867 32.6781C39.2867 35.2516 41.3818 37.3393 43.9678 37.3393C46.5537 37.3393 48.6489 35.2516 48.6489 32.6796C48.6489 30.3614 46.9508 28.44 44.7253 28.0796L46.964 25.0101L44.8776 23.5002L40.1833 29.9354C39.6193 30.7057 39.2867 31.6525 39.2867 32.6781ZM45.9793 32.6779C45.9793 33.7841 45.0786 34.681 43.9677 34.681C42.8567 34.681 41.956 33.7841 41.956 32.6779C41.956 31.5716 42.8567 30.6748 43.9677 30.6748C45.0786 30.6748 45.9793 31.5716 45.9793 32.6779Z" fill="#7D64FF"/>
<path d="M21.2177 55.4724C21.1332 57.5666 19.4456 59.1973 17.3448 59.1973C15.129 59.1973 13.4824 57.444 13.4824 55.3278C13.4824 53.1922 15.2664 51.4375 17.4399 51.4375C18.421 51.4375 19.3809 51.8507 20.1943 52.5931L19.5618 53.3562C18.9399 52.8294 18.1899 52.4691 17.4412 52.4691C15.8474 52.4691 14.5401 53.7487 14.5401 55.3265C14.5401 56.9262 15.7747 58.1644 17.3474 58.1644C18.7616 58.1644 19.8695 57.1534 20.0913 55.8533H16.8839V54.9352H21.2203V55.4724H21.2177Z" fill="#5A5C87"/>
<path d="M24.9007 54.9688H24.3091C23.6568 54.9688 23.1273 55.4866 23.1273 56.1244V59.1367H22.0723V53.9785H22.9372V54.4123C23.2224 54.1335 23.6753 53.9785 24.1824 53.9785H25.3219L24.9007 54.9688Z" fill="#5A5C87"/>
<path d="M30.6491 59.1353H29.7525V58.4859C29.0592 59.1482 27.9646 59.4659 26.8567 58.9907C26.0354 58.6382 25.424 57.9062 25.2616 57.0424C24.9473 55.3742 26.2599 53.8945 27.9368 53.8945C28.6433 53.8945 29.2771 54.1734 29.7406 54.6266V53.9772H30.6478V59.1353H30.6491ZM29.5689 56.9275C29.8185 55.879 29.0064 54.9262 27.9474 54.9262C27.0297 54.9262 26.2902 55.6582 26.2902 56.5466C26.2902 57.5498 27.1921 58.3271 28.2419 58.1515C28.8889 58.043 29.421 57.5524 29.5689 56.9275Z" fill="#5A5C87"/>
<path d="M32.7769 53.6901V53.9793H34.4552V54.887H32.7769V59.1374H31.7324V53.7211C31.7324 52.5861 32.5656 51.916 33.6101 51.916H34.8764L34.4539 52.8857H33.6101C33.1466 52.8857 32.7769 53.2459 32.7769 53.6901Z" fill="#5A5C87"/>
<path d="M40.0456 59.1353H39.149V58.4859C38.4557 59.1482 37.3611 59.4659 36.2532 58.9907C35.4319 58.6382 34.8205 57.9062 34.6581 57.0424C34.3438 55.3742 35.6563 53.8945 37.3333 53.8945C38.0398 53.8945 38.6736 54.1734 39.1371 54.6266V53.9772H40.0442V59.1353H40.0456ZM38.9667 56.9275C39.2163 55.879 38.4042 54.9262 37.3452 54.9262C36.4275 54.9262 35.688 55.6582 35.688 56.5466C35.688 57.5498 36.5899 58.3271 37.6397 58.1515C38.2867 58.043 38.8175 57.5524 38.9667 56.9275Z" fill="#5A5C87"/>
<path d="M45.6835 56.0824V59.136H44.6285V56.0824C44.6285 55.4433 44.0897 54.9268 43.4466 54.9268C42.7825 54.9268 42.2543 55.4433 42.2543 56.0824V59.136H41.1992V53.9778H42.0747V54.422C42.455 54.0915 42.9607 53.8965 43.4889 53.8965C44.713 53.8952 45.6835 54.8752 45.6835 56.0824Z" fill="#5A5C87"/>
<path d="M51.8874 59.1353H50.9908V58.4859C50.2975 59.1482 49.2029 59.4659 48.095 58.9907C47.2737 58.6382 46.6623 57.9062 46.4999 57.0424C46.1856 55.3742 47.4981 53.8945 49.1751 53.8945C49.8816 53.8945 50.5154 54.1734 50.9789 54.6266V53.9772H51.886V59.1353H51.8874ZM50.8085 56.9275C51.0581 55.879 50.246 54.9262 49.187 54.9262C48.2693 54.9262 47.5298 55.6582 47.5298 56.5466C47.5298 57.5498 48.4317 58.3271 49.4815 58.1515C50.1285 58.043 50.6593 57.5524 50.8085 56.9275Z" fill="#5A5C87"/>
<path d="M59.1029 59.1368H55.123V51.457H56.1847V58.0884H59.1029V59.1368Z" fill="#5A5C87"/>
<path d="M64.7506 59.137H63.8487V58.4837C63.3812 58.9304 62.7342 59.2209 62.0238 59.2209C60.5066 59.2209 59.2852 58.0176 59.2852 56.5328C59.2852 55.0699 60.5053 53.8652 62.0238 53.8652C62.7355 53.8652 63.372 54.1454 63.8381 54.6025V53.9492H64.7506V59.137ZM63.71 56.5315C63.71 55.6393 62.9666 54.902 62.033 54.902C61.11 54.902 60.3666 55.6393 60.3666 56.5315C60.3666 57.4443 61.11 58.1712 62.033 58.1712C62.9679 58.1712 63.71 57.4456 63.71 56.5315Z" fill="#5A5C87"/>
<path d="M71.106 56.5438C71.106 58.017 69.8754 59.2217 68.3687 59.2217C67.657 59.2217 66.9994 58.9312 66.5319 58.4844V59.1377H65.6406V51.875H66.6917V54.4896C67.1275 54.1061 67.7217 53.8673 68.3687 53.8673C69.8754 53.8673 71.106 55.0603 71.106 56.5438ZM70.0232 56.5438C70.0232 55.6413 69.2693 54.9144 68.3568 54.9144C67.4444 54.9144 66.6904 55.6413 66.6904 56.5438C66.6904 57.436 67.4444 58.1629 68.3568 58.1629C69.2693 58.1629 70.0232 57.4373 70.0232 56.5438Z" fill="#5A5C87"/>
<path d="M74.7352 54.321L74.2678 55.0789C74.0446 54.9446 73.663 54.7368 73.2378 54.7368C72.8351 54.7368 72.4732 54.9343 72.4732 55.2558C72.4732 55.6083 72.8865 55.7439 73.4068 55.9298C74.2559 56.2203 74.9993 56.7807 74.9993 57.6315C74.9993 58.4927 74.2453 59.2197 73.1638 59.2197C72.5063 59.2197 71.8473 58.9601 71.4023 58.6903L71.817 57.8291C72.1246 58.006 72.6977 58.2229 73.1335 58.2229C73.6643 58.2229 73.898 57.9117 73.898 57.6109C73.898 57.2584 73.5692 57.0608 72.8364 56.7807C72.3055 56.5728 71.4459 56.2306 71.4459 55.3075C71.4459 54.4463 72.1999 53.8652 73.2074 53.8652C73.8016 53.8652 74.2889 54.0615 74.7352 54.321Z" fill="#5A5C87"/>
<path d="M11.2807 54.2937C11.2622 54.0923 11.2266 53.8599 11.1579 53.603C11.0893 53.3473 10.9876 53.0671 10.841 52.7753C10.6918 52.4861 10.4977 52.184 10.2468 51.8922C10.1491 51.7773 10.0421 51.6649 9.92593 51.5539C10.0989 50.8825 9.71597 50.3015 9.71597 50.3015C9.05574 50.2615 8.63583 50.5016 8.48002 50.6127C8.45361 50.6023 8.42852 50.5907 8.40211 50.5804C8.28987 50.5352 8.17367 50.4939 8.05483 50.4577C7.93599 50.4216 7.8145 50.388 7.69038 50.3583C7.56626 50.3299 7.43949 50.3054 7.31141 50.286C7.28896 50.2821 7.26651 50.2795 7.24406 50.277C6.9562 49.3757 6.12827 49 6.12827 49C5.20659 49.572 5.03097 50.3725 5.03097 50.3725C5.03097 50.3725 5.02701 50.3906 5.02172 50.4203C4.97023 50.4345 4.92005 50.4487 4.86855 50.4642C4.79724 50.4848 4.72858 50.5107 4.65728 50.5352C4.58729 50.5623 4.51731 50.5881 4.44732 50.6178C4.30867 50.6759 4.17002 50.7418 4.03534 50.8154C3.90461 50.8877 3.77653 50.9664 3.65108 51.0516C3.6326 51.0439 3.61939 51.0374 3.61939 51.0374C2.3425 50.561 1.20822 51.1343 1.20822 51.1343C1.10523 52.4629 1.71792 53.2995 1.83941 53.4506C1.80904 53.5332 1.78131 53.6159 1.7549 53.6998C1.65982 54.0006 1.58984 54.3092 1.54626 54.6294C1.53966 54.6746 1.53438 54.7211 1.5291 54.7676C0.349923 55.337 0 56.5055 0 56.5055C0.985066 57.6133 2.13255 57.6817 2.13255 57.6817C2.13387 57.6804 2.13519 57.6804 2.13519 57.6791C2.28176 57.9335 2.45078 58.1762 2.63961 58.4022C2.71883 58.4964 2.80334 58.5881 2.88917 58.6759C2.53001 59.6791 2.93935 60.5158 2.93935 60.5158C4.03534 60.5558 4.75631 60.0471 4.90684 59.9296C5.01644 59.9658 5.12604 59.9981 5.23828 60.0265C5.575 60.1117 5.91964 60.1607 6.26428 60.1762C6.35011 60.1801 6.43594 60.1814 6.52309 60.1814H6.56535L6.59308 60.1801L6.64721 60.1788L6.70135 60.1762L6.70267 60.1775C7.21898 60.898 8.12745 61 8.12745 61C8.77316 60.3338 8.81013 59.674 8.81013 59.5307C8.81013 59.5307 8.81013 59.5255 8.81013 59.5216C8.81013 59.51 8.81013 59.501 8.81013 59.501C8.81013 59.4906 8.80881 59.4816 8.80881 59.47C8.94482 59.377 9.07423 59.2776 9.19571 59.1704C9.45452 58.9419 9.68032 58.6811 9.86783 58.4009C9.88499 58.3751 9.90216 58.348 9.91932 58.3209C10.6509 58.3622 11.1658 57.878 11.1658 57.878C11.0444 57.133 10.6099 56.7702 10.5201 56.7005C10.5201 56.7005 10.5162 56.6979 10.5109 56.694C10.5056 56.6901 10.503 56.6875 10.503 56.6875C10.4977 56.685 10.4924 56.6811 10.4871 56.6772C10.4911 56.632 10.495 56.5881 10.4977 56.5429C10.503 56.4629 10.5056 56.3828 10.5056 56.3028V56.2434V56.2137V56.1982C10.5056 56.1775 10.5056 56.1853 10.5056 56.1775L10.503 56.1272L10.499 56.06C10.4977 56.0368 10.4964 56.0161 10.4937 55.9955C10.4924 55.9748 10.4898 55.9542 10.4871 55.9335L10.4792 55.8715L10.47 55.8096C10.4581 55.7282 10.4409 55.6469 10.4224 55.5655C10.3458 55.244 10.2177 54.9393 10.0487 54.6656C9.87971 54.3919 9.66844 54.1491 9.43207 53.9451C9.19439 53.7398 8.92898 53.5759 8.65036 53.4532C8.37174 53.3305 8.0786 53.2518 7.78677 53.2156C7.64152 53.1975 7.49495 53.1898 7.35102 53.1911L7.29688 53.1924H7.28368C7.27972 53.1924 7.26387 53.1924 7.26519 53.1924L7.24274 53.1937L7.18993 53.1975C7.17012 53.1988 7.14899 53.2001 7.1305 53.2027C7.05656 53.2092 6.98261 53.2195 6.91131 53.2337C6.62213 53.2866 6.34879 53.3886 6.10714 53.5294C5.86682 53.6701 5.65687 53.847 5.48653 54.0458C5.31619 54.246 5.18414 54.4668 5.09303 54.6953C5.00192 54.9238 4.95174 55.1601 4.93721 55.3899C4.93325 55.4467 4.93193 55.5048 4.93325 55.5604C4.93325 55.5746 4.93325 55.5888 4.93457 55.603L4.93589 55.6495C4.93853 55.6766 4.93985 55.705 4.9425 55.7321C4.95438 55.8483 4.97551 55.9593 5.0072 56.0678C5.07058 56.2821 5.17226 56.4771 5.29902 56.6423C5.42447 56.8076 5.575 56.9445 5.73477 57.0516C5.89455 57.1588 6.06489 57.235 6.23391 57.2828C6.40293 57.3318 6.57063 57.3525 6.72908 57.3525C6.74889 57.3525 6.7687 57.3525 6.7885 57.3512C6.79907 57.3512 6.80963 57.3499 6.8202 57.3499C6.83076 57.3499 6.84132 57.3486 6.85189 57.3486C6.86905 57.3473 6.8849 57.3447 6.90206 57.3434C6.90603 57.3434 6.91131 57.3422 6.91659 57.3422L6.93243 57.3396C6.943 57.3383 6.95224 57.337 6.96281 57.3357C6.98393 57.3331 7.0011 57.3292 7.02091 57.3254C7.03939 57.3215 7.05788 57.3189 7.07636 57.3138C7.11334 57.306 7.14767 57.2957 7.182 57.2841C7.25067 57.2621 7.31537 57.235 7.37611 57.2053C7.43685 57.1743 7.49231 57.1407 7.54381 57.1059C7.55833 57.0955 7.57286 57.0852 7.58738 57.0736C7.64284 57.031 7.65209 56.9522 7.60719 56.8993C7.5689 56.8528 7.50155 56.8412 7.44874 56.8696C7.43553 56.876 7.42233 56.8838 7.40912 56.8903C7.36291 56.9122 7.31537 56.9316 7.26387 56.9484C7.21237 56.9638 7.15955 56.9768 7.10409 56.9871C7.07636 56.991 7.04864 56.9948 7.01959 56.9974C7.00506 56.9987 6.99053 57 6.97733 57C6.96281 57 6.94828 57.0013 6.93508 57.0013C6.92187 57.0013 6.90735 57.0013 6.89414 57C6.87698 56.9987 6.85981 56.9987 6.84264 56.9974C6.84264 56.9974 6.8334 56.9974 6.84132 56.9974H6.83604L6.82416 56.9961C6.81623 56.9948 6.80831 56.9948 6.80171 56.9935C6.78586 56.9923 6.77134 56.9897 6.75549 56.9884C6.63137 56.9716 6.50592 56.9367 6.38576 56.8825C6.26428 56.8296 6.14808 56.7547 6.04376 56.663C5.93945 56.5713 5.84833 56.4603 5.77703 56.3351C5.70572 56.2098 5.65555 56.0717 5.63178 55.9258C5.61989 55.8535 5.61461 55.7773 5.61725 55.7037C5.61857 55.683 5.61857 55.6637 5.61989 55.643C5.61989 55.6482 5.61989 55.6404 5.61989 55.6391V55.6314L5.62121 55.6159C5.62253 55.6056 5.62253 55.5965 5.62386 55.5862C5.62782 55.5462 5.63442 55.5061 5.64102 55.4661C5.6978 55.1485 5.86022 54.8386 6.11243 54.6036C6.17581 54.5455 6.24315 54.49 6.31578 54.4422C6.3884 54.3932 6.46499 54.3505 6.54422 54.3144C6.62477 54.2782 6.70796 54.2485 6.79379 54.2266C6.87962 54.2046 6.96809 54.1892 7.05656 54.1814C7.10145 54.1775 7.14635 54.1762 7.19125 54.1762C7.20313 54.1762 7.21237 54.1762 7.22162 54.1762L7.25859 54.1775L7.28104 54.1788C7.29028 54.1788 7.28104 54.1788 7.285 54.1788H7.29424L7.33121 54.1814C7.42761 54.1892 7.524 54.2021 7.61908 54.224C7.80922 54.2653 7.99409 54.3338 8.16707 54.4267C8.51171 54.6139 8.80617 54.9057 8.98576 55.2582C9.07687 55.4338 9.14025 55.6223 9.17194 55.8173C9.17986 55.8664 9.18515 55.9154 9.18911 55.9645L9.19175 56.0019L9.19307 56.0394C9.19439 56.0523 9.19439 56.0639 9.19439 56.0768C9.19439 56.0897 9.19571 56.1026 9.19439 56.1117V56.144L9.19307 56.1801C9.19175 56.2046 9.19043 56.2434 9.18911 56.2679C9.18515 56.3221 9.17986 56.3751 9.17326 56.4293C9.16666 56.4822 9.15742 56.5352 9.14817 56.5881C9.13761 56.6411 9.12572 56.6927 9.11252 56.7444C9.08611 56.8476 9.05178 56.9509 9.01084 57.0504C8.9303 57.2505 8.82202 57.4403 8.69261 57.6159C8.43248 57.9658 8.07728 58.2511 7.67321 58.4319C7.47118 58.521 7.25727 58.5868 7.03939 58.6217C6.92979 58.6398 6.81887 58.6501 6.70796 58.654L6.68683 58.6553H6.66966H6.63401H6.57987H6.55214C6.56667 58.6553 6.5495 58.6553 6.55082 58.6553H6.54026C6.48084 58.654 6.42142 58.6514 6.36199 58.6462C6.12431 58.6294 5.89059 58.5881 5.66347 58.5236C5.43635 58.459 5.21583 58.3725 5.0072 58.264C4.58993 58.0458 4.21756 57.7476 3.92574 57.3873C3.77917 57.2079 3.65108 57.0155 3.54545 56.8128C3.43981 56.6101 3.35662 56.397 3.29456 56.1801C3.23382 55.9619 3.19552 55.7398 3.181 55.5152L3.17836 55.4726L3.17704 55.4622V55.4532V55.4351L3.17572 55.3977V55.3886V55.3757V55.3499L3.17439 55.2983V55.2879C3.17439 55.2892 3.17439 55.2892 3.17439 55.2841V55.2634C3.17439 55.2363 3.17572 55.2092 3.17572 55.1808C3.17968 55.0697 3.18892 54.9561 3.20477 54.8425C3.21929 54.7289 3.2391 54.6139 3.26287 54.5003C3.28663 54.3867 3.31568 54.2744 3.34738 54.1646C3.41208 53.9438 3.49263 53.7295 3.58902 53.5268C3.78049 53.1214 4.03138 52.7637 4.33376 52.4771C4.40903 52.4048 4.48694 52.3363 4.5688 52.2731C4.64935 52.2098 4.73386 52.1504 4.82101 52.0949C4.90684 52.0394 4.99663 51.9877 5.08907 51.9413C5.13396 51.9167 5.1815 51.8961 5.22772 51.8741C5.25148 51.8638 5.27525 51.8535 5.29902 51.8431C5.32279 51.8328 5.34656 51.8225 5.37033 51.8134C5.4654 51.7734 5.56443 51.7411 5.66347 51.7101C5.68856 51.7024 5.71365 51.6959 5.73874 51.6882C5.76382 51.6804 5.78891 51.6753 5.814 51.6675C5.86418 51.6533 5.91568 51.6417 5.96586 51.6301C5.99094 51.6236 6.01735 51.6185 6.04244 51.6133C6.06753 51.6081 6.09394 51.603 6.11903 51.5978C6.14544 51.5926 6.17053 51.5888 6.19694 51.5836L6.23523 51.5771L6.27352 51.572C6.29993 51.5681 6.32502 51.5642 6.35143 51.5604C6.38048 51.5552 6.40953 51.5539 6.43858 51.5487C6.46235 51.5462 6.50196 51.541 6.52573 51.5384C6.54422 51.5371 6.5627 51.5345 6.58119 51.5332L6.61816 51.5294L6.63665 51.5281L6.65778 51.5268C6.68683 51.5255 6.71588 51.5229 6.74625 51.5216L6.78982 51.519C6.78982 51.519 6.80567 51.519 6.79247 51.519H6.80171L6.8202 51.5178C6.84528 51.5165 6.87037 51.5152 6.89546 51.5139C6.9945 51.5113 7.09353 51.5113 7.19257 51.5139C7.38932 51.5216 7.5821 51.5423 7.76961 51.5771C8.14462 51.6456 8.49718 51.7631 8.81674 51.918C9.13629 52.0704 9.42283 52.2589 9.67108 52.4629C9.68692 52.4758 9.70145 52.4887 9.71729 52.5016C9.73182 52.5145 9.74766 52.5274 9.76219 52.5403C9.79256 52.5662 9.82161 52.5933 9.85066 52.6191C9.87971 52.6449 9.90744 52.672 9.93517 52.6992C9.9629 52.7263 9.99063 52.7534 10.0157 52.7805C10.1214 52.8903 10.2191 53 10.3062 53.111C10.4832 53.3331 10.6245 53.5578 10.7367 53.7695C10.7433 53.7824 10.7512 53.7954 10.7578 53.8096C10.7644 53.8225 10.771 53.8354 10.7776 53.8496C10.7908 53.8754 10.804 53.9012 10.8159 53.927C10.8278 53.9529 10.841 53.9787 10.8516 54.0032C10.8635 54.0291 10.874 54.0536 10.8846 54.0781C10.9268 54.1775 10.9651 54.2718 10.9955 54.3609C11.047 54.5042 11.0853 54.6346 11.1143 54.7482C11.1262 54.7934 11.1698 54.8231 11.2173 54.8192C11.2662 54.8154 11.3045 54.7753 11.3058 54.7276C11.2979 54.5985 11.2952 54.4564 11.2807 54.2937Z" fill="#5A5C87"/>
</svg>
