<svg width="62" height="60" viewBox="0 0 62 60" fill="none" xmlns="http://www.w3.org/2000/svg">
<path d="M29.8689 46.6173C20.4547 46.6173 12.826 39.0189 12.826 29.6448C12.826 20.2733 20.4549 12.6761 29.8689 12.6761C39.2806 12.6761 46.9111 20.2733 46.9111 29.6448C46.9111 39.0186 39.2806 46.6173 29.8689 46.6173ZM61.5448 23.3872C58.6371 10.0752 42.6058 2.24471 25.7365 5.89707C8.86747 9.54943 -2.45211 23.3023 0.455348 36.6131C3.36207 49.9248 19.3939 57.7553 36.2632 54.1029C53.1324 50.4503 64.451 36.6975 61.545 23.3872H61.5448Z" fill="#388594"/>
<path d="M29.7937 46.2944C20.5383 46.2944 13.0383 38.8243 13.0383 29.6086C13.0383 20.3949 20.5383 12.9259 29.7937 12.9259C39.0465 12.9259 46.5482 20.3949 46.5482 29.6084C46.5482 38.8243 39.0465 46.2944 29.7937 46.2944V46.2944ZM34.039 8.59277C22.0023 8.59277 12.2422 18.3103 12.2422 30.2962C12.2422 42.2828 22.0023 52.0005 34.039 52.0005C46.0752 52.0005 55.8358 42.2828 55.8358 30.2962C55.8358 18.3105 46.0752 8.59277 34.039 8.59277V8.59277Z" fill="#94D1CC"/>
</svg>
