<svg width="2500" height="2031" viewBox="0 0 256 208" xmlns="http://www.w3.org/2000/svg" preserveAspectRatio="xMinYMin meet">
  <path d="M123.326 172.739c-38.872 0-70.371-31.508-70.371-70.379 0-38.86 31.5-70.363 70.371-70.363 38.861 0 70.368 31.503 70.368 70.363 0 38.87-31.507 70.379-70.368 70.379zm130.791-96.327c-12.006-55.2-78.2-87.67-147.854-72.525C36.61 19.032-10.129 76.06 1.876 131.255c12.002 55.199 78.198 87.669 147.852 72.524 69.654-15.146 116.389-72.174 104.39-127.367z" fill="#37808C" />
  <path d="M122.998 171.402c-38.216 0-69.184-30.976-69.184-69.19 0-38.206 30.968-69.177 69.184-69.177 38.205 0 69.18 30.971 69.18 69.176 0 38.215-30.975 69.191-69.18 69.191zm17.529-156.335c-49.7 0-90 40.295-90 89.996 0 49.704 40.3 90 90 90 49.698 0 90-40.296 90-90 0-49.7-40.302-89.996-90-89.996z" fill="#9BD3CD" />
  <g fill="#1B1A19">
    <path d="M98.016 94.949l-7.548-15.826c-1.801-3.75-3.652-7.986-4.285-9.983l-.146.146c.244 2.825.293 6.38.341 9.35l.195 16.313H81.07V61.252h6.33l8.18 16.459c1.559 3.116 3.02 7.109 3.458 8.667l.146-.146c-.146-1.704-.487-6.525-.487-9.593L98.6 61.252h5.308v33.697h-5.892M118.662 73.766c-3.02 0-4.675 2.386-4.675 6.38h9.106c0-3.994-1.753-6.38-4.431-6.38zm-4.724 10.324v.39c0 3.408 1.267 7.011 6.087 7.011 2.289 0 4.286-.827 6.136-2.434l2.094 3.262c-2.58 2.191-5.552 3.263-8.862 3.263-6.964 0-11.347-5.016-11.347-12.905 0-4.333.926-7.207 3.068-9.641 1.997-2.289 4.431-3.312 7.548-3.312 2.434 0 4.675.634 6.768 2.533 2.143 1.948 3.214 4.967 3.214 10.713v1.12h-14.706zM157.13 95.046h-5.017L149.094 83.7c-.779-2.922-1.607-6.72-1.607-6.72h-.097s-.39 2.435-1.607 6.964l-2.97 11.102h-5.016l-6.72-24.396 5.308-.73 2.678 11.93a157.494 157.494 0 0 1 1.266 6.476h.147s.486-3.214 1.411-6.623l3.166-11.394h5.259l2.775 11.102c1.023 3.993 1.559 7.013 1.559 7.013h.146s.584-3.75 1.217-6.623l2.532-11.492h5.552l-6.964 24.737M85.995 109.153h-3.068v10.665H85.8c2.922 0 4.48-.39 5.503-1.412.925-.926 1.51-2.338 1.51-4.091 0-3.409-1.85-5.162-6.818-5.162zm7.79 29.169l-2.92-5.21c-2.338-4.14-3.896-6.477-5.746-8.328-.634-.633-1.12-.973-2.192-1.022v14.56h-5.502v-33.697h10.274c7.548 0 10.957 4.382 10.957 9.641 0 4.821-3.117 9.252-8.376 9.252 1.218.633 3.457 3.896 5.21 6.72l4.968 8.084h-6.672zM112.532 117.14c-3.018 0-4.674 2.386-4.674 6.378h9.106c0-3.992-1.753-6.379-4.432-6.379zm-4.723 10.323v.39c0 3.408 1.266 7.012 6.087 7.012 2.289 0 4.285-.829 6.136-2.435l2.093 3.262c-2.58 2.191-5.55 3.263-8.862 3.263-6.964 0-11.346-5.016-11.346-12.904 0-4.335.925-7.208 3.068-9.642 1.996-2.289 4.431-3.311 7.547-3.311 2.435 0 4.675.633 6.77 2.532 2.142 1.948 3.213 4.967 3.213 10.713v1.12h-14.706zM132.545 138.857c-5.405 0-5.405-4.87-5.405-6.963v-20.988c0-3.36-.146-5.162-.487-7.207l5.502-1.217c.39 1.51.438 3.555.438 6.768v20.891c0 3.311.146 3.847.536 4.432.292.438 1.12.68 1.753.389l.876 3.31c-.973.39-1.996.585-3.213.585M139.167 138.322v-24.25l5.405-.974v25.224h-5.405zm2.678-28.292c-1.948 0-3.458-1.607-3.458-3.555 0-1.996 1.558-3.603 3.555-3.603 1.899 0 3.506 1.558 3.506 3.603 0 1.948-1.607 3.555-3.603 3.555zM159.91 138.955c-6.72 0-10.47-4.723-10.47-12.661 0-8.96 5.357-13.245 10.86-13.245 2.678 0 4.625.633 6.816 2.678l-2.678 3.555c-1.46-1.315-2.726-1.9-4.139-1.9-1.704 0-3.116.877-3.895 2.484-.73 1.51-1.023 3.799-1.023 6.866 0 3.36.536 5.503 1.656 6.72.779.877 1.947 1.413 3.262 1.413 1.705 0 3.36-.829 4.967-2.435l2.532 3.262c-2.24 2.24-4.577 3.263-7.888 3.263M172.65 133.903a1.627 1.627 0 0 0-.458-.058h-.292v1.098h.273c.35 0 .505-.039.612-.136a.574.574 0 0 0 .156-.408c0-.253-.097-.418-.292-.496zm.427 3.344c-.156-.272-.224-.38-.38-.67-.398-.73-.524-.934-.67-.992a.27.27 0 0 0-.127-.03v1.692h-.797v-4.054h1.507c.72 0 1.196.477 1.196 1.186 0 .613-.408 1.108-.904 1.118a.926.926 0 0 1 .165.175c.233.292.972 1.575.972 1.575h-.962zm-.71-4.9c-1.536 0-2.77 1.283-2.77 2.897 0 1.614 1.234 2.917 2.77 2.917s2.78-1.303 2.78-2.917c0-1.614-1.244-2.897-2.78-2.897zm0 6.514a3.6 3.6 0 0 1-3.597-3.617 3.606 3.606 0 0 1 3.597-3.616 3.606 3.606 0 0 1 3.597 3.616 3.6 3.6 0 0 1-3.597 3.617z" />
  </g>
</svg>