<svg width="16" height="16" viewBox="0 0 16 16" fill="none" xmlns="http://www.w3.org/2000/svg">
<path fill-rule="evenodd" clip-rule="evenodd" d="M15 8C15 11.866 11.866 15 8 15C4.13401 15 1 11.866 1 8C1 4.13401 4.13401 1 8 1C11.866 1 15 4.13401 15 8ZM5.5 4.43934L6.03033 4.96967L8 6.93934L9.96967 4.96967L10.5 4.43934L11.5607 5.5L11.0303 6.03033L9.06066 8L11.0303 9.96967L11.5607 10.5L10.5 11.5607L9.96967 11.0303L8 9.06066L6.03033 11.0303L5.5 11.5607L4.43934 10.5L4.96967 9.96967L6.93934 8L4.96967 6.03033L4.43934 5.5L5.5 4.43934Z" fill="#FA3287"/>
</svg>
