<svg width="60" height="60" viewBox="0 0 60 60" fill="none" xmlns="http://www.w3.org/2000/svg">
<path d="M50.6014 15.786C53.3341 10.6988 52.4407 6.55552 52.4407 6.55552C52.4407 6.55552 48.2891 9.75473 45.714 10.489C41.4048 7.02753 35.9394 4.92969 30.001 4.92969C24.1677 4.92969 18.8074 6.92264 14.5506 10.2792C11.9756 9.80718 7.40355 6.24084 7.40355 6.24084C7.40355 6.24084 6.4576 10.489 9.40053 15.7336C6.56271 19.7719 4.93359 24.7019 4.93359 29.9989C4.93359 43.8447 16.1797 55.0682 30.001 55.0682C43.8222 55.0682 55.0683 43.8447 55.0683 29.9989C55.0683 24.7543 53.3867 19.8244 50.6014 15.786Z" fill="#AEDEDE"/>
<path fill-rule="evenodd" clip-rule="evenodd" d="M14.3315 9.27114C18.6878 5.95795 24.113 4 30 4C35.9796 4 41.495 6.05036 45.8971 9.44932C46.9791 9.04686 48.3367 8.2525 49.53 7.47009C50.1946 7.03429 50.7817 6.62019 51.2026 6.31495C51.4129 6.16251 51.581 6.03767 51.696 5.95142C51.7535 5.90831 51.7977 5.87487 51.8271 5.85248L51.86 5.82737L51.8678 5.82136L51.8696 5.82005M51.8696 5.82005L53.0404 4.91781L53.3515 6.36078L52.4398 6.55659C53.3515 6.36078 53.3516 6.36119 53.3517 6.36161L53.3519 6.36254L53.3524 6.36469L53.3535 6.37012L53.3567 6.38557C53.3591 6.39788 53.3623 6.41421 53.3661 6.43447C53.3736 6.47498 53.3835 6.5312 53.3945 6.60234C53.4165 6.74459 53.4433 6.94668 53.4657 7.20227C53.5106 7.71323 53.5381 8.43949 53.4752 9.32966C53.3571 10.9993 52.9202 13.2462 51.6825 15.7249C54.3805 19.82 56 24.756 56 30C56 44.3585 44.3376 56 30 56C15.6624 56 4 44.3585 4 30C4 24.7168 5.56425 19.7796 8.30863 15.6776C6.97447 13.1234 6.49902 10.8111 6.36755 9.0924C6.29754 8.177 6.32509 7.43056 6.37179 6.90536C6.39514 6.64266 6.42333 6.43495 6.4466 6.28869C6.45825 6.21554 6.46867 6.15771 6.47666 6.11601C6.48066 6.09516 6.48405 6.07833 6.48668 6.06563L6.49005 6.04969L6.49127 6.04406L6.49176 6.04183L6.49197 6.04087C6.49207 6.04042 6.49216 6.04 7.4026 6.24191L6.49216 6.04L6.81271 4.60045L7.97684 5.5085L7.97904 5.51022L7.98767 5.51691L8.02384 5.54482C8.05618 5.56969 8.10466 5.60679 8.16769 5.6545C8.29379 5.74995 8.4779 5.88771 8.70726 6.05487C9.16662 6.38967 9.8043 6.84006 10.5189 7.30377C11.2353 7.76866 12.018 8.23974 12.7689 8.62024C13.3533 8.91643 13.885 9.1403 14.3315 9.27114M8.19042 7.97611C8.5749 8.24698 9.02124 8.55236 9.50209 8.86439C10.2506 9.35009 11.0937 9.85909 11.9243 10.28C12.7417 10.6943 13.6051 11.0534 14.3812 11.1957L14.7965 11.2718L15.1279 11.0106C19.2257 7.77935 24.3837 5.86152 30 5.86152C35.7143 5.86152 40.9757 7.87951 45.1283 11.2151L45.5047 11.5175L45.9693 11.385C47.4084 10.9747 49.1962 9.91626 50.5542 9.02587C50.9512 8.76557 51.321 8.51316 51.6467 8.28538C51.6471 8.55916 51.6381 8.86483 51.6145 9.19858C51.5041 10.7603 51.0734 12.9366 49.7785 15.3473L49.5098 15.8474L49.8322 16.3148C52.517 20.2075 54.1347 24.9551 54.1347 30C54.1347 43.333 43.3049 54.1385 30 54.1385C16.6951 54.1385 5.86528 43.333 5.86528 30C5.86528 24.8957 7.43453 20.1521 10.1632 16.2691L10.4997 15.7902L10.2133 15.2799C8.81712 12.7917 8.35 10.5531 8.22743 8.95071C8.20005 8.59276 8.18986 8.26643 8.19042 7.97611Z" fill="#231F20"/>
<path d="M20.1203 32.3072C15.3381 32.3072 11.4492 28.4262 11.4492 23.6536C11.4492 18.881 15.3381 15 20.1203 15C24.9026 15 28.7914 18.881 28.7914 23.6536C28.7914 28.4262 24.9026 32.3072 20.1203 32.3072Z" fill="white"/>
<path d="M20.1181 15.6832C24.5325 15.6832 28.106 19.2496 28.106 23.655C28.106 28.0605 24.5325 31.6268 20.1181 31.6268C15.7038 31.6268 12.1302 28.0605 12.1302 23.655C12.1302 19.2496 15.7038 15.6832 20.1181 15.6832ZM20.1181 14.3721C14.968 14.3721 10.8164 18.5153 10.8164 23.655C10.8164 28.7948 14.968 32.938 20.1181 32.938C25.2682 32.9904 29.4724 28.7947 29.4724 23.655C29.4724 18.5153 25.2682 14.3721 20.1181 14.3721Z" fill="#231F20"/>
<path d="M19.4336 22.2899L20.1693 15.6816L20.8 22.3423L19.4336 22.2899Z" fill="#CE2229"/>
<path d="M20.117 25.3843C21.0748 25.3843 21.8513 24.6094 21.8513 23.6536C21.8513 22.6977 21.0748 21.9229 20.117 21.9229C19.1593 21.9229 18.3828 22.6977 18.3828 23.6536C18.3828 24.6094 19.1593 25.3843 20.117 25.3843Z" fill="#231F20"/>
<path fill-rule="evenodd" clip-rule="evenodd" d="M24.7937 25.2925C24.9017 25.1174 25.1314 25.0628 25.3069 25.1705L28.0396 26.8488C28.2151 26.9566 28.2698 27.1859 28.1618 27.361C28.0538 27.5361 27.824 27.5907 27.6486 27.4829L24.9159 25.8047C24.7404 25.6969 24.6857 25.4676 24.7937 25.2925Z" fill="#231F20"/>
<path fill-rule="evenodd" clip-rule="evenodd" d="M25.0586 23.6545C25.0586 23.4489 25.2256 23.2822 25.4317 23.2822H28.6373C28.8434 23.2822 29.0104 23.4489 29.0104 23.6545C29.0104 23.8601 28.8434 24.0268 28.6373 24.0268H25.4317C25.2256 24.0268 25.0586 23.8601 25.0586 23.6545Z" fill="#231F20"/>
<path fill-rule="evenodd" clip-rule="evenodd" d="M28.3495 20.1641C28.4237 20.356 28.328 20.5715 28.1358 20.6455L25.1403 21.7993C24.9481 21.8734 24.7321 21.7779 24.6579 21.5861C24.5837 21.3942 24.6794 21.1787 24.8716 21.1047L27.8671 19.9509C28.0593 19.8768 28.2753 19.9723 28.3495 20.1641Z" fill="#231F20"/>
<path fill-rule="evenodd" clip-rule="evenodd" d="M26.3739 17.0964C26.5196 17.2417 26.5196 17.4775 26.3739 17.6229L24.3243 19.6683C24.1787 19.8137 23.9425 19.8137 23.7968 19.6683C23.6511 19.5229 23.6511 19.2871 23.7968 19.1417L25.8463 17.0963C25.992 16.951 26.2282 16.951 26.3739 17.0964Z" fill="#231F20"/>
<path fill-rule="evenodd" clip-rule="evenodd" d="M23.7342 15.2894C23.9228 15.3722 24.0084 15.5919 23.9254 15.7802L22.7693 18.4025C22.6863 18.5907 22.4662 18.6761 22.2776 18.5933C22.089 18.5105 22.0034 18.2908 22.0864 18.1026L23.2425 15.4803C23.3255 15.2921 23.5456 15.2066 23.7342 15.2894Z" fill="#231F20"/>
<path fill-rule="evenodd" clip-rule="evenodd" d="M15.654 25.3472C15.762 25.5223 15.7073 25.7516 15.5318 25.8594L12.7991 27.5376C12.6236 27.6454 12.3938 27.5908 12.2859 27.4157C12.1779 27.2406 12.2326 27.0112 12.4081 26.9035L15.1408 25.2252C15.3162 25.1174 15.546 25.172 15.654 25.3472Z" fill="#231F20"/>
<path fill-rule="evenodd" clip-rule="evenodd" d="M11.2812 23.7073C11.2812 23.5016 11.4483 23.335 11.6543 23.335H14.86C15.066 23.335 15.233 23.5016 15.233 23.7073C15.233 23.9129 15.066 24.0796 14.86 24.0796H11.6543C11.4483 24.0796 11.2812 23.9129 11.2812 23.7073Z" fill="#231F20"/>
<path fill-rule="evenodd" clip-rule="evenodd" d="M11.9421 20.1567C12.0204 19.9665 12.2384 19.8757 12.4289 19.9538L15.3719 21.1601C15.5624 21.2382 15.6535 21.4557 15.5752 21.6459C15.4969 21.8361 15.279 21.9269 15.0884 21.8488L12.1455 20.6426C11.9549 20.5645 11.8639 20.3469 11.9421 20.1567Z" fill="#231F20"/>
<path fill-rule="evenodd" clip-rule="evenodd" d="M14.1283 17.1447C14.2759 17.0012 14.5121 17.0043 14.6559 17.1515L16.6529 19.197C16.7966 19.3442 16.7936 19.5799 16.646 19.7234C16.4984 19.8669 16.2623 19.8639 16.1185 19.7166L14.1215 17.6712C13.9777 17.5239 13.9808 17.2882 14.1283 17.1447Z" fill="#231F20"/>
<path fill-rule="evenodd" clip-rule="evenodd" d="M16.7112 15.3422C16.8998 15.2594 17.1199 15.3448 17.2029 15.533L18.359 18.1553C18.442 18.3435 18.3564 18.5632 18.1678 18.646C17.9792 18.7288 17.7591 18.6434 17.6761 18.4552L16.52 15.8329C16.437 15.6447 16.5226 15.425 16.7112 15.3422Z" fill="#231F20"/>
<path d="M39.8859 32.3062C35.1037 32.3062 31.2148 28.4252 31.2148 23.6526C31.2148 18.88 35.1037 14.999 39.8859 14.999C44.6682 14.999 48.557 18.88 48.557 23.6526C48.557 28.4252 44.6682 32.3062 39.8859 32.3062Z" fill="white"/>
<path d="M39.8838 15.6813C44.2981 15.6813 47.8717 19.2476 47.8717 23.6531C47.8717 28.0586 44.2981 31.6249 39.8838 31.6249C35.4694 31.6249 31.8958 28.0585 31.8958 23.6531C31.8958 19.2476 35.4694 15.6813 39.8838 15.6813ZM39.8838 14.3701C34.7337 14.3701 30.582 18.5134 30.582 23.6531C30.582 28.7928 34.7337 32.9885 39.8838 32.9885C45.0339 32.9885 49.1855 28.8452 49.1855 23.7055C49.1855 18.5658 45.0339 14.3701 39.8838 14.3701Z" fill="#231F20"/>
<path d="M39.1992 22.2899L39.935 15.6816L40.5656 22.3423L39.1992 22.2899Z" fill="#CE2229"/>
<path d="M39.8788 25.3843C40.8365 25.3843 41.613 24.6094 41.613 23.6536C41.613 22.6977 40.8365 21.9229 39.8788 21.9229C38.921 21.9229 38.1445 22.6977 38.1445 23.6536C38.1445 24.6094 38.921 25.3843 39.8788 25.3843Z" fill="#231F20"/>
<path fill-rule="evenodd" clip-rule="evenodd" d="M44.5593 25.2934C44.6673 25.1183 44.8971 25.0637 45.0725 25.1715L47.8052 26.8498C47.9807 26.9575 48.0354 27.1869 47.9274 27.362C47.8195 27.5371 47.5897 27.5917 47.4142 27.4839L44.6815 25.8056C44.506 25.6979 44.4513 25.4686 44.5593 25.2934Z" fill="#231F20"/>
<path fill-rule="evenodd" clip-rule="evenodd" d="M44.8164 23.6536C44.8164 23.4479 44.9834 23.2812 45.1895 23.2812H48.3951C48.6012 23.2812 48.7682 23.4479 48.7682 23.6536C48.7682 23.8592 48.6012 24.0259 48.3951 24.0259H45.1895C44.9834 24.0259 44.8164 23.8592 44.8164 23.6536Z" fill="#231F20"/>
<path fill-rule="evenodd" clip-rule="evenodd" d="M48.1151 20.1641C48.1893 20.356 48.0936 20.5715 47.9014 20.6455L44.9059 21.7993C44.7137 21.8734 44.4977 21.7779 44.4236 21.5861C44.3494 21.3942 44.4451 21.1787 44.6373 21.1047L47.6327 19.9509C47.825 19.8768 48.0409 19.9723 48.1151 20.1641Z" fill="#231F20"/>
<path fill-rule="evenodd" clip-rule="evenodd" d="M46.1356 17.0954C46.2813 17.2408 46.2813 17.4765 46.1356 17.6219L44.0861 19.6673C43.9404 19.8127 43.7042 19.8127 43.5585 19.6673C43.4128 19.5219 43.4128 19.2862 43.5585 19.1408L45.608 17.0954C45.7537 16.95 45.9899 16.95 46.1356 17.0954Z" fill="#231F20"/>
<path fill-rule="evenodd" clip-rule="evenodd" d="M43.4999 15.2894C43.6884 15.3722 43.7741 15.5919 43.6911 15.7802L42.5349 18.4025C42.4519 18.5907 42.2318 18.6761 42.0432 18.5933C41.8546 18.5105 41.769 18.2908 41.852 18.1026L43.0081 15.4803C43.0911 15.2921 43.3113 15.2066 43.4999 15.2894Z" fill="#231F20"/>
<path fill-rule="evenodd" clip-rule="evenodd" d="M35.4235 25.3472C35.5315 25.5223 35.4768 25.7516 35.3013 25.8594L32.5686 27.5376C32.3932 27.6454 32.1634 27.5908 32.0554 27.4157C31.9474 27.2406 32.0021 27.0112 32.1776 26.9035L34.9103 25.2252C35.0858 25.1174 35.3156 25.172 35.4235 25.3472Z" fill="#231F20"/>
<path fill-rule="evenodd" clip-rule="evenodd" d="M31.0508 23.7053C31.0508 23.4997 31.2178 23.333 31.4238 23.333H34.6295C34.8355 23.333 35.0026 23.4997 35.0026 23.7053C35.0026 23.9109 34.8355 24.0776 34.6295 24.0776H31.4238C31.2178 24.0776 31.0508 23.9109 31.0508 23.7053Z" fill="#231F20"/>
<path fill-rule="evenodd" clip-rule="evenodd" d="M31.7078 20.1567C31.786 19.9665 32.004 19.8757 32.1946 19.9538L35.1375 21.1601C35.3281 21.2382 35.4191 21.4557 35.3408 21.6459C35.2626 21.8361 35.0446 21.9269 34.854 21.8488L31.9111 20.6426C31.7205 20.5645 31.6295 20.3469 31.7078 20.1567Z" fill="#231F20"/>
<path fill-rule="evenodd" clip-rule="evenodd" d="M33.894 17.1447C34.0415 17.0012 34.2777 17.0043 34.4215 17.1515L36.4185 19.197C36.5623 19.3442 36.5592 19.5799 36.4116 19.7234C36.2641 19.8669 36.0279 19.8639 35.8841 19.7166L33.8871 17.6712C33.7433 17.5239 33.7464 17.2882 33.894 17.1447Z" fill="#231F20"/>
<path fill-rule="evenodd" clip-rule="evenodd" d="M36.4729 15.3402C36.6615 15.2574 36.8816 15.3428 36.9646 15.5311L38.1208 18.1534C38.2037 18.3416 38.1181 18.5613 37.9295 18.6441C37.741 18.7269 37.5208 18.6414 37.4378 18.4532L36.2817 15.8309C36.1987 15.6427 36.2843 15.423 36.4729 15.3402Z" fill="#231F20"/>
<path fill-rule="evenodd" clip-rule="evenodd" d="M9.30469 36.9229C9.30469 36.4089 9.72225 35.9922 10.2373 35.9922H49.8616C50.3767 35.9922 50.7943 36.4089 50.7943 36.9229C50.7943 37.437 50.3767 37.8537 49.8616 37.8537H10.2373C9.72225 37.8537 9.30469 37.437 9.30469 36.9229Z" fill="#231F20"/>
<path d="M19.9029 36.9766H13.8594V41.2771H19.9029V36.9766Z" fill="white"/>
<path d="M19.2232 37.6051V40.5945H14.4935V37.6051H19.2232ZM20.537 36.2939H13.1797V41.9057H20.537V36.2939Z" fill="#231F20"/>
<path d="M28.8404 36.9746H22.7969V45.8905H28.8404V36.9746Z" fill="white"/>
<path d="M28.1607 37.6051V45.2098H23.431V37.6051H28.1607V37.6051ZM29.4745 36.2939H22.1172V46.5209H29.4745V36.2939Z" fill="#231F20"/>
<path d="M37.4107 36.9756H31.3672V46.9404H37.4107V36.9756Z" fill="white"/>
<path d="M36.731 37.6051V46.2587H32.0013V37.6051H36.731ZM38.0448 36.2939H30.6875V47.5699H38.0448V36.2939Z" fill="#231F20"/>
<path d="M46.2896 36.9756H40.2461V39.8077H46.2896V36.9756Z" fill="white"/>
<path d="M45.6099 37.6051V39.126H40.8802V37.6051H45.6099ZM46.9237 36.2939H39.5664V40.4372H46.9237V36.2939Z" fill="#231F20"/>
</svg>
