
<!-- https://ingraind.org/svg/logo-statsD.svg -->
<svg xmlns="http://www.w3.org/2000/svg" xmlns:xlink="http://www.w3.org/1999/xlink" version="1.1" id="Layer_1" x="0px" y="0px" viewBox="-61 -5 192 81" style="enable-background:new 0 0 192 71;" xml:space="preserve">
<style type="text/css">
        .st0{fill:#FFFFFF;}
        .st1{fill:#AEDEDE;stroke:#231F20;stroke-width:2.5;}
        .st2{fill:#231F20;}
        .st3{fill:#CE2229;}
        .st4{fill:none;stroke:#231F20;stroke-linecap:round;}
        .st5{fill:none;stroke:#231F20;stroke-width:2.5;stroke-linecap:round;}
</style>
<circle class="st0" cx="35.10422" cy="35.80856" r="32.44606"/>
<desc>Created with Sketch.</desc>
<g>
        <g>
                <g>
                        <g>
                                <g>
                                        <path id="Path" class="st1" d="M61.41889,14.72081c3.66259-6.83215,2.46521-12.39647,2.46521-12.39647       s-5.56432,4.2965-9.01562,5.28259c-5.77563-4.64868-13.10081-7.46606-21.05991-7.46606       c-7.81823,0-15.00255,2.67651-20.70774,7.18432C9.64953,6.69128,3.52173,1.90173,3.52173,1.90173       S2.2539,7.60693,6.19824,14.65038C2.39477,20.07383,0.2113,26.69468,0.2113,33.80856       c0,18.59471,15.07298,33.66769,33.59726,33.66769s33.59726-15.07299,33.59726-33.66769       C67.40582,26.76511,65.15192,20.14427,61.41889,14.72081z"/>
                                        <g id="Group" transform="translate(7.747795, 12.678211)">
                                                <g>
                                                        <path id="Path_1_" class="st0" d="M12.81908,24.22947c-6.40954,0-11.62169-5.21215-11.62169-11.62169         S6.40954,0.98608,12.81908,0.98608s11.62169,5.21215,11.62169,11.62169S19.22862,24.22947,12.81908,24.22947z"/>
                                                        <path id="Shape" class="st2" d="M12.81908,1.90173c5.9165,0,10.70604,4.78955,10.70604,10.70605         s-4.78955,10.70604-10.70604,10.70604S2.11304,18.52427,2.11304,12.60778S6.90258,1.90173,12.81908,1.90173          M12.81908,0.14087c-6.90258,0-12.46691,5.56433-12.46691,12.46691S5.9165,25.07468,12.81908,25.07468         c6.90258,0.07043,12.53734-5.56433,12.53734-12.46691S19.72166,0.14087,12.81908,0.14087L12.81908,0.14087z"/>
                                                </g>
                                                <polygon id="Path_2_" class="st3" points="11.90343,10.77648 12.88951,1.90173 13.73473,10.84691       "/>
                                                <circle id="Oval" class="st2" cx="12.81908" cy="12.60778" r="2.32434"/>
                                                <line id="Path_3_" class="st4" x1="19.51036" y1="15.07298" x2="23.17295" y2="17.32689"/>
                                                <line id="Path_4_" class="st4" x1="19.93296" y1="12.60778" x2="24.22947" y2="12.60778"/>
                                                <line id="Path_5_" class="st4" x1="19.36949" y1="9.64953" x2="23.38425" y2="8.09997"/>
                                                <line id="Path_6_" class="st4" x1="18.10167" y1="6.90258" x2="20.84861" y2="4.15564"/>
                                                <line id="Path_7_" class="st4" x1="15.9182" y1="5.35302" x2="17.46776" y2="1.8313"/>
                                                <line id="Path_8_" class="st4" x1="6.40954" y1="15.14342" x2="2.74695" y2="17.39732"/>
                                                <line id="Path_9_" class="st4" x1="5.77563" y1="12.67821" x2="1.47912" y2="12.67821"/>
                                                <line id="Path_10_" class="st4" x1="6.26867" y1="9.71996" x2="2.32434" y2="8.09997"/>
                                                <line id="Path_11_" class="st4" x1="7.81823" y1="6.97302" x2="5.14172" y2="4.22607"/>
                                                <line id="Path_12_" class="st4" x1="10.0017" y1="5.42346" x2="8.45214" y2="1.90173"/>
                                        </g>
                                        <g id="Group_1_" transform="translate(34.512907, 12.678211)">
                                                <g>
                                                        <path id="Path_13_" class="st0" d="M12.53734,24.22947c-6.40954,0-11.62169-5.21215-11.62169-11.62169         S6.1278,0.98608,12.53734,0.98608s11.62169,5.21215,11.62169,11.62169S18.94688,24.22947,12.53734,24.22947z"/>
                                                        <path id="Shape_1_" class="st2" d="M12.53734,1.90173c5.9165,0,10.70604,4.78955,10.70604,10.70605         s-4.78955,10.70604-10.70604,10.70604S1.8313,18.52427,1.8313,12.60778S6.62084,1.90173,12.53734,1.90173 M12.53734,0.14087         c-6.90258,0-12.46691,5.56433-12.46691,12.46691s5.56433,12.53734,12.46691,12.53734s12.46691-5.56433,12.46691-12.46691         S19.43992,0.14087,12.53734,0.14087L12.53734,0.14087z"/>
                                                </g>
                                                <polygon id="Path_14_" class="st3" points="11.62169,10.77648 12.60778,1.90173 13.45299,10.84691       "/>
                                                <circle id="Oval_1_" class="st2" cx="12.53734" cy="12.60778" r="2.32434"/>
                                                <line id="Path_15_" class="st4" x1="19.22862" y1="15.07298" x2="22.89121" y2="17.32689"/>
                                                <line id="Path_16_" class="st4" x1="19.65123" y1="12.60778" x2="23.94773" y2="12.60778"/>
                                                <line id="Path_17_" class="st4" x1="19.08775" y1="9.64953" x2="23.10252" y2="8.09997"/>
                                                <line id="Path_18_" class="st4" x1="17.81993" y1="6.90258" x2="20.56688" y2="4.15564"/>
                                                <line id="Path_19_" class="st4" x1="15.63646" y1="5.35302" x2="17.18602" y2="1.8313"/>
                                                <line id="Path_20_" class="st4" x1="6.1278" y1="15.14342" x2="2.46521" y2="17.39732"/>
                                                <line id="Path_21_" class="st4" x1="5.49389" y1="12.67821" x2="1.19739" y2="12.67821"/>
                                                <line id="Path_22_" class="st4" x1="5.98693" y1="9.71996" x2="2.0426" y2="8.09997"/>
                                                <line id="Path_23_" class="st4" x1="7.53649" y1="6.97302" x2="4.85998" y2="4.22607"/>
                                                <line id="Path_24_" class="st4" x1="9.71996" y1="5.42346" x2="8.1704" y2="1.90173"/>
                                        </g>
                                        <line id="Path_25_" class="st5" x1="7.32519" y1="43.10592" x2="60.4328" y2="43.10592"/>
                                        <g id="Group_2_" transform="translate(11.269521, 42.260702)">
                                                <rect id="Rectangle" x="0.91565" y="0.91565" class="st0" width="8.09997" height="5.77563"/>
                                                <path id="Shape_2_" class="st2" d="M8.09997,1.76086v4.01477H1.76086V1.76086H8.09997 M9.86083,0H0v7.53649h9.86083V0        L9.86083,0z"/>
                                        </g>
                                        <g id="Group_3_" transform="translate(23.243386, 42.260702)">
                                                <rect id="Rectangle_1_" x="0.91565" y="0.91565" class="st0" width="8.09997" height="11.97387"/>
                                                <path id="Shape_3_" class="st2" d="M8.09997,1.76086v10.213H1.76086v-10.213H8.09997 M9.86083,0H0v13.73473h9.86083V0        L9.86083,0z"/>
                                        </g>
                                        <g id="Group_4_" transform="translate(34.512907, 42.260702)">
                                                <rect id="Rectangle_2_" x="1.12695" y="0.91565" class="st0" width="8.09997" height="13.38256"/>
                                                <path id="Shape_4_" class="st2" d="M8.31127,1.76086v11.62169H1.97217V1.76086H8.31127 M10.07213,0H0.2113v15.14342h9.86083V0        L10.07213,0z"/>
                                        </g>
                                        <g id="Group_5_" transform="translate(46.486772, 42.260702)">
                                                <rect id="Rectangle_3_" x="1.05652" y="0.91565" class="st0" width="8.09997" height="3.80346"/>
                                                <path id="Shape_5_" class="st2" d="M8.24084,1.76086v2.0426H1.90173v-2.0426H8.24084 M10.0017,0H0.14087v5.56433h9.86083V0        L10.0017,0z"/>
                                        </g>

                                </g>
                        </g>
                </g>
        </g>
</g>
</svg>