<svg width="81" height="81" viewBox="0 0 81 81" fill="none" xmlns="http://www.w3.org/2000/svg">
<g clip-path="url(#clip0)">
<path d="M40.6555 77.4025C60.9122 77.4025 77.3334 60.7904 77.3334 40.2982C77.3334 19.806 60.9122 3.19385 40.6555 3.19385C20.3989 3.19385 3.97766 19.806 3.97766 40.2982C3.97766 60.7904 20.3989 77.4025 40.6555 77.4025Z" fill="#131E34"/>
<path d="M40.5047 0.522461C18.662 0.522461 0.959717 18.4306 0.959717 40.5272C0.959717 62.6238 18.662 80.532 40.5047 80.532C62.3473 80.532 80.0496 62.6238 80.0496 40.5272C80.0402 18.4306 62.3378 0.522461 40.5047 0.522461ZM58.5842 11.504C61.6588 13.4598 64.4033 15.9023 66.7139 18.7169L63.4602 23.4205C60.7534 19.7377 57.1979 16.7228 53.0953 14.6906L58.5842 11.504ZM44.6544 63.5111C44.8241 63.5111 44.975 63.5016 45.1354 63.473L46.484 65.3811C45.9087 65.6006 45.3051 65.7151 44.6544 65.7151C42.9473 65.7151 41.4289 64.885 40.4669 63.6161C39.505 64.8945 37.996 65.7151 36.2795 65.7151C35.6948 65.7151 35.1478 65.6197 34.629 65.4479L36.006 63.492C36.1003 63.5016 36.204 63.5111 36.2889 63.5111C37.7036 63.5111 38.8919 62.5475 39.2597 61.2404L32.5165 58.5499L34.1292 54.4664L40.4858 57.052L46.833 54.4569L48.4552 58.5499L41.6458 61.1832C42.0136 62.5284 43.2303 63.5111 44.6544 63.5111ZM26.9143 34.526L25.3205 34.1062C27.0275 29.956 30.3378 26.6644 34.4593 25.0043C34.3555 25.6149 34.2895 26.2446 34.2424 26.8934C30.9697 28.439 28.3573 31.1677 26.9143 34.526ZM32.507 40.1551L29.9134 41.9107L25.1601 40.1551L24.2925 38.4092L25.9995 36.6155L31.6488 37.5314L32.507 40.1551ZM39.6464 42.1015C39.6181 42.0728 39.5804 42.0538 39.5521 42.0347C39.4012 41.9297 39.2597 41.8248 39.1183 41.7198C38.5147 41.4336 38.0054 40.8135 37.6942 39.9929C37.5433 39.6686 37.4584 39.3346 37.4301 39.0198C37.3735 38.7336 37.3452 38.4282 37.3358 38.1134C37.3358 38.0752 37.3452 38.0371 37.3452 37.9989H37.3358L38.8542 19.1462H40.5047L42.2777 37.8653C42.2872 37.8749 42.2966 37.8844 42.3154 37.8844L58.9992 50.9745L58.0372 52.3293L39.6464 42.1015ZM56.085 40.1551L51.3222 41.9107L48.7287 40.1551L49.5963 37.5314L55.2362 36.6155L56.9526 38.4092L56.085 40.1551ZM56.7546 42.8552C56.6226 43.7711 56.4151 44.668 56.1416 45.5266C55.7172 45.1355 55.2645 44.7538 54.7835 44.3626C54.9155 43.8665 55.0192 43.3704 55.1041 42.8552H56.7546ZM54.1139 34.5833C52.4728 30.7002 49.2568 27.6566 45.2674 26.3018C45.192 25.6626 45.0882 25.0615 44.975 24.4795C49.851 25.8725 53.8026 29.4885 55.7077 34.1635L54.1139 34.5833ZM58.075 47.5493C58.9238 45.3644 59.4048 42.9888 59.4048 40.4986C59.4048 31.1963 52.8406 23.4491 44.1451 21.7318C43.7584 20.7872 43.2869 19.9667 42.7587 19.2988C53.3499 20.4437 61.5834 29.4885 61.5834 40.4986C61.5834 43.8093 60.8383 46.9291 59.5085 49.7151C59.1973 49.0567 58.7163 48.3126 58.075 47.5493ZM40.5047 13.6507C44.5695 13.6507 48.4174 14.5857 51.8598 16.2267L50.2376 19.108C47.2763 17.7246 43.9753 16.9518 40.5047 16.9518C37.0246 16.9518 33.7142 17.7246 30.7528 19.1176L29.1307 16.2362C32.573 14.5857 36.4304 13.6507 40.5047 13.6507ZM22.6986 11.2655L27.8763 14.6525C23.9624 16.5988 20.5483 19.4038 17.8887 22.848L14.22 18.6882C16.6155 15.7687 19.4826 13.2595 22.6986 11.2655ZM27.0935 72.4414C17.4737 68.2911 10.108 59.7902 7.44837 49.3716L11.9282 43.4754C12.8619 53.4265 18.7658 61.9083 27.0935 66.3543C26.9992 67.3942 26.9521 68.4437 26.9521 69.5123C26.9521 70.6095 26.9992 71.5827 27.0935 72.4414ZM27.3765 63.7687C19.3788 59.151 13.9936 50.4497 13.9936 40.47C13.9936 34.4306 15.9742 28.8397 19.3128 24.3555L21.5197 26.8934C18.8318 30.7288 17.2568 35.4133 17.2568 40.47C17.2568 48.8278 21.5574 56.1647 28.0649 60.3436C27.7726 61.4312 27.5557 62.5761 27.3765 63.7687ZM28.6968 58.1587C23.1041 54.3328 19.426 47.8451 19.426 40.4986C19.426 30.1182 26.754 21.4742 36.4775 19.5755C35.9777 20.2816 35.5344 21.1498 35.1855 22.1516C27.3387 24.4795 21.6046 31.8069 21.6046 40.4986C21.6046 46.9101 24.7263 52.5869 29.5173 56.0502C29.2155 56.7276 28.9515 57.4336 28.6968 58.1587ZM24.2453 42.8552H25.8863C26.5088 46.7097 28.5648 50.0776 31.4979 52.3579C31.1961 52.8063 30.9037 53.2738 30.6302 53.7604C27.2539 51.1844 24.8866 47.3108 24.2453 42.8552ZM47.1819 74.5308C45.0128 74.9697 42.7681 75.1987 40.4669 75.1987C38.3072 75.1987 36.204 74.9888 34.148 74.6071C32.8843 72.8802 31.894 70.6763 31.2621 68.1671C34.148 69.1593 37.2415 69.6936 40.4575 69.6936C43.815 69.6936 47.031 69.1116 50.0302 68.043C49.4077 70.5809 48.4269 72.7944 47.1819 74.5308ZM49.5963 52.272C50.0679 51.9095 50.5112 51.4992 50.9356 51.0794C51.4731 51.337 52.0013 51.5851 52.5106 51.795C51.8787 52.4819 51.1996 53.1021 50.4734 53.6745C50.1999 53.1879 49.8981 52.7204 49.5963 52.272ZM51.6335 55.9548C52.9067 55.0102 54.0761 53.9035 55.0758 52.6632C56.0095 52.9017 56.8489 53.0257 57.5562 53.0162C56.1416 54.9721 54.4157 56.6894 52.4445 58.0633C52.1993 57.3382 51.9258 56.6322 51.6335 55.9548ZM53.0764 60.2482C59.4991 56.0597 63.7431 48.7705 63.7431 40.47C63.7431 35.4038 62.1681 30.7192 59.4708 26.8743L61.6777 24.3364C65.0163 28.8302 67.0157 34.4115 66.9969 40.47C66.9969 50.3829 61.6777 59.046 53.7743 63.6829C53.5951 62.4998 53.3688 61.3454 53.0764 60.2482ZM53.9818 72.365C54.0761 71.5254 54.1233 70.5809 54.1233 69.5028C54.1139 68.4151 54.0667 67.337 53.9724 66.2684C62.1681 61.8224 67.9871 53.4551 68.9585 43.6375L73.5515 48.9709C70.9957 59.4944 63.6394 68.1289 53.9818 72.365Z" fill="#F9F0D2"/>
<path d="M27.301 63.7593C27.3105 63.7593 27.32 63.7689 27.32 63.7689C27.3105 63.7689 27.3105 63.7689 27.301 63.7593Z" fill="#FDB515"/>
<path d="M53.7837 63.7209C53.6045 62.5378 53.3782 61.3834 53.0858 60.2767C59.5085 56.0882 63.7619 48.7895 63.7619 40.4794C63.7619 35.4132 62.1775 30.7191 59.4802 26.8742L61.6871 24.3363C59.1218 20.8921 55.7549 18.087 51.8692 16.217L50.247 19.0984C47.2762 17.715 43.9847 16.9421 40.5046 16.9421C37.0245 16.9421 33.7142 17.715 30.7434 19.1079L29.1212 16.2361C25.2356 18.1157 21.8686 20.9111 19.3128 24.3649L21.5102 26.8932C18.8224 30.7382 17.2379 35.4228 17.2379 40.4794C17.2379 48.8467 21.548 56.1836 28.0555 60.3625C27.7725 61.4597 27.5462 62.6046 27.367 63.7972C31.2432 66.0393 35.723 67.3273 40.5046 67.3273C45.3051 67.3273 49.8132 66.0298 53.6989 63.7686L53.7837 63.7209ZM61.6022 40.5176C61.6022 43.8282 60.8571 46.9481 59.5273 49.7436C59.2161 49.0757 58.7351 48.3411 58.0938 47.5778C58.9426 45.3929 59.4236 43.0173 59.4236 40.5176C59.4236 31.2057 52.85 23.4585 44.1545 21.7316C43.7678 20.7871 43.2963 19.9666 42.7681 19.2987C53.3593 20.4436 61.6022 29.4979 61.6022 40.5176ZM56.0944 40.1646L51.3222 41.9296L48.7286 40.1741L49.5963 37.5504L55.2456 36.6344L56.962 38.4281L56.0944 40.1646ZM56.764 42.8742C56.632 43.7901 56.4245 44.6869 56.151 45.5456C55.7266 45.1544 55.2739 44.7728 54.7929 44.3816C54.9249 43.8855 55.0287 43.3894 55.1135 42.8742H56.764ZM45.2674 26.3017C45.1919 25.6625 45.0882 25.0614 44.975 24.4794C49.8509 25.8724 53.812 29.4884 55.7171 34.1729L54.1233 34.5927C52.4822 30.7096 49.2662 27.6661 45.2674 26.3017ZM37.3263 38.0179L38.8447 19.1461H40.4952L42.2683 37.8843C42.2777 37.8938 42.2871 37.9034 42.306 37.9034L59.0086 51.003L58.0466 52.3578L39.637 42.1204V42.1109C39.6087 42.0918 39.5709 42.0727 39.5427 42.0536C39.3918 41.9487 39.2503 41.8437 39.1088 41.7388C38.5052 41.4526 37.9959 40.8324 37.6847 40.0119C37.5338 39.6875 37.4489 39.3536 37.4206 39.0387C37.3641 38.7525 37.3358 38.4472 37.3263 38.1324C37.3263 38.0942 37.3358 38.056 37.3263 38.0179ZM28.6874 58.1968C23.0852 54.3613 19.4071 47.8736 19.4071 40.5176C19.4071 30.1276 26.7445 21.474 36.4681 19.5754C35.9682 20.2814 35.525 21.1592 35.176 22.1514C27.3198 24.4794 21.5857 31.8163 21.5857 40.5176C21.5857 46.929 24.7074 52.6154 29.5079 56.0882C29.2061 56.7656 28.942 57.4621 28.6874 58.1968ZM34.4592 25.0137C34.3555 25.6243 34.2895 26.254 34.2423 26.9028C30.9603 28.4484 28.3478 31.1771 26.9049 34.545L25.3016 34.1252C27.018 29.9654 30.3284 26.6643 34.4592 25.0137ZM30.6302 53.7889C27.235 51.2129 24.8772 47.3297 24.2358 42.8742H25.8769C26.4993 46.7382 28.5553 50.0966 31.4979 52.3864C31.1961 52.8348 30.9037 53.3023 30.6302 53.7889ZM29.904 41.9296L25.1412 40.1741L24.2736 38.4281L25.9806 36.6344L31.6393 37.5504L32.4976 40.1741L29.904 41.9296ZM44.6638 63.5492C44.8335 63.5492 44.9844 63.5396 45.1448 63.511L46.4934 65.4192C45.9181 65.6386 45.3145 65.7531 44.6638 65.7531C42.9567 65.7531 41.4383 64.923 40.4763 63.6541C39.5144 64.9326 37.9959 65.7531 36.2889 65.7531C35.7042 65.7531 35.1477 65.6577 34.6384 65.486L36.0154 63.5301C36.1097 63.5396 36.2134 63.5492 36.2983 63.5492C37.713 63.5492 38.9013 62.5855 39.2786 61.2784L32.5353 58.5879L34.1575 54.5044L40.5141 57.09L46.8612 54.4949L48.4834 58.5879L41.6741 61.2212C42.0136 62.5569 43.2302 63.5492 44.6638 63.5492ZM49.6057 52.3005C50.0773 51.938 50.5205 51.5277 50.945 51.1079C51.4825 51.3655 52.0107 51.6136 52.5294 51.8235C51.8975 52.5104 51.2185 53.1306 50.4828 53.703C50.2093 53.2164 49.9075 52.7489 49.6057 52.3005ZM51.6334 55.9833C52.9066 55.0387 54.0761 53.9225 55.0852 52.6917C56.0189 52.9302 56.8583 53.0542 57.5751 53.0447C56.1604 55.0006 54.4345 56.7179 52.4539 58.0918C52.2087 57.3667 51.9352 56.6607 51.6334 55.9833Z" fill="#FDB515"/>
<path d="M34.1669 33.2762C33.4312 31.4539 32.224 30.0132 30.8471 29.1164C29.1683 30.5857 27.8102 32.427 26.9143 34.526L25.3204 34.1062C26.2258 31.9118 27.5745 29.956 29.2532 28.3531C28.112 27.9905 26.9237 27.9905 25.8297 28.439C24.3679 30.2517 23.2361 32.3412 22.5005 34.6119C22.5382 35.6614 22.774 36.749 23.2078 37.8272C24.8017 41.7484 28.5459 43.9142 31.5639 42.6548C34.6007 41.3954 35.7607 37.1975 34.1669 33.2762ZM25.1507 40.1551L24.283 38.4092L25.99 36.6155L31.6393 37.5314L32.4975 40.1551L29.9134 41.9106L25.1507 40.1551Z" fill="white"/>
<path d="M51.8127 28.4295C53.482 30.0323 54.8118 31.9787 55.6983 34.1635L54.1139 34.5833C53.2368 32.5129 51.9164 30.6811 50.2754 29.2213C48.955 30.1182 47.8138 31.5207 47.0971 33.2857C45.5032 37.207 46.6632 41.405 49.6906 42.6644C52.7181 43.9238 56.4528 41.758 58.0467 37.8367C58.3862 36.9971 58.6031 36.1385 58.6974 35.2989C57.9712 32.7133 56.7263 30.3376 55.0758 28.3245C54.0195 27.981 52.8972 28.0383 51.8127 28.4295ZM56.085 40.1552L51.3222 41.9107L48.7287 40.1552L49.5963 37.5314L55.2362 36.6155L56.9526 38.4092L56.085 40.1552Z" fill="white"/>
<path d="M45.9559 59.5232L41.6647 61.1833C42.0137 62.519 43.2209 63.5113 44.6544 63.5113C44.8242 63.5113 44.9751 63.5017 45.1354 63.4731L46.4841 65.3813C45.9087 65.6007 45.3052 65.7152 44.6544 65.7152C42.9474 65.7152 41.4289 64.8851 40.467 63.6162C39.505 64.8947 37.996 65.7152 36.2795 65.7152C35.6948 65.7152 35.1478 65.6198 34.6291 65.4481L36.006 63.4922C36.1003 63.5017 36.2041 63.5113 36.289 63.5113C37.7036 63.5113 38.892 62.5476 39.2598 61.2405L35.1101 59.5804C33.7803 61.0783 32.9503 63.1296 32.9503 65.3813C32.9503 66.6311 33.205 67.8046 33.6482 68.8732C35.8268 69.4075 38.0903 69.6937 40.4387 69.6937C42.8719 69.6937 45.2203 69.3884 47.4743 68.816C47.9082 67.7665 48.1534 66.612 48.1534 65.3908C48.1628 63.101 47.3234 61.0306 45.9559 59.5232Z" fill="white"/>
</g>
<defs>
<clipPath id="clip0">
<rect width="79.0805" height="80" fill="white" transform="translate(0.959717 0.522461)"/>
</clipPath>
</defs>
</svg>
