<svg xmlns="http://www.w3.org/2000/svg" viewBox="0 0 26 22"><path d="M25.852 2.68a.553.553 0 0 0-.676-.124 4.82 4.82 0 0 1-.722.27c.398-.546.718-1.156.86-1.704a.591.591 0 0 0-.224-.627.553.553 0 0 0-.647 0c-.307.22-1.785.882-2.72 1.096-2.113-1.907-4.572-2.105-7.127-.567-2.078 1.25-2.53 3.79-2.442 5.34-4.756-.472-7.712-3.06-9.376-5.202a.57.57 0 0 0-.48-.217.567.567 0 0 0-.448.284c-.787 1.368-1.005 2.88-.628 4.375.205.815.565 1.534.982 2.116a3.069 3.069 0 0 1-.575-.38.554.554 0 0 0-.6-.074.585.585 0 0 0-.322.526c0 2.566 1.558 4.278 3.013 5.172a4.117 4.117 0 0 1-.728-.16.555.555 0 0 0-.59.172.595.595 0 0 0-.09.624c.817 1.862 2.365 3.143 4.281 3.608C4.92 18.22 2.681 18.716.63 18.473a.56.56 0 0 0-.602.398.59.59 0 0 0 .26.687C3.398 21.358 6.21 22 8.642 22c3.537 0 6.267-1.36 7.928-2.498 4.48-3.063 7.273-8.562 6.884-13.482.717-.546 1.791-1.555 2.457-2.64a.589.589 0 0 0-.059-.7z"/></svg>