<svg width="16" height="16" viewBox="0 0 16 16" fill="none" xmlns="http://www.w3.org/2000/svg">
<path fill-rule="evenodd" clip-rule="evenodd" d="M8 15C11.866 15 15 11.866 15 8C15 4.13401 11.866 1 8 1C4.13401 1 1 4.13401 1 8C1 11.866 4.13401 15 8 15ZM11 4V5.16948C11.0005 5.49918 10.8938 5.82119 10.6943 6.09259L9.29695 8L10.6943 9.90741C10.8938 10.1788 11.0005 10.5008 11 10.8305V12H5V10.8305C4.99954 10.5008 5.10617 10.1788 5.30569 9.90741L6.70305 8L5.30569 6.09259C5.10617 5.82119 4.99954 5.49918 5 5.16948V4H11ZM9.57895 10.9227C9.57915 10.8028 9.54062 10.6857 9.46842 10.5868L8.26084 8.93852C8.23184 8.8988 8.19296 8.8663 8.14757 8.84385C8.10217 8.8214 8.05163 8.80967 8.00032 8.80967C7.949 8.80967 7.89846 8.8214 7.85306 8.84385C7.80767 8.8663 7.76879 8.8988 7.73979 8.93852L6.53158 10.5868C6.45942 10.6857 6.42088 10.8027 6.42105 10.9225V11.1111H9.57895V10.9227Z" fill="#7D64FF"/>
</svg>
